STARTFONT 2.1
FONT -big5
SIZE 16 75 75
FONTBOUNDINGBOX 16 16 0 -2
STARTPROPERTIES 7
PIXEL_SIZE 16
POINT_SIZE 160
FONT_ASCENT 14
FONT_DESCENT 2
CHARSET_REGISTRY "iso10646"
CHARSET_ENCODING "1"
DEFAULT_CHAR 12288
ENDPROPERTIES
CHARS 13741
STARTCHAR U+0000
ENCODING 0
SWIDTH 500 0
DWIDTH 8 0
BBX 8 16 0 -2
BITMAP
00
00
00
00
00
00
00
00
00
00
00
00
00
00
00
00
ENDCHAR
STARTCHAR U+0001
ENCODING 1
SWIDTH 500 0
DWIDTH 8 0
BBX 8 16 0 -2
BITMAP
00
00
00
7E
81
A5
81
81
BD
99
81
7E
00
00
00
00
ENDCHAR
STARTCHAR U+0002
ENCODING 2
SWIDTH 500 0
DWIDTH 8 0
BBX 8 16 0 -2
BITMAP
00
00
00
7E
FF
DB
FF
FF
C3
E7
FF
7E
00
00
00
00
ENDCHAR
STARTCHAR U+0003
ENCODING 3
SWIDTH 500 0
DWIDTH 8 0
BBX 8 16 0 -2
BITMAP
00
00
00
00
36
7F
7F
7F
7F
3E
1C
08
00
00
00
00
ENDCHAR
STARTCHAR U+0004
ENCODING 4
SWIDTH 500 0
DWIDTH 8 0
BBX 8 16 0 -2
BITMAP
00
00
00
00
08
1C
3E
7F
3E
1C
08
00
00
00
00
00
ENDCHAR
STARTCHAR U+0005
ENCODING 5
SWIDTH 500 0
DWIDTH 8 0
BBX 8 16 0 -2
BITMAP
00
00
00
18
3C
3C
E7
E7
E7
18
18
3C
00
00
00
00
ENDCHAR
STARTCHAR U+0006
ENCODING 6
SWIDTH 500 0
DWIDTH 8 0
BBX 8 16 0 -2
BITMAP
00
00
00
18
3C
7E
FF
FF
7E
18
18
3C
00
00
00
00
ENDCHAR
STARTCHAR U+0007
ENCODING 7
SWIDTH 500 0
DWIDTH 8 0
BBX 8 16 0 -2
BITMAP
00
00
00
00
00
00
18
3C
3C
18
00
00
00
00
00
00
ENDCHAR
STARTCHAR U+0008
ENCODING 8
SWIDTH 500 0
DWIDTH 8 0
BBX 8 16 0 -2
BITMAP
FF
FF
FF
FF
FF
FF
E7
C3
C3
E7
FF
FF
FF
FF
FF
00
ENDCHAR
STARTCHAR U+0009
ENCODING 9
SWIDTH 500 0
DWIDTH 8 0
BBX 8 16 0 -2
BITMAP
00
00
00
00
00
3C
66
42
42
66
3C
00
00
00
00
00
ENDCHAR
STARTCHAR U+000A
ENCODING 10
SWIDTH 500 0
DWIDTH 8 0
BBX 8 16 0 -2
BITMAP
FF
FF
FF
FF
FF
C3
99
BD
BD
99
C3
FF
FF
FF
FF
00
ENDCHAR
STARTCHAR U+000B
ENCODING 11
SWIDTH 500 0
DWIDTH 8 0
BBX 8 16 0 -2
BITMAP
00
00
00
0F
07
0D
19
3C
66
66
66
3C
00
00
00
00
ENDCHAR
STARTCHAR U+000C
ENCODING 12
SWIDTH 500 0
DWIDTH 8 0
BBX 8 16 0 -2
BITMAP
00
00
00
3C
66
66
66
3C
18
7E
18
18
00
00
00
00
ENDCHAR
STARTCHAR U+000D
ENCODING 13
SWIDTH 500 0
DWIDTH 8 0
BBX 8 16 0 -2
BITMAP
00
00
00
3F
33
3F
30
30
30
70
F0
E0
00
00
00
00
ENDCHAR
STARTCHAR U+000E
ENCODING 14
SWIDTH 500 0
DWIDTH 8 0
BBX 8 16 0 -2
BITMAP
00
00
00
7F
63
7F
63
63
63
67
E7
E6
C0
00
00
00
ENDCHAR
STARTCHAR U+000F
ENCODING 15
SWIDTH 500 0
DWIDTH 8 0
BBX 8 16 0 -2
BITMAP
00
00
00
18
18
DB
3C
E7
3C
DB
18
18
00
00
00
00
ENDCHAR
STARTCHAR U+0010
ENCODING 16
SWIDTH 500 0
DWIDTH 8 0
BBX 8 16 0 -2
BITMAP
00
00
00
40
60
70
7C
7F
7C
70
60
40
00
00
00
00
ENDCHAR
STARTCHAR U+0011
ENCODING 17
SWIDTH 500 0
DWIDTH 8 0
BBX 8 16 0 -2
BITMAP
00
00
00
01
03
07
1F
7F
1F
07
03
01
00
00
00
00
ENDCHAR
STARTCHAR U+0012
ENCODING 18
SWIDTH 500 0
DWIDTH 8 0
BBX 8 16 0 -2
BITMAP
00
00
00
18
3C
7E
18
18
18
7E
3C
18
00
00
00
00
ENDCHAR
STARTCHAR U+0013
ENCODING 19
SWIDTH 500 0
DWIDTH 8 0
BBX 8 16 0 -2
BITMAP
00
00
00
33
33
33
33
33
33
00
33
33
00
00
00
00
ENDCHAR
STARTCHAR U+0014
ENCODING 20
SWIDTH 500 0
DWIDTH 8 0
BBX 8 16 0 -2
BITMAP
00
00
00
7F
DB
DB
DB
7B
1B
1B
1B
1B
00
00
00
00
ENDCHAR
STARTCHAR U+0015
ENCODING 21
SWIDTH 500 0
DWIDTH 8 0
BBX 8 16 0 -2
BITMAP
00
00
3E
63
30
1C
36
63
63
36
1C
06
63
3E
00
00
ENDCHAR
STARTCHAR U+0016
ENCODING 22
SWIDTH 500 0
DWIDTH 8 0
BBX 8 16 0 -2
BITMAP
00
00
00
00
00
00
00
00
00
7F
7F
7F
00
00
00
00
ENDCHAR
STARTCHAR U+0017
ENCODING 23
SWIDTH 500 0
DWIDTH 8 0
BBX 8 16 0 -2
BITMAP
00
00
00
18
3C
7E
18
18
18
7E
3C
18
7E
00
00
00
ENDCHAR
STARTCHAR U+0018
ENCODING 24
SWIDTH 500 0
DWIDTH 8 0
BBX 8 16 0 -2
BITMAP
00
00
00
18
3C
7E
18
18
18
18
18
18
00
00
00
00
ENDCHAR
STARTCHAR U+0019
ENCODING 25
SWIDTH 500 0
DWIDTH 8 0
BBX 8 16 0 -2
BITMAP
00
00
00
18
18
18
18
18
18
7E
3C
18
00
00
00
00
ENDCHAR
STARTCHAR U+001A
ENCODING 26
SWIDTH 500 0
DWIDTH 8 0
BBX 8 16 0 -2
BITMAP
00
00
00
00
00
0C
06
7F
06
0C
00
00
00
00
00
00
ENDCHAR
STARTCHAR U+001B
ENCODING 27
SWIDTH 500 0
DWIDTH 8 0
BBX 8 16 0 -2
BITMAP
00
00
00
00
00
18
30
7F
30
18
00
00
00
00
00
00
ENDCHAR
STARTCHAR U+001C
ENCODING 28
SWIDTH 500 0
DWIDTH 8 0
BBX 8 16 0 -2
BITMAP
00
00
00
00
00
00
60
60
60
7F
00
00
00
00
00
00
ENDCHAR
STARTCHAR U+001D
ENCODING 29
SWIDTH 500 0
DWIDTH 8 0
BBX 8 16 0 -2
BITMAP
00
00
00
00
00
24
66
FF
66
24
00
00
00
00
00
00
ENDCHAR
STARTCHAR U+001E
ENCODING 30
SWIDTH 500 0
DWIDTH 8 0
BBX 8 16 0 -2
BITMAP
00
00
00
00
08
1C
1C
3E
3E
7F
7F
00
00
00
00
00
ENDCHAR
STARTCHAR U+001F
ENCODING 31
SWIDTH 500 0
DWIDTH 8 0
BBX 8 16 0 -2
BITMAP
00
00
00
00
7F
7F
3E
3E
1C
1C
08
00
00
00
00
00
ENDCHAR
STARTCHAR U+0020
ENCODING 32
SWIDTH 500 0
DWIDTH 8 0
BBX 8 16 0 -2
BITMAP
00
00
00
00
00
00
00
00
00
00
00
00
00
00
00
00
ENDCHAR
STARTCHAR U+0021
ENCODING 33
SWIDTH 500 0
DWIDTH 8 0
BBX 8 16 0 -2
BITMAP
00
00
00
18
3C
3C
3C
18
18
00
18
18
00
00
00
00
ENDCHAR
STARTCHAR U+0022
ENCODING 34
SWIDTH 500 0
DWIDTH 8 0
BBX 8 16 0 -2
BITMAP
00
00
63
63
63
22
00
00
00
00
00
00
00
00
00
00
ENDCHAR
STARTCHAR U+0023
ENCODING 35
SWIDTH 500 0
DWIDTH 8 0
BBX 8 16 0 -2
BITMAP
00
00
00
36
36
7F
36
36
36
7F
36
36
00
00
00
00
ENDCHAR
STARTCHAR U+0024
ENCODING 36
SWIDTH 500 0
DWIDTH 8 0
BBX 8 16 0 -2
BITMAP
00
0C
0C
3E
63
61
60
3E
03
43
63
3E
0C
0C
00
00
ENDCHAR
STARTCHAR U+0025
ENCODING 37
SWIDTH 500 0
DWIDTH 8 0
BBX 8 16 0 -2
BITMAP
00
00
00
00
00
61
63
06
0C
18
33
63
00
00
00
00
ENDCHAR
STARTCHAR U+0026
ENCODING 38
SWIDTH 500 0
DWIDTH 8 0
BBX 8 16 0 -2
BITMAP
00
00
00
1C
36
36
1C
3B
6E
66
66
3B
00
00
00
00
ENDCHAR
STARTCHAR U+0027
ENCODING 39
SWIDTH 500 0
DWIDTH 8 0
BBX 8 16 0 -2
BITMAP
00
00
30
30
30
60
00
00
00
00
00
00
00
00
00
00
ENDCHAR
STARTCHAR U+0028
ENCODING 40
SWIDTH 500 0
DWIDTH 8 0
BBX 8 16 0 -2
BITMAP
00
00
00
0C
18
30
30
30
30
30
18
0C
00
00
00
00
ENDCHAR
STARTCHAR U+0029
ENCODING 41
SWIDTH 500 0
DWIDTH 8 0
BBX 8 16 0 -2
BITMAP
00
00
00
18
0C
06
06
06
06
06
0C
18
00
00
00
00
ENDCHAR
STARTCHAR U+002A
ENCODING 42
SWIDTH 500 0
DWIDTH 8 0
BBX 8 16 0 -2
BITMAP
00
00
00
00
00
66
3C
FF
3C
66
00
00
00
00
00
00
ENDCHAR
STARTCHAR U+002B
ENCODING 43
SWIDTH 500 0
DWIDTH 8 0
BBX 8 16 0 -2
BITMAP
00
00
00
00
18
18
18
FF
18
18
18
00
00
00
00
00
ENDCHAR
STARTCHAR U+002C
ENCODING 44
SWIDTH 500 0
DWIDTH 8 0
BBX 8 16 0 -2
BITMAP
00
00
00
00
00
00
00
00
00
18
18
18
30
00
00
00
ENDCHAR
STARTCHAR U+002D
ENCODING 45
SWIDTH 500 0
DWIDTH 8 0
BBX 8 16 0 -2
BITMAP
00
00
00
00
00
00
00
FE
00
00
00
00
00
00
00
00
ENDCHAR
STARTCHAR U+002E
ENCODING 46
SWIDTH 500 0
DWIDTH 8 0
BBX 8 16 0 -2
BITMAP
00
00
00
00
00
00
00
00
00
00
18
18
00
00
00
00
ENDCHAR
STARTCHAR U+002F
ENCODING 47
SWIDTH 500 0
DWIDTH 8 0
BBX 8 16 0 -2
BITMAP
00
00
00
01
03
06
0C
18
30
60
40
00
00
00
00
00
ENDCHAR
STARTCHAR U+0030
ENCODING 48
SWIDTH 500 0
DWIDTH 8 0
BBX 8 16 0 -2
BITMAP
00
00
00
3E
63
67
6F
7B
73
63
63
3E
00
00
00
00
ENDCHAR
STARTCHAR U+0031
ENCODING 49
SWIDTH 500 0
DWIDTH 8 0
BBX 8 16 0 -2
BITMAP
00
00
00
0C
1C
3C
0C
0C
0C
0C
0C
3F
00
00
00
00
ENDCHAR
STARTCHAR U+0032
ENCODING 50
SWIDTH 500 0
DWIDTH 8 0
BBX 8 16 0 -2
BITMAP
00
00
00
3E
63
03
06
0C
18
30
63
7F
00
00
00
00
ENDCHAR
STARTCHAR U+0033
ENCODING 51
SWIDTH 500 0
DWIDTH 8 0
BBX 8 16 0 -2
BITMAP
00
00
00
3E
63
03
03
1E
03
03
63
3E
00
00
00
00
ENDCHAR
STARTCHAR U+0034
ENCODING 52
SWIDTH 500 0
DWIDTH 8 0
BBX 8 16 0 -2
BITMAP
00
00
00
06
0E
1E
36
66
7F
06
06
0F
00
00
00
00
ENDCHAR
STARTCHAR U+0035
ENCODING 53
SWIDTH 500 0
DWIDTH 8 0
BBX 8 16 0 -2
BITMAP
00
00
00
7F
60
60
60
7E
03
03
63
3E
00
00
00
00
ENDCHAR
STARTCHAR U+0036
ENCODING 54
SWIDTH 500 0
DWIDTH 8 0
BBX 8 16 0 -2
BITMAP
00
00
00
1C
30
60
60
7E
63
63
63
3E
00
00
00
00
ENDCHAR
STARTCHAR U+0037
ENCODING 55
SWIDTH 500 0
DWIDTH 8 0
BBX 8 16 0 -2
BITMAP
00
00
00
7F
63
03
06
0C
18
18
18
18
00
00
00
00
ENDCHAR
STARTCHAR U+0038
ENCODING 56
SWIDTH 500 0
DWIDTH 8 0
BBX 8 16 0 -2
BITMAP
00
00
00
3E
63
63
63
3E
63
63
63
3E
00
00
00
00
ENDCHAR
STARTCHAR U+0039
ENCODING 57
SWIDTH 500 0
DWIDTH 8 0
BBX 8 16 0 -2
BITMAP
00
00
00
3E
63
63
63
3F
03
03
06
3C
00
00
00
00
ENDCHAR
STARTCHAR U+003A
ENCODING 58
SWIDTH 500 0
DWIDTH 8 0
BBX 8 16 0 -2
BITMAP
00
00
00
00
18
18
00
00
00
18
18
00
00
00
00
00
ENDCHAR
STARTCHAR U+003B
ENCODING 59
SWIDTH 500 0
DWIDTH 8 0
BBX 8 16 0 -2
BITMAP
00
00
00
00
18
18
00
00
00
18
18
30
00
00
00
00
ENDCHAR
STARTCHAR U+003C
ENCODING 60
SWIDTH 500 0
DWIDTH 8 0
BBX 8 16 0 -2
BITMAP
00
00
00
06
0C
18
30
60
30
18
0C
06
00
00
00
00
ENDCHAR
STARTCHAR U+003D
ENCODING 61
SWIDTH 500 0
DWIDTH 8 0
BBX 8 16 0 -2
BITMAP
00
00
00
00
00
00
7E
00
00
7E
00
00
00
00
00
00
ENDCHAR
STARTCHAR U+003E
ENCODING 62
SWIDTH 500 0
DWIDTH 8 0
BBX 8 16 0 -2
BITMAP
00
00
00
60
30
18
0C
06
0C
18
30
60
00
00
00
00
ENDCHAR
STARTCHAR U+003F
ENCODING 63
SWIDTH 500 0
DWIDTH 8 0
BBX 8 16 0 -2
BITMAP
00
00
00
3E
63
63
06
0C
0C
00
0C
0C
00
00
00
00
ENDCHAR
STARTCHAR U+0040
ENCODING 64
SWIDTH 500 0
DWIDTH 8 0
BBX 8 16 0 -2
BITMAP
00
00
00
3E
63
63
6F
6F
6F
6E
60
3E
00
00
00
00
ENDCHAR
STARTCHAR U+0041
ENCODING 65
SWIDTH 500 0
DWIDTH 8 0
BBX 8 16 0 -2
BITMAP
00
00
00
08
1C
36
63
63
7F
63
63
63
00
00
00
00
ENDCHAR
STARTCHAR U+0042
ENCODING 66
SWIDTH 500 0
DWIDTH 8 0
BBX 8 16 0 -2
BITMAP
00
00
00
7E
33
33
33
3E
33
33
33
7E
00
00
00
00
ENDCHAR
STARTCHAR U+0043
ENCODING 67
SWIDTH 500 0
DWIDTH 8 0
BBX 8 16 0 -2
BITMAP
00
00
00
1E
33
61
60
60
60
61
33
1E
00
00
00
00
ENDCHAR
STARTCHAR U+0044
ENCODING 68
SWIDTH 500 0
DWIDTH 8 0
BBX 8 16 0 -2
BITMAP
00
00
00
7C
36
33
33
33
33
33
36
7C
00
00
00
00
ENDCHAR
STARTCHAR U+0045
ENCODING 69
SWIDTH 500 0
DWIDTH 8 0
BBX 8 16 0 -2
BITMAP
00
00
00
7F
33
31
34
3C
34
31
33
7F
00
00
00
00
ENDCHAR
STARTCHAR U+0046
ENCODING 70
SWIDTH 500 0
DWIDTH 8 0
BBX 8 16 0 -2
BITMAP
00
00
00
7F
33
31
34
3C
34
30
30
78
00
00
00
00
ENDCHAR
STARTCHAR U+0047
ENCODING 71
SWIDTH 500 0
DWIDTH 8 0
BBX 8 16 0 -2
BITMAP
00
00
00
1E
33
61
60
60
6F
63
33
1D
00
00
00
00
ENDCHAR
STARTCHAR U+0048
ENCODING 72
SWIDTH 500 0
DWIDTH 8 0
BBX 8 16 0 -2
BITMAP
00
00
00
63
63
63
63
7F
63
63
63
63
00
00
00
00
ENDCHAR
STARTCHAR U+0049
ENCODING 73
SWIDTH 500 0
DWIDTH 8 0
BBX 8 16 0 -2
BITMAP
00
00
00
3C
18
18
18
18
18
18
18
3C
00
00
00
00
ENDCHAR
STARTCHAR U+004A
ENCODING 74
SWIDTH 500 0
DWIDTH 8 0
BBX 8 16 0 -2
BITMAP
00
00
00
0F
06
06
06
06
06
66
66
3C
00
00
00
00
ENDCHAR
STARTCHAR U+004B
ENCODING 75
SWIDTH 500 0
DWIDTH 8 0
BBX 8 16 0 -2
BITMAP
00
00
00
73
33
36
36
3C
36
36
33
73
00
00
00
00
ENDCHAR
STARTCHAR U+004C
ENCODING 76
SWIDTH 500 0
DWIDTH 8 0
BBX 8 16 0 -2
BITMAP
00
00
00
78
30
30
30
30
30
31
33
7F
00
00
00
00
ENDCHAR
STARTCHAR U+004D
ENCODING 77
SWIDTH 500 0
DWIDTH 8 0
BBX 8 16 0 -2
BITMAP
00
00
00
63
77
7F
6B
63
63
63
63
63
00
00
00
00
ENDCHAR
STARTCHAR U+004E
ENCODING 78
SWIDTH 500 0
DWIDTH 8 0
BBX 8 16 0 -2
BITMAP
00
00
00
63
73
7B
7F
6F
67
63
63
63
00
00
00
00
ENDCHAR
STARTCHAR U+004F
ENCODING 79
SWIDTH 500 0
DWIDTH 8 0
BBX 8 16 0 -2
BITMAP
00
00
00
1C
36
63
63
63
63
63
36
1C
00
00
00
00
ENDCHAR
STARTCHAR U+0050
ENCODING 80
SWIDTH 500 0
DWIDTH 8 0
BBX 8 16 0 -2
BITMAP
00
00
00
7E
33
33
33
3E
30
30
30
78
00
00
00
00
ENDCHAR
STARTCHAR U+0051
ENCODING 81
SWIDTH 500 0
DWIDTH 8 0
BBX 8 16 0 -2
BITMAP
00
00
00
3E
63
63
63
63
6B
6F
3E
06
07
00
00
00
ENDCHAR
STARTCHAR U+0052
ENCODING 82
SWIDTH 500 0
DWIDTH 8 0
BBX 8 16 0 -2
BITMAP
00
00
00
7E
33
33
33
3E
36
33
33
73
00
00
00
00
ENDCHAR
STARTCHAR U+0053
ENCODING 83
SWIDTH 500 0
DWIDTH 8 0
BBX 8 16 0 -2
BITMAP
00
00
00
3E
63
63
30
1C
06
63
63
3E
00
00
00
00
ENDCHAR
STARTCHAR U+0054
ENCODING 84
SWIDTH 500 0
DWIDTH 8 0
BBX 8 16 0 -2
BITMAP
00
00
00
FF
99
18
18
18
18
18
18
3C
00
00
00
00
ENDCHAR
STARTCHAR U+0055
ENCODING 85
SWIDTH 500 0
DWIDTH 8 0
BBX 8 16 0 -2
BITMAP
00
00
00
63
63
63
63
63
63
63
63
3E
00
00
00
00
ENDCHAR
STARTCHAR U+0056
ENCODING 86
SWIDTH 500 0
DWIDTH 8 0
BBX 8 16 0 -2
BITMAP
00
00
00
63
63
63
63
63
63
36
1C
08
00
00
00
00
ENDCHAR
STARTCHAR U+0057
ENCODING 87
SWIDTH 500 0
DWIDTH 8 0
BBX 8 16 0 -2
BITMAP
00
00
00
63
63
63
63
63
6B
7F
77
63
00
00
00
00
ENDCHAR
STARTCHAR U+0058
ENCODING 88
SWIDTH 500 0
DWIDTH 8 0
BBX 8 16 0 -2
BITMAP
00
00
00
63
63
63
36
1C
36
63
63
63
00
00
00
00
ENDCHAR
STARTCHAR U+0059
ENCODING 89
SWIDTH 500 0
DWIDTH 8 0
BBX 8 16 0 -2
BITMAP
00
00
00
63
63
63
36
1C
1C
1C
1C
3E
00
00
00
00
ENDCHAR
STARTCHAR U+005A
ENCODING 90
SWIDTH 500 0
DWIDTH 8 0
BBX 8 16 0 -2
BITMAP
00
00
00
7F
63
46
0C
18
30
61
63
7F
00
00
00
00
ENDCHAR
STARTCHAR U+005B
ENCODING 91
SWIDTH 500 0
DWIDTH 8 0
BBX 8 16 0 -2
BITMAP
00
00
00
3C
30
30
30
30
30
30
30
3C
00
00
00
00
ENDCHAR
STARTCHAR U+005C
ENCODING 92
SWIDTH 500 0
DWIDTH 8 0
BBX 8 16 0 -2
BITMAP
00
00
00
40
60
70
38
1C
0E
07
03
01
00
00
00
00
ENDCHAR
STARTCHAR U+005D
ENCODING 93
SWIDTH 500 0
DWIDTH 8 0
BBX 8 16 0 -2
BITMAP
00
00
00
3C
0C
0C
0C
0C
0C
0C
0C
3C
00
00
00
00
ENDCHAR
STARTCHAR U+005E
ENCODING 94
SWIDTH 500 0
DWIDTH 8 0
BBX 8 16 0 -2
BITMAP
00
08
1C
36
63
00
00
00
00
00
00
00
00
00
00
00
ENDCHAR
STARTCHAR U+005F
ENCODING 95
SWIDTH 500 0
DWIDTH 8 0
BBX 8 16 0 -2
BITMAP
00
00
00
00
00
00
00
00
00
00
00
00
00
FF
00
00
ENDCHAR
STARTCHAR U+0060
ENCODING 96
SWIDTH 500 0
DWIDTH 8 0
BBX 8 16 0 -2
BITMAP
00
18
18
0C
00
00
00
00
00
00
00
00
00
00
00
00
ENDCHAR
STARTCHAR U+0061
ENCODING 97
SWIDTH 500 0
DWIDTH 8 0
BBX 8 16 0 -2
BITMAP
00
00
00
00
00
00
3C
06
3E
66
66
3B
00
00
00
00
ENDCHAR
STARTCHAR U+0062
ENCODING 98
SWIDTH 500 0
DWIDTH 8 0
BBX 8 16 0 -2
BITMAP
00
00
00
70
30
30
3C
36
33
33
33
6E
00
00
00
00
ENDCHAR
STARTCHAR U+0063
ENCODING 99
SWIDTH 500 0
DWIDTH 8 0
BBX 8 16 0 -2
BITMAP
00
00
00
00
00
00
3E
63
60
60
63
3E
00
00
00
00
ENDCHAR
STARTCHAR U+0064
ENCODING 100
SWIDTH 500 0
DWIDTH 8 0
BBX 8 16 0 -2
BITMAP
00
00
00
0E
06
06
1E
36
66
66
66
3B
00
00
00
00
ENDCHAR
STARTCHAR U+0065
ENCODING 101
SWIDTH 500 0
DWIDTH 8 0
BBX 8 16 0 -2
BITMAP
00
00
00
00
00
00
3E
63
7F
60
63
3E
00
00
00
00
ENDCHAR
STARTCHAR U+0066
ENCODING 102
SWIDTH 500 0
DWIDTH 8 0
BBX 8 16 0 -2
BITMAP
00
00
00
1C
36
32
30
7C
30
30
30
78
00
00
00
00
ENDCHAR
STARTCHAR U+0067
ENCODING 103
SWIDTH 500 0
DWIDTH 8 0
BBX 8 16 0 -2
BITMAP
00
00
00
00
00
00
3B
66
66
66
3E
06
66
3C
00
00
ENDCHAR
STARTCHAR U+0068
ENCODING 104
SWIDTH 500 0
DWIDTH 8 0
BBX 8 16 0 -2
BITMAP
00
00
00
70
30
30
36
3B
33
33
33
73
00
00
00
00
ENDCHAR
STARTCHAR U+0069
ENCODING 105
SWIDTH 500 0
DWIDTH 8 0
BBX 8 16 0 -2
BITMAP
00
00
00
0C
0C
00
1C
0C
0C
0C
0C
1E
00
00
00
00
ENDCHAR
STARTCHAR U+006A
ENCODING 106
SWIDTH 500 0
DWIDTH 8 0
BBX 8 16 0 -2
BITMAP
00
00
00
06
06
00
0E
06
06
06
06
66
66
3C
00
00
ENDCHAR
STARTCHAR U+006B
ENCODING 107
SWIDTH 500 0
DWIDTH 8 0
BBX 8 16 0 -2
BITMAP
00
00
00
70
30
30
33
36
3C
36
33
73
00
00
00
00
ENDCHAR
STARTCHAR U+006C
ENCODING 108
SWIDTH 500 0
DWIDTH 8 0
BBX 8 16 0 -2
BITMAP
00
00
00
1C
0C
0C
0C
0C
0C
0C
0C
1E
00
00
00
00
ENDCHAR
STARTCHAR U+006D
ENCODING 109
SWIDTH 500 0
DWIDTH 8 0
BBX 8 16 0 -2
BITMAP
00
00
00
00
00
00
22
7F
6B
6B
6B
6B
00
00
00
00
ENDCHAR
STARTCHAR U+006E
ENCODING 110
SWIDTH 500 0
DWIDTH 8 0
BBX 8 16 0 -2
BITMAP
00
00
00
00
00
00
6E
33
33
33
33
33
00
00
00
00
ENDCHAR
STARTCHAR U+006F
ENCODING 111
SWIDTH 500 0
DWIDTH 8 0
BBX 8 16 0 -2
BITMAP
00
00
00
00
00
00
3E
63
63
63
63
3E
00
00
00
00
ENDCHAR
STARTCHAR U+0070
ENCODING 112
SWIDTH 500 0
DWIDTH 8 0
BBX 8 16 0 -2
BITMAP
00
00
00
00
00
00
6E
33
33
33
3E
30
30
78
00
00
ENDCHAR
STARTCHAR U+0071
ENCODING 113
SWIDTH 500 0
DWIDTH 8 0
BBX 8 16 0 -2
BITMAP
00
00
00
00
00
00
3B
66
66
66
3E
06
06
0F
00
00
ENDCHAR
STARTCHAR U+0072
ENCODING 114
SWIDTH 500 0
DWIDTH 8 0
BBX 8 16 0 -2
BITMAP
00
00
00
00
00
00
6E
3B
33
30
30
78
00
00
00
00
ENDCHAR
STARTCHAR U+0073
ENCODING 115
SWIDTH 500 0
DWIDTH 8 0
BBX 8 16 0 -2
BITMAP
00
00
00
00
00
00
3E
63
38
0E
63
3E
00
00
00
00
ENDCHAR
STARTCHAR U+0074
ENCODING 116
SWIDTH 500 0
DWIDTH 8 0
BBX 8 16 0 -2
BITMAP
00
00
00
08
18
18
7E
18
18
18
1B
0E
00
00
00
00
ENDCHAR
STARTCHAR U+0075
ENCODING 117
SWIDTH 500 0
DWIDTH 8 0
BBX 8 16 0 -2
BITMAP
00
00
00
00
00
00
66
66
66
66
66
3B
00
00
00
00
ENDCHAR
STARTCHAR U+0076
ENCODING 118
SWIDTH 500 0
DWIDTH 8 0
BBX 8 16 0 -2
BITMAP
00
00
00
00
00
00
63
63
63
36
1C
08
00
00
00
00
ENDCHAR
STARTCHAR U+0077
ENCODING 119
SWIDTH 500 0
DWIDTH 8 0
BBX 8 16 0 -2
BITMAP
00
00
00
00
00
00
63
63
63
6B
7F
36
00
00
00
00
ENDCHAR
STARTCHAR U+0078
ENCODING 120
SWIDTH 500 0
DWIDTH 8 0
BBX 8 16 0 -2
BITMAP
00
00
00
00
00
00
63
36
1C
1C
36
63
00
00
00
00
ENDCHAR
STARTCHAR U+0079
ENCODING 121
SWIDTH 500 0
DWIDTH 8 0
BBX 8 16 0 -2
BITMAP
00
00
00
00
00
00
63
63
63
63
3F
03
06
3C
00
00
ENDCHAR
STARTCHAR U+007A
ENCODING 122
SWIDTH 500 0
DWIDTH 8 0
BBX 8 16 0 -2
BITMAP
00
00
00
00
00
00
7F
66
0C
18
33
7F
00
00
00
00
ENDCHAR
STARTCHAR U+007B
ENCODING 123
SWIDTH 500 0
DWIDTH 8 0
BBX 8 16 0 -2
BITMAP
00
00
00
0E
18
18
18
70
18
18
18
0E
00
00
00
00
ENDCHAR
STARTCHAR U+007C
ENCODING 124
SWIDTH 500 0
DWIDTH 8 0
BBX 8 16 0 -2
BITMAP
00
00
00
18
18
18
18
00
18
18
18
18
00
00
00
00
ENDCHAR
STARTCHAR U+007D
ENCODING 125
SWIDTH 500 0
DWIDTH 8 0
BBX 8 16 0 -2
BITMAP
00
00
00
70
18
18
18
0E
18
18
18
70
00
00
00
00
ENDCHAR
STARTCHAR U+007E
ENCODING 126
SWIDTH 500 0
DWIDTH 8 0
BBX 8 16 0 -2
BITMAP
00
00
00
3B
6E
00
00
00
00
00
00
00
00
00
00
00
ENDCHAR
STARTCHAR U+007F
ENCODING 127
SWIDTH 500 0
DWIDTH 8 0
BBX 8 16 0 -2
BITMAP
00
00
00
00
00
08
1C
36
63
63
7F
00
00
00
00
00
ENDCHAR
STARTCHAR U+0080
ENCODING 128
SWIDTH 500 0
DWIDTH 8 0
BBX 8 16 0 -2
BITMAP
00
3C
66
C2
C0
C2
66
3C
18
0E
0C
78
00
00
00
00
ENDCHAR
STARTCHAR U+0081
ENCODING 129
SWIDTH 500 0
DWIDTH 8 0
BBX 8 16 0 -2
BITMAP
00
00
66
00
00
66
66
66
66
66
66
3E
00
00
00
00
ENDCHAR
STARTCHAR U+0082
ENCODING 130
SWIDTH 500 0
DWIDTH 8 0
BBX 8 16 0 -2
BITMAP
00
00
06
0C
18
00
3E
63
7F
60
63
3E
00
00
00
00
ENDCHAR
STARTCHAR U+0083
ENCODING 131
SWIDTH 500 0
DWIDTH 8 0
BBX 8 16 0 -2
BITMAP
00
00
08
1C
36
00
3C
06
3E
66
66
3B
00
00
00
00
ENDCHAR
STARTCHAR U+0084
ENCODING 132
SWIDTH 500 0
DWIDTH 8 0
BBX 8 16 0 -2
BITMAP
00
00
00
66
66
00
3C
06
3E
66
66
3B
00
00
00
00
ENDCHAR
STARTCHAR U+0085
ENCODING 133
SWIDTH 500 0
DWIDTH 8 0
BBX 8 16 0 -2
BITMAP
00
00
30
18
0C
00
3C
06
3E
66
66
3B
00
00
00
00
ENDCHAR
STARTCHAR U+0086
ENCODING 134
SWIDTH 500 0
DWIDTH 8 0
BBX 8 16 0 -2
BITMAP
00
00
1C
36
1C
00
3C
06
3E
66
66
3B
00
00
00
00
ENDCHAR
STARTCHAR U+0087
ENCODING 135
SWIDTH 500 0
DWIDTH 8 0
BBX 8 16 0 -2
BITMAP
00
00
00
00
00
3C
66
60
66
3C
0C
06
3C
00
00
00
ENDCHAR
STARTCHAR U+0088
ENCODING 136
SWIDTH 500 0
DWIDTH 8 0
BBX 8 16 0 -2
BITMAP
00
00
08
1C
36
00
3E
63
7F
60
63
3E
00
00
00
00
ENDCHAR
STARTCHAR U+0089
ENCODING 137
SWIDTH 500 0
DWIDTH 8 0
BBX 8 16 0 -2
BITMAP
00
00
00
66
66
00
3E
63
7F
60
63
3E
00
00
00
00
ENDCHAR
STARTCHAR U+008A
ENCODING 138
SWIDTH 500 0
DWIDTH 8 0
BBX 8 16 0 -2
BITMAP
00
00
30
18
0C
00
3E
63
7F
60
63
3E
00
00
00
00
ENDCHAR
STARTCHAR U+008B
ENCODING 139
SWIDTH 500 0
DWIDTH 8 0
BBX 8 16 0 -2
BITMAP
00
00
00
66
66
00
38
18
18
18
18
3C
00
00
00
00
ENDCHAR
STARTCHAR U+008C
ENCODING 140
SWIDTH 500 0
DWIDTH 8 0
BBX 8 16 0 -2
BITMAP
00
00
18
3C
66
00
38
18
18
18
18
3C
00
00
00
00
ENDCHAR
STARTCHAR U+008D
ENCODING 141
SWIDTH 500 0
DWIDTH 8 0
BBX 8 16 0 -2
BITMAP
00
00
60
30
18
00
38
18
18
18
18
3C
00
00
00
00
ENDCHAR
STARTCHAR U+008E
ENCODING 142
SWIDTH 500 0
DWIDTH 8 0
BBX 8 16 0 -2
BITMAP
00
00
63
63
08
1C
36
63
63
7F
63
63
00
00
00
00
ENDCHAR
STARTCHAR U+008F
ENCODING 143
SWIDTH 500 0
DWIDTH 8 0
BBX 8 16 0 -2
BITMAP
00
1C
36
1C
00
1C
36
63
63
7F
63
63
00
00
00
00
ENDCHAR
STARTCHAR U+0090
ENCODING 144
SWIDTH 500 0
DWIDTH 8 0
BBX 8 16 0 -2
BITMAP
00
0C
18
30
00
7F
33
30
3E
30
33
7F
00
00
00
00
ENDCHAR
STARTCHAR U+0091
ENCODING 145
SWIDTH 500 0
DWIDTH 8 0
BBX 8 16 0 -2
BITMAP
00
00
00
00
00
6E
3B
1B
7E
D8
DC
77
00
00
00
00
ENDCHAR
STARTCHAR U+0092
ENCODING 146
SWIDTH 500 0
DWIDTH 8 0
BBX 8 16 0 -2
BITMAP
00
00
00
1F
36
66
66
7F
66
66
66
67
00
00
00
00
ENDCHAR
STARTCHAR U+0093
ENCODING 147
SWIDTH 500 0
DWIDTH 8 0
BBX 8 16 0 -2
BITMAP
00
00
08
1C
36
00
3E
63
63
63
63
3E
00
00
00
00
ENDCHAR
STARTCHAR U+0094
ENCODING 148
SWIDTH 500 0
DWIDTH 8 0
BBX 8 16 0 -2
BITMAP
00
00
00
63
63
00
3E
63
63
63
63
3E
00
00
00
00
ENDCHAR
STARTCHAR U+0095
ENCODING 149
SWIDTH 500 0
DWIDTH 8 0
BBX 8 16 0 -2
BITMAP
00
00
30
18
0C
00
3E
63
63
63
63
3E
00
00
00
00
ENDCHAR
STARTCHAR U+0096
ENCODING 150
SWIDTH 500 0
DWIDTH 8 0
BBX 8 16 0 -2
BITMAP
00
00
18
3C
66
00
66
66
66
66
66
3B
00
00
00
00
ENDCHAR
STARTCHAR U+0097
ENCODING 151
SWIDTH 500 0
DWIDTH 8 0
BBX 8 16 0 -2
BITMAP
00
00
30
18
0C
00
66
66
66
66
66
3B
00
00
00
00
ENDCHAR
STARTCHAR U+0098
ENCODING 152
SWIDTH 500 0
DWIDTH 8 0
BBX 8 16 0 -2
BITMAP
00
00
00
63
63
00
63
63
63
63
3F
03
06
3C
00
00
ENDCHAR
STARTCHAR U+0099
ENCODING 153
SWIDTH 500 0
DWIDTH 8 0
BBX 8 16 0 -2
BITMAP
00
00
63
63
1C
36
63
63
63
63
36
1C
00
00
00
00
ENDCHAR
STARTCHAR U+009A
ENCODING 154
SWIDTH 500 0
DWIDTH 8 0
BBX 8 16 0 -2
BITMAP
00
00
63
63
00
63
63
63
63
63
63
3E
00
00
00
00
ENDCHAR
STARTCHAR U+009B
ENCODING 155
SWIDTH 500 0
DWIDTH 8 0
BBX 8 16 0 -2
BITMAP
00
00
18
18
7E
C3
C0
C0
C3
7E
18
18
00
00
00
00
ENDCHAR
STARTCHAR U+009C
ENCODING 156
SWIDTH 500 0
DWIDTH 8 0
BBX 8 16 0 -2
BITMAP
00
00
1C
36
32
30
78
30
30
30
73
7E
00
00
00
00
ENDCHAR
STARTCHAR U+009D
ENCODING 157
SWIDTH 500 0
DWIDTH 8 0
BBX 8 16 0 -2
BITMAP
00
00
00
C3
66
3C
18
FF
18
FF
18
18
00
00
00
00
ENDCHAR
STARTCHAR U+009E
ENCODING 158
SWIDTH 500 0
DWIDTH 8 0
BBX 8 16 0 -2
BITMAP
00
00
FC
66
66
7C
62
66
6F
66
66
F3
00
00
00
00
ENDCHAR
STARTCHAR U+009F
ENCODING 159
SWIDTH 500 0
DWIDTH 8 0
BBX 8 16 0 -2
BITMAP
00
00
0E
1B
18
18
18
7E
18
18
18
18
D8
70
00
00
ENDCHAR
STARTCHAR U+00A0
ENCODING 160
SWIDTH 500 0
DWIDTH 8 0
BBX 8 16 0 -2
BITMAP
00
00
0C
18
30
00
3C
06
3E
66
66
3B
00
00
00
00
ENDCHAR
STARTCHAR U+00A1
ENCODING 161
SWIDTH 500 0
DWIDTH 8 0
BBX 8 16 0 -2
BITMAP
00
00
0C
18
30
00
38
18
18
18
18
3C
00
00
00
00
ENDCHAR
STARTCHAR U+00A2
ENCODING 162
SWIDTH 500 0
DWIDTH 8 0
BBX 8 16 0 -2
BITMAP
00
00
0C
18
30
00
3E
63
63
63
63
3E
00
00
00
00
ENDCHAR
STARTCHAR U+00A3
ENCODING 163
SWIDTH 500 0
DWIDTH 8 0
BBX 8 16 0 -2
BITMAP
00
00
0C
18
30
00
66
66
66
66
66
3B
00
00
00
00
ENDCHAR
STARTCHAR U+00A4
ENCODING 164
SWIDTH 500 0
DWIDTH 8 0
BBX 8 16 0 -2
BITMAP
00
00
00
3B
6E
00
6E
33
33
33
33
33
00
00
00
00
ENDCHAR
STARTCHAR U+00A5
ENCODING 165
SWIDTH 500 0
DWIDTH 8 0
BBX 8 16 0 -2
BITMAP
00
3B
6E
00
63
73
7B
7F
6F
67
63
63
00
00
00
00
ENDCHAR
STARTCHAR U+00A6
ENCODING 166
SWIDTH 500 0
DWIDTH 8 0
BBX 8 16 0 -2
BITMAP
00
00
3C
6C
6C
3E
00
7E
00
00
00
00
00
00
00
00
ENDCHAR
STARTCHAR U+00A7
ENCODING 167
SWIDTH 500 0
DWIDTH 8 0
BBX 8 16 0 -2
BITMAP
00
00
38
6C
6C
38
00
7C
00
00
00
00
00
00
00
00
ENDCHAR
STARTCHAR U+00A8
ENCODING 168
SWIDTH 500 0
DWIDTH 8 0
BBX 8 16 0 -2
BITMAP
00
00
00
18
18
00
18
18
30
63
63
3E
00
00
00
00
ENDCHAR
STARTCHAR U+00A9
ENCODING 169
SWIDTH 500 0
DWIDTH 8 0
BBX 8 16 0 -2
BITMAP
00
00
00
00
00
00
00
7F
60
60
60
00
00
00
00
00
ENDCHAR
STARTCHAR U+00AA
ENCODING 170
SWIDTH 500 0
DWIDTH 8 0
BBX 8 16 0 -2
BITMAP
00
00
00
00
00
00
00
7F
03
03
03
00
00
00
00
00
ENDCHAR
STARTCHAR U+00AB
ENCODING 171
SWIDTH 500 0
DWIDTH 8 0
BBX 8 16 0 -2
BITMAP
00
00
60
E0
63
66
6C
18
30
6E
C3
06
0C
1F
00
00
ENDCHAR
STARTCHAR U+00AC
ENCODING 172
SWIDTH 500 0
DWIDTH 8 0
BBX 8 16 0 -2
BITMAP
00
00
60
E0
63
66
6C
18
33
67
CF
1F
03
03
00
00
ENDCHAR
STARTCHAR U+00AD
ENCODING 173
SWIDTH 500 0
DWIDTH 8 0
BBX 8 16 0 -2
BITMAP
00
00
00
18
18
00
18
18
3C
3C
3C
18
00
00
00
00
ENDCHAR
STARTCHAR U+00AE
ENCODING 174
SWIDTH 500 0
DWIDTH 8 0
BBX 8 16 0 -2
BITMAP
00
00
00
00
00
1B
36
6C
36
1B
00
00
00
00
00
00
ENDCHAR
STARTCHAR U+00AF
ENCODING 175
SWIDTH 500 0
DWIDTH 8 0
BBX 8 16 0 -2
BITMAP
00
00
00
00
00
6C
36
1B
36
6C
00
00
00
00
00
00
ENDCHAR
STARTCHAR U+00B0
ENCODING 176
SWIDTH 500 0
DWIDTH 8 0
BBX 8 16 0 -2
BITMAP
44
11
44
11
44
11
44
11
44
11
44
11
44
11
44
00
ENDCHAR
STARTCHAR U+00B1
ENCODING 177
SWIDTH 500 0
DWIDTH 8 0
BBX 8 16 0 -2
BITMAP
AA
55
AA
55
AA
55
AA
55
AA
55
AA
55
AA
55
AA
00
ENDCHAR
STARTCHAR U+00B2
ENCODING 178
SWIDTH 500 0
DWIDTH 8 0
BBX 8 16 0 -2
BITMAP
77
DD
77
DD
77
DD
77
DD
77
DD
77
DD
77
DD
77
00
ENDCHAR
STARTCHAR U+00B3
ENCODING 179
SWIDTH 500 0
DWIDTH 8 0
BBX 8 16 0 -2
BITMAP
18
18
18
18
18
18
18
18
18
18
18
18
18
18
18
00
ENDCHAR
STARTCHAR U+00B4
ENCODING 180
SWIDTH 500 0
DWIDTH 8 0
BBX 8 16 0 -2
BITMAP
18
18
18
18
18
18
18
18
F8
18
18
18
18
18
18
00
ENDCHAR
STARTCHAR U+00B5
ENCODING 181
SWIDTH 500 0
DWIDTH 8 0
BBX 8 16 0 -2
BITMAP
18
18
18
18
18
18
F8
18
F8
18
18
18
18
18
18
00
ENDCHAR
STARTCHAR U+00B6
ENCODING 182
SWIDTH 500 0
DWIDTH 8 0
BBX 8 16 0 -2
BITMAP
36
36
36
36
36
36
36
36
F6
36
36
36
36
36
36
00
ENDCHAR
STARTCHAR U+00B7
ENCODING 183
SWIDTH 500 0
DWIDTH 8 0
BBX 8 16 0 -2
BITMAP
00
00
00
00
00
00
00
00
FE
36
36
36
36
36
36
00
ENDCHAR
STARTCHAR U+00B8
ENCODING 184
SWIDTH 500 0
DWIDTH 8 0
BBX 8 16 0 -2
BITMAP
00
00
00
00
00
00
F8
18
F8
18
18
18
18
18
18
00
ENDCHAR
STARTCHAR U+00B9
ENCODING 185
SWIDTH 500 0
DWIDTH 8 0
BBX 8 16 0 -2
BITMAP
36
36
36
36
36
36
F6
06
F6
36
36
36
36
36
36
00
ENDCHAR
STARTCHAR U+00BA
ENCODING 186
SWIDTH 500 0
DWIDTH 8 0
BBX 8 16 0 -2
BITMAP
36
36
36
36
36
36
36
36
36
36
36
36
36
36
36
00
ENDCHAR
STARTCHAR U+00BB
ENCODING 187
SWIDTH 500 0
DWIDTH 8 0
BBX 8 16 0 -2
BITMAP
00
00
00
00
00
00
FE
06
F6
36
36
36
36
36
36
00
ENDCHAR
STARTCHAR U+00BC
ENCODING 188
SWIDTH 500 0
DWIDTH 8 0
BBX 8 16 0 -2
BITMAP
36
36
36
36
36
36
F6
06
FE
00
00
00
00
00
00
00
ENDCHAR
STARTCHAR U+00BD
ENCODING 189
SWIDTH 500 0
DWIDTH 8 0
BBX 8 16 0 -2
BITMAP
36
36
36
36
36
36
36
36
FE
00
00
00
00
00
00
00
ENDCHAR
STARTCHAR U+00BE
ENCODING 190
SWIDTH 500 0
DWIDTH 8 0
BBX 8 16 0 -2
BITMAP
18
18
18
18
18
18
F8
18
F8
00
00
00
00
00
00
00
ENDCHAR
STARTCHAR U+00BF
ENCODING 191
SWIDTH 500 0
DWIDTH 8 0
BBX 8 16 0 -2
BITMAP
00
00
00
00
00
00
00
00
F8
18
18
18
18
18
18
00
ENDCHAR
STARTCHAR U+00C0
ENCODING 192
SWIDTH 500 0
DWIDTH 8 0
BBX 8 16 0 -2
BITMAP
18
18
18
18
18
18
18
18
1F
00
00
00
00
00
00
00
ENDCHAR
STARTCHAR U+00C1
ENCODING 193
SWIDTH 500 0
DWIDTH 8 0
BBX 8 16 0 -2
BITMAP
18
18
18
18
18
18
18
18
FF
00
00
00
00
00
00
00
ENDCHAR
STARTCHAR U+00C2
ENCODING 194
SWIDTH 500 0
DWIDTH 8 0
BBX 8 16 0 -2
BITMAP
00
00
00
00
00
00
00
00
FF
18
18
18
18
18
18
00
ENDCHAR
STARTCHAR U+00C3
ENCODING 195
SWIDTH 500 0
DWIDTH 8 0
BBX 8 16 0 -2
BITMAP
18
18
18
18
18
18
18
18
1F
18
18
18
18
18
18
00
ENDCHAR
STARTCHAR U+00C4
ENCODING 196
SWIDTH 500 0
DWIDTH 8 0
BBX 8 16 0 -2
BITMAP
00
00
00
00
00
00
00
00
FF
00
00
00
00
00
00
00
ENDCHAR
STARTCHAR U+00C5
ENCODING 197
SWIDTH 500 0
DWIDTH 8 0
BBX 8 16 0 -2
BITMAP
18
18
18
18
18
18
18
18
FF
18
18
18
18
18
18
00
ENDCHAR
STARTCHAR U+00C6
ENCODING 198
SWIDTH 500 0
DWIDTH 8 0
BBX 8 16 0 -2
BITMAP
18
18
18
18
18
18
1F
18
1F
18
18
18
18
18
18
00
ENDCHAR
STARTCHAR U+00C7
ENCODING 199
SWIDTH 500 0
DWIDTH 8 0
BBX 8 16 0 -2
BITMAP
36
36
36
36
36
36
36
36
37
36
36
36
36
36
36
00
ENDCHAR
STARTCHAR U+00C8
ENCODING 200
SWIDTH 500 0
DWIDTH 8 0
BBX 8 16 0 -2
BITMAP
36
36
36
36
36
36
37
30
3F
00
00
00
00
00
00
00
ENDCHAR
STARTCHAR U+00C9
ENCODING 201
SWIDTH 500 0
DWIDTH 8 0
BBX 8 16 0 -2
BITMAP
00
00
00
00
00
00
3F
30
37
36
36
36
36
36
36
00
ENDCHAR
STARTCHAR U+00CA
ENCODING 202
SWIDTH 500 0
DWIDTH 8 0
BBX 8 16 0 -2
BITMAP
36
36
36
36
36
36
F7
00
FF
00
00
00
00
00
00
00
ENDCHAR
STARTCHAR U+00CB
ENCODING 203
SWIDTH 500 0
DWIDTH 8 0
BBX 8 16 0 -2
BITMAP
00
00
00
00
00
00
FF
00
F7
36
36
36
36
36
36
00
ENDCHAR
STARTCHAR U+00CC
ENCODING 204
SWIDTH 500 0
DWIDTH 8 0
BBX 8 16 0 -2
BITMAP
36
36
36
36
36
36
37
30
37
36
36
36
36
36
36
00
ENDCHAR
STARTCHAR U+00CD
ENCODING 205
SWIDTH 500 0
DWIDTH 8 0
BBX 8 16 0 -2
BITMAP
00
00
00
00
00
00
FF
00
FF
00
00
00
00
00
00
00
ENDCHAR
STARTCHAR U+00CE
ENCODING 206
SWIDTH 500 0
DWIDTH 8 0
BBX 8 16 0 -2
BITMAP
36
36
36
36
36
36
F7
00
F7
36
36
36
36
36
36
00
ENDCHAR
STARTCHAR U+00CF
ENCODING 207
SWIDTH 500 0
DWIDTH 8 0
BBX 8 16 0 -2
BITMAP
18
18
18
18
18
18
FF
00
FF
00
00
00
00
00
00
00
ENDCHAR
STARTCHAR U+00D0
ENCODING 208
SWIDTH 500 0
DWIDTH 8 0
BBX 8 16 0 -2
BITMAP
36
36
36
36
36
36
36
36
FF
00
00
00
00
00
00
00
ENDCHAR
STARTCHAR U+00D1
ENCODING 209
SWIDTH 500 0
DWIDTH 8 0
BBX 8 16 0 -2
BITMAP
00
00
00
00
00
00
FF
00
FF
18
18
18
18
18
18
00
ENDCHAR
STARTCHAR U+00D2
ENCODING 210
SWIDTH 500 0
DWIDTH 8 0
BBX 8 16 0 -2
BITMAP
00
00
00
00
00
00
00
00
FF
36
36
36
36
36
36
00
ENDCHAR
STARTCHAR U+00D3
ENCODING 211
SWIDTH 500 0
DWIDTH 8 0
BBX 8 16 0 -2
BITMAP
36
36
36
36
36
36
36
36
3F
00
00
00
00
00
00
00
ENDCHAR
STARTCHAR U+00D4
ENCODING 212
SWIDTH 500 0
DWIDTH 8 0
BBX 8 16 0 -2
BITMAP
18
18
18
18
18
18
1F
18
1F
00
00
00
00
00
00
00
ENDCHAR
STARTCHAR U+00D5
ENCODING 213
SWIDTH 500 0
DWIDTH 8 0
BBX 8 16 0 -2
BITMAP
00
00
00
00
00
00
1F
18
1F
18
18
18
18
18
18
00
ENDCHAR
STARTCHAR U+00D6
ENCODING 214
SWIDTH 500 0
DWIDTH 8 0
BBX 8 16 0 -2
BITMAP
00
00
00
00
00
00
00
00
3F
36
36
36
36
36
36
00
ENDCHAR
STARTCHAR U+00D7
ENCODING 215
SWIDTH 500 0
DWIDTH 8 0
BBX 8 16 0 -2
BITMAP
36
36
36
36
36
36
36
36
FF
36
36
36
36
36
36
00
ENDCHAR
STARTCHAR U+00D8
ENCODING 216
SWIDTH 500 0
DWIDTH 8 0
BBX 8 16 0 -2
BITMAP
18
18
18
18
18
18
FF
18
FF
18
18
18
18
18
18
00
ENDCHAR
STARTCHAR U+00D9
ENCODING 217
SWIDTH 500 0
DWIDTH 8 0
BBX 8 16 0 -2
BITMAP
18
18
18
18
18
18
18
18
F8
00
00
00
00
00
00
00
ENDCHAR
STARTCHAR U+00DA
ENCODING 218
SWIDTH 500 0
DWIDTH 8 0
BBX 8 16 0 -2
BITMAP
00
00
00
00
00
00
00
00
1F
18
18
18
18
18
18
00
ENDCHAR
STARTCHAR U+00DB
ENCODING 219
SWIDTH 500 0
DWIDTH 8 0
BBX 8 16 0 -2
BITMAP
FF
FF
FF
FF
FF
FF
FF
FF
FF
FF
FF
FF
FF
FF
FF
00
ENDCHAR
STARTCHAR U+00DC
ENCODING 220
SWIDTH 500 0
DWIDTH 8 0
BBX 8 16 0 -2
BITMAP
00
00
00
00
00
00
00
00
FF
FF
FF
FF
FF
FF
FF
00
ENDCHAR
STARTCHAR U+00DD
ENCODING 221
SWIDTH 500 0
DWIDTH 8 0
BBX 8 16 0 -2
BITMAP
F0
F0
F0
F0
F0
F0
F0
F0
F0
F0
F0
F0
F0
F0
F0
00
ENDCHAR
STARTCHAR U+00DE
ENCODING 222
SWIDTH 500 0
DWIDTH 8 0
BBX 8 16 0 -2
BITMAP
0F
0F
0F
0F
0F
0F
0F
0F
0F
0F
0F
0F
0F
0F
0F
00
ENDCHAR
STARTCHAR U+00DF
ENCODING 223
SWIDTH 500 0
DWIDTH 8 0
BBX 8 16 0 -2
BITMAP
FF
FF
FF
FF
FF
FF
FF
FF
00
00
00
00
00
00
00
00
ENDCHAR
STARTCHAR U+00E0
ENCODING 224
SWIDTH 500 0
DWIDTH 8 0
BBX 8 16 0 -2
BITMAP
00
00
00
00
00
00
3B
6E
6C
6C
6E
3B
00
00
00
00
ENDCHAR
STARTCHAR U+00E1
ENCODING 225
SWIDTH 500 0
DWIDTH 8 0
BBX 8 16 0 -2
BITMAP
00
00
00
00
00
3E
63
7E
63
63
7E
60
60
20
00
00
ENDCHAR
STARTCHAR U+00E2
ENCODING 226
SWIDTH 500 0
DWIDTH 8 0
BBX 8 16 0 -2
BITMAP
00
00
00
7F
63
63
60
60
60
60
60
60
00
00
00
00
ENDCHAR
STARTCHAR U+00E3
ENCODING 227
SWIDTH 500 0
DWIDTH 8 0
BBX 8 16 0 -2
BITMAP
00
00
00
00
00
7F
36
36
36
36
36
36
00
00
00
00
ENDCHAR
STARTCHAR U+00E4
ENCODING 228
SWIDTH 500 0
DWIDTH 8 0
BBX 8 16 0 -2
BITMAP
00
00
00
7F
63
30
18
0C
18
30
63
7F
00
00
00
00
ENDCHAR
STARTCHAR U+00E5
ENCODING 229
SWIDTH 500 0
DWIDTH 8 0
BBX 8 16 0 -2
BITMAP
00
00
00
00
00
00
3F
6C
6C
6C
6C
38
00
00
00
00
ENDCHAR
STARTCHAR U+00E6
ENCODING 230
SWIDTH 500 0
DWIDTH 8 0
BBX 8 16 0 -2
BITMAP
00
00
00
00
00
33
33
33
33
3E
30
30
60
00
00
00
ENDCHAR
STARTCHAR U+00E7
ENCODING 231
SWIDTH 500 0
DWIDTH 8 0
BBX 8 16 0 -2
BITMAP
00
00
00
00
00
3B
6E
0C
0C
0C
0C
0C
00
00
00
00
ENDCHAR
STARTCHAR U+00E8
ENCODING 232
SWIDTH 500 0
DWIDTH 8 0
BBX 8 16 0 -2
BITMAP
00
00
00
7E
18
3C
66
66
66
3C
18
7E
00
00
00
00
ENDCHAR
STARTCHAR U+00E9
ENCODING 233
SWIDTH 500 0
DWIDTH 8 0
BBX 8 16 0 -2
BITMAP
00
00
00
1C
36
63
63
7F
63
63
36
1C
00
00
00
00
ENDCHAR
STARTCHAR U+00EA
ENCODING 234
SWIDTH 500 0
DWIDTH 8 0
BBX 8 16 0 -2
BITMAP
00
00
00
1C
36
63
63
63
36
36
36
77
00
00
00
00
ENDCHAR
STARTCHAR U+00EB
ENCODING 235
SWIDTH 500 0
DWIDTH 8 0
BBX 8 16 0 -2
BITMAP
00
00
00
1E
30
18
0C
3E
66
66
66
3C
00
00
00
00
ENDCHAR
STARTCHAR U+00EC
ENCODING 236
SWIDTH 500 0
DWIDTH 8 0
BBX 8 16 0 -2
BITMAP
00
00
00
00
00
00
7E
DB
DB
7E
00
00
00
00
00
00
ENDCHAR
STARTCHAR U+00ED
ENCODING 237
SWIDTH 500 0
DWIDTH 8 0
BBX 8 16 0 -2
BITMAP
00
00
00
03
06
7E
DB
DB
F3
7E
60
C0
00
00
00
00
ENDCHAR
STARTCHAR U+00EE
ENCODING 238
SWIDTH 500 0
DWIDTH 8 0
BBX 8 16 0 -2
BITMAP
00
00
00
1C
30
60
60
7C
60
60
30
1C
00
00
00
00
ENDCHAR
STARTCHAR U+00EF
ENCODING 239
SWIDTH 500 0
DWIDTH 8 0
BBX 8 16 0 -2
BITMAP
00
00
00
00
3E
63
63
63
63
63
63
63
00
00
00
00
ENDCHAR
STARTCHAR U+00F0
ENCODING 240
SWIDTH 500 0
DWIDTH 8 0
BBX 8 16 0 -2
BITMAP
00
00
00
00
7F
00
00
7F
00
00
7F
00
00
00
00
00
ENDCHAR
STARTCHAR U+00F1
ENCODING 241
SWIDTH 500 0
DWIDTH 8 0
BBX 8 16 0 -2
BITMAP
00
00
00
18
18
18
FF
18
18
18
00
FF
00
00
00
00
ENDCHAR
STARTCHAR U+00F2
ENCODING 242
SWIDTH 500 0
DWIDTH 8 0
BBX 8 16 0 -2
BITMAP
00
00
00
30
18
0C
06
0C
18
30
00
7E
00
00
00
00
ENDCHAR
STARTCHAR U+00F3
ENCODING 243
SWIDTH 500 0
DWIDTH 8 0
BBX 8 16 0 -2
BITMAP
00
00
00
0C
18
30
60
30
18
0C
00
7E
00
00
00
00
ENDCHAR
STARTCHAR U+00F4
ENCODING 244
SWIDTH 500 0
DWIDTH 8 0
BBX 8 16 0 -2
BITMAP
00
00
00
0E
1B
1B
18
18
18
18
18
18
18
18
18
00
ENDCHAR
STARTCHAR U+00F5
ENCODING 245
SWIDTH 500 0
DWIDTH 8 0
BBX 8 16 0 -2
BITMAP
18
18
18
18
18
18
18
18
18
D8
D8
70
00
00
00
00
ENDCHAR
STARTCHAR U+00F6
ENCODING 246
SWIDTH 500 0
DWIDTH 8 0
BBX 8 16 0 -2
BITMAP
00
00
00
18
18
00
00
FF
00
00
18
18
00
00
00
00
ENDCHAR
STARTCHAR U+00F7
ENCODING 247
SWIDTH 500 0
DWIDTH 8 0
BBX 8 16 0 -2
BITMAP
00
00
00
00
00
3B
6E
00
3B
6E
00
00
00
00
00
00
ENDCHAR
STARTCHAR U+00F8
ENCODING 248
SWIDTH 500 0
DWIDTH 8 0
BBX 8 16 0 -2
BITMAP
00
00
38
6C
6C
38
00
00
00
00
00
00
00
00
00
00
ENDCHAR
STARTCHAR U+00F9
ENCODING 249
SWIDTH 500 0
DWIDTH 8 0
BBX 8 16 0 -2
BITMAP
00
00
00
00
00
00
00
18
18
00
00
00
00
00
00
00
ENDCHAR
STARTCHAR U+00FA
ENCODING 250
SWIDTH 500 0
DWIDTH 8 0
BBX 8 16 0 -2
BITMAP
00
00
00
00
00
00
00
00
18
00
00
00
00
00
00
00
ENDCHAR
STARTCHAR U+00FB
ENCODING 251
SWIDTH 500 0
DWIDTH 8 0
BBX 8 16 0 -2
BITMAP
00
00
0F
0C
0C
0C
0C
0C
EC
6C
3C
1C
00
00
00
00
ENDCHAR
STARTCHAR U+00FC
ENCODING 252
SWIDTH 500 0
DWIDTH 8 0
BBX 8 16 0 -2
BITMAP
00
00
D8
6C
6C
6C
6C
6C
00
00
00
00
00
00
00
00
ENDCHAR
STARTCHAR U+00FD
ENCODING 253
SWIDTH 500 0
DWIDTH 8 0
BBX 8 16 0 -2
BITMAP
00
00
70
D8
30
60
C8
F8
00
00
00
00
00
00
00
00
ENDCHAR
STARTCHAR U+00FE
ENCODING 254
SWIDTH 500 0
DWIDTH 8 0
BBX 8 16 0 -2
BITMAP
00
00
00
00
00
3E
3E
3E
3E
3E
3E
00
00
00
00
00
ENDCHAR
STARTCHAR U+00FF
ENCODING 255
SWIDTH 500 0
DWIDTH 8 0
BBX 8 16 0 -2
BITMAP
00
00
00
00
00
00
00
00
00
00
00
00
00
00
00
00
ENDCHAR
STARTCHAR U+02C7
ENCODING 711
SWIDTH 1000 0
DWIDTH 16 0
BBX 16 16 0 -2
BITMAP
0000
0000
0000
000C
0018
0630
0660
06C0
0780
0700
0600
0000
0000
0000
0000
0000
ENDCHAR
STARTCHAR U+02C9
ENCODING 713
SWIDTH 1000 0
DWIDTH 16 0
BBX 16 16 0 -2
BITMAP
0000
0000
0000
0000
0000
0000
0000
0000
0000
0000
0000
0000
0000
0000
0000
0000
ENDCHAR
STARTCHAR U+02CA
ENCODING 714
SWIDTH 1000 0
DWIDTH 16 0
BBX 16 16 0 -2
BITMAP
0000
0000
0000
0000
0010
0060
01C0
0380
0700
0600
0400
0000
0000
0000
0000
0000
ENDCHAR
STARTCHAR U+02CB
ENCODING 715
SWIDTH 1000 0
DWIDTH 16 0
BBX 16 16 0 -2
BITMAP
0000
0000
0000
0000
0700
0780
03C0
00C0
0060
0020
0010
0000
0000
0000
0000
0000
ENDCHAR
STARTCHAR U+02CD
ENCODING 717
SWIDTH 1000 0
DWIDTH 16 0
BBX 16 16 0 -2
BITMAP
0000
0000
0000
0000
0000
0000
0000
0000
0000
0000
0000
0000
0000
0000
FFFF
0000
ENDCHAR
STARTCHAR U+02D9
ENCODING 729
SWIDTH 1000 0
DWIDTH 16 0
BBX 16 16 0 -2
BITMAP
0000
0000
0000
0000
0000
0180
01C0
0180
0000
0000
0000
0000
0000
0000
0000
0000
ENDCHAR
STARTCHAR U+0391
ENCODING 913
SWIDTH 1000 0
DWIDTH 16 0
BBX 16 16 0 -2
BITMAP
0080
01C0
01C0
0360
0360
0360
0630
0630
07F0
0C18
0C18
180C
180C
3C1E
0000
0000
ENDCHAR
STARTCHAR U+0392
ENCODING 914
SWIDTH 1000 0
DWIDTH 16 0
BBX 16 16 0 -2
BITMAP
1FE0
0C70
0C18
0C18
0C18
0C30
0FE0
0C30
0C18
0C0C
0C0C
0C0C
0C18
1FF0
0000
0000
ENDCHAR
STARTCHAR U+0393
ENCODING 915
SWIDTH 1000 0
DWIDTH 16 0
BBX 16 16 0 -2
BITMAP
1FFC
0C1C
0C0C
0C04
0C00
0C00
0C00
0C00
0C00
0C00
0C00
0C00
0C00
1E00
0000
0000
ENDCHAR
STARTCHAR U+0394
ENCODING 916
SWIDTH 1000 0
DWIDTH 16 0
BBX 16 16 0 -2
BITMAP
0180
0180
03C0
0240
0660
0420
0C30
0810
1818
1008
300C
2004
6006
7FFE
0000
0000
ENDCHAR
STARTCHAR U+0395
ENCODING 917
SWIDTH 1000 0
DWIDTH 16 0
BBX 16 16 0 -2
BITMAP
1FF8
0C18
0C08
0C00
0C40
0C40
0FC0
0C40
0C40
0C00
0C00
0C08
0C18
1FF8
0000
0000
ENDCHAR
STARTCHAR U+0396
ENCODING 918
SWIDTH 1000 0
DWIDTH 16 0
BBX 16 16 0 -2
BITMAP
1FFE
180E
100C
0018
0030
0060
00C0
0180
0300
0600
0C00
1804
300C
3FFC
0000
0000
ENDCHAR
STARTCHAR U+0397
ENCODING 919
SWIDTH 1000 0
DWIDTH 16 0
BBX 16 16 0 -2
BITMAP
3C3C
1818
1818
1818
1818
1818
1FF8
1818
1818
1818
1818
1818
1818
3C3C
0000
0000
ENDCHAR
STARTCHAR U+0398
ENCODING 920
SWIDTH 1000 0
DWIDTH 16 0
BBX 16 16 0 -2
BITMAP
0000
07C0
1C70
3018
3018
3458
37D8
37D8
3458
3018
3018
1C70
07C0
0000
0000
0000
ENDCHAR
STARTCHAR U+0399
ENCODING 921
SWIDTH 1000 0
DWIDTH 16 0
BBX 16 16 0 -2
BITMAP
07E0
0180
0180
0180
0180
0180
0180
0180
0180
0180
0180
0180
0180
07E0
0000
0000
ENDCHAR
STARTCHAR U+039A
ENCODING 922
SWIDTH 1000 0
DWIDTH 16 0
BBX 16 16 0 -2
BITMAP
3C3C
1818
1830
1860
18C0
1980
1B00
1F80
1CC0
1860
1830
1818
180C
3C1E
0000
0000
ENDCHAR
STARTCHAR U+039B
ENCODING 923
SWIDTH 1000 0
DWIDTH 16 0
BBX 16 16 0 -2
BITMAP
0180
0180
03C0
0660
0660
0660
0C30
0C30
1818
1818
300C
300C
6006
700E
0000
0000
ENDCHAR
STARTCHAR U+039C
ENCODING 924
SWIDTH 1000 0
DWIDTH 16 0
BBX 16 16 0 -2
BITMAP
700E
381C
381C
3C3C
342C
342C
366C
366C
324C
324C
33CC
318C
318C
781E
0000
0000
ENDCHAR
STARTCHAR U+039D
ENCODING 925
SWIDTH 1000 0
DWIDTH 16 0
BBX 16 16 0 -2
BITMAP
3C1E
1C0C
1E0C
1F0C
1B0C
198C
19CC
18CC
186C
187C
183C
181C
181C
3C0C
0000
0000
ENDCHAR
STARTCHAR U+039E
ENCODING 926
SWIDTH 1000 0
DWIDTH 16 0
BBX 16 16 0 -2
BITMAP
0FFC
1FF8
1008
0000
0000
0408
0FF0
1020
0000
0000
0000
1004
1FFC
3FF8
0000
0000
ENDCHAR
STARTCHAR U+039F
ENCODING 927
SWIDTH 1000 0
DWIDTH 16 0
BBX 16 16 0 -2
BITMAP
0000
07E0
1C38
300C
300C
300C
300C
300C
300C
300C
300C
300C
1C38
07E0
0000
0000
ENDCHAR
STARTCHAR U+03A0
ENCODING 928
SWIDTH 1000 0
DWIDTH 16 0
BBX 16 16 0 -2
BITMAP
3FFC
1818
1818
1818
1818
1818
1818
1818
1818
1818
1818
1818
1818
3C3C
0000
0000
ENDCHAR
STARTCHAR U+03A1
ENCODING 929
SWIDTH 1000 0
DWIDTH 16 0
BBX 16 16 0 -2
BITMAP
1FE0
0C38
0C1C
0C0C
0C0C
0C1C
0C38
0FE0
0C00
0C00
0C00
0C00
0C00
1E00
0000
0000
ENDCHAR
STARTCHAR U+03A3
ENCODING 931
SWIDTH 1000 0
DWIDTH 16 0
BBX 16 16 0 -2
BITMAP
1FFC
1FFC
0C0C
0604
0300
0180
00C0
00C0
0180
0300
0604
0C0C
1FFC
1FFC
0000
0000
ENDCHAR
STARTCHAR U+03A4
ENCODING 932
SWIDTH 1000 0
DWIDTH 16 0
BBX 16 16 0 -2
BITMAP
3FFC
399C
318C
2184
0180
0180
0180
0180
0180
0180
0180
0180
0180
03C0
0000
0000
ENDCHAR
STARTCHAR U+03A5
ENCODING 933
SWIDTH 1000 0
DWIDTH 16 0
BBX 16 16 0 -2
BITMAP
0E70
1FF8
31CC
318C
318C
0180
0180
0180
0180
0180
0180
0180
0180
03C0
0000
0000
ENDCHAR
STARTCHAR U+03A6
ENCODING 934
SWIDTH 1000 0
DWIDTH 16 0
BBX 16 16 0 -2
BITMAP
03C0
0180
07E0
1DB8
318C
6186
6186
6186
6186
318C
1DB8
07E0
0180
03C0
0000
0000
ENDCHAR
STARTCHAR U+03A7
ENCODING 935
SWIDTH 1000 0
DWIDTH 16 0
BBX 16 16 0 -2
BITMAP
7C1E
300C
1818
0C30
0660
03C0
0180
0180
03C0
0660
0C30
1818
300C
7C3E
0000
0000
ENDCHAR
STARTCHAR U+03A8
ENCODING 936
SWIDTH 1000 0
DWIDTH 16 0
BBX 16 16 0 -2
BITMAP
63C6
F18F
9999
1998
1998
1998
1998
1998
0DB0
0DB0
07E0
0180
0180
03C0
0000
0000
ENDCHAR
STARTCHAR U+03A9
ENCODING 937
SWIDTH 1000 0
DWIDTH 16 0
BBX 16 16 0 -2
BITMAP
03C0
0660
0C30
1818
1818
1818
1818
1818
0C30
0660
0660
3666
3E7E
0000
0000
0000
ENDCHAR
STARTCHAR U+03B1
ENCODING 945
SWIDTH 1000 0
DWIDTH 16 0
BBX 16 16 0 -2
BITMAP
0000
0000
0000
0000
0000
03CE
0778
0C30
1830
1830
1830
1870
0CD8
078E
0000
0000
ENDCHAR
STARTCHAR U+03B2
ENCODING 946
SWIDTH 1000 0
DWIDTH 16 0
BBX 16 16 0 -2
BITMAP
00F0
0198
030C
070C
0618
0C30
0DE0
0C60
1C30
1818
1818
3C30
33E0
3000
3000
0000
ENDCHAR
STARTCHAR U+03B3
ENCODING 947
SWIDTH 1000 0
DWIDTH 16 0
BBX 16 16 0 -2
BITMAP
0000
0000
0000
0000
0000
0630
0F70
19E0
10C0
00C0
01C0
0180
0380
0700
0000
0000
ENDCHAR
STARTCHAR U+03B4
ENCODING 948
SWIDTH 1000 0
DWIDTH 16 0
BBX 16 16 0 -2
BITMAP
01E0
0330
0318
0188
00F0
01E0
0730
0630
0C30
0C30
0C30
0C70
0EE0
07C0
0000
0000
ENDCHAR
STARTCHAR U+03B5
ENCODING 949
SWIDTH 1000 0
DWIDTH 16 0
BBX 16 16 0 -2
BITMAP
0000
0000
0000
0000
0000
03E0
0630
0400
0780
0780
0C00
0C10
07F0
01C0
0000
0000
ENDCHAR
STARTCHAR U+03B6
ENCODING 950
SWIDTH 1000 0
DWIDTH 16 0
BBX 16 16 0 -2
BITMAP
0300
0620
0C60
07C0
0180
0300
0600
0C00
0C00
0C00
0F00
07C0
00E0
0CE0
07C0
0000
ENDCHAR
STARTCHAR U+03B7
ENCODING 951
SWIDTH 1000 0
DWIDTH 16 0
BBX 16 16 0 -2
BITMAP
0000
0000
0000
0000
0000
1DE0
3770
0630
0630
0C30
0C30
0C30
0C30
0C60
0060
0000
ENDCHAR
STARTCHAR U+03B8
ENCODING 952
SWIDTH 1000 0
DWIDTH 16 0
BBX 16 16 0 -2
BITMAP
01E0
0330
0630
0C18
0C18
1C18
1FF8
1818
1838
1830
1870
1C60
0CC0
0780
0000
0000
ENDCHAR
STARTCHAR U+03B9
ENCODING 953
SWIDTH 1000 0
DWIDTH 16 0
BBX 16 16 0 -2
BITMAP
0000
0000
0000
0000
0000
0180
0180
0300
0700
0600
0E20
0C60
0FC0
0700
0000
0000
ENDCHAR
STARTCHAR U+03BA
ENCODING 954
SWIDTH 1000 0
DWIDTH 16 0
BBX 16 16 0 -2
BITMAP
0000
0000
0000
0000
0C00
1E30
3670
26C0
0D80
0F80
0EC0
0CC8
1CF8
3870
0000
0000
ENDCHAR
STARTCHAR U+03BB
ENCODING 955
SWIDTH 1000 0
DWIDTH 16 0
BBX 16 16 0 -2
BITMAP
0000
0F00
0180
00C0
00C0
00C0
01C0
03C0
03C0
06C0
0660
0C30
0C3C
0C1C
0000
0000
ENDCHAR
STARTCHAR U+03BC
ENCODING 956
SWIDTH 1000 0
DWIDTH 16 0
BBX 16 16 0 -2
BITMAP
0000
0000
0000
0000
0000
0630
0630
0630
0630
0C30
0C60
0C64
0EFC
1BB8
0000
0000
ENDCHAR
STARTCHAR U+03BD
ENCODING 957
SWIDTH 1000 0
DWIDTH 16 0
BBX 16 16 0 -2
BITMAP
0000
0000
0000
0000
0000
0C18
0618
0718
0318
0330
0660
0660
07C0
0700
0000
0000
ENDCHAR
STARTCHAR U+03BE
ENCODING 958
SWIDTH 1000 0
DWIDTH 16 0
BBX 16 16 0 -2
BITMAP
01C0
0300
07F0
0600
0600
0300
03F0
0600
0C00
0C00
0700
03C0
00E0
0630
03E0
0000
ENDCHAR
STARTCHAR U+03BF
ENCODING 959
SWIDTH 1000 0
DWIDTH 16 0
BBX 16 16 0 -2
BITMAP
0000
0000
0000
0000
0000
03E0
0630
0C18
1818
1818
1818
1830
0C60
07C0
0000
0000
ENDCHAR
STARTCHAR U+03C0
ENCODING 960
SWIDTH 1000 0
DWIDTH 16 0
BBX 16 16 0 -2
BITMAP
0000
0000
0000
0000
0018
0FF8
1FF0
0660
0660
0660
0660
0E68
1C78
1870
0000
0000
ENDCHAR
STARTCHAR U+03C1
ENCODING 961
SWIDTH 1000 0
DWIDTH 16 0
BBX 16 16 0 -2
BITMAP
0000
0000
0000
0000
0000
01E0
0730
0618
0C18
0C18
1C18
1C30
1FE0
1800
1800
0000
ENDCHAR
STARTCHAR U+03C3
ENCODING 963
SWIDTH 1000 0
DWIDTH 16 0
BBX 16 16 0 -2
BITMAP
0000
0000
0000
0000
0004
03CC
0678
0C30
1830
1830
1830
1860
0CC0
0780
0000
0000
ENDCHAR
STARTCHAR U+03C4
ENCODING 964
SWIDTH 1000 0
DWIDTH 16 0
BBX 16 16 0 -2
BITMAP
0000
0000
0000
0000
0030
07E0
1FC0
0300
0300
0600
0600
0E40
0FC0
0700
0000
0000
ENDCHAR
STARTCHAR U+03C5
ENCODING 965
SWIDTH 1000 0
DWIDTH 16 0
BBX 16 16 0 -2
BITMAP
0000
0000
0000
0000
0000
0C70
0630
0630
0630
0630
0630
0630
0660
03C0
0000
0000
ENDCHAR
STARTCHAR U+03C6
ENCODING 966
SWIDTH 1000 0
DWIDTH 16 0
BBX 16 16 0 -2
BITMAP
0060
0060
0060
03E0
07F0
0CD8
18D8
19D8
1998
0DB0
0FE0
03C0
0300
0600
3C00
0000
ENDCHAR
STARTCHAR U+03C7
ENCODING 967
SWIDTH 1000 0
DWIDTH 16 0
BBX 16 16 0 -2
BITMAP
0000
0000
0000
0C18
1E38
1360
01C0
0180
0380
06C0
0CC4
38EC
3078
0000
0000
0000
ENDCHAR
STARTCHAR U+03C8
ENCODING 968
SWIDTH 1000 0
DWIDTH 16 0
BBX 16 16 0 -2
BITMAP
0060
0060
0060
0060
00E0
06C8
0CD8
1CD8
1998
1998
1DB8
0DB0
07E0
0300
0700
0000
ENDCHAR
STARTCHAR U+03C9
ENCODING 969
SWIDTH 1000 0
DWIDTH 16 0
BBX 16 16 0 -2
BITMAP
0000
0000
0000
0000
0000
0718
0C0C
180C
18CC
18CC
198C
198C
1DD8
0770
0000
0000
ENDCHAR
STARTCHAR U+2013
ENCODING 8211
SWIDTH 1000 0
DWIDTH 16 0
BBX 16 16 0 -2
BITMAP
0000
0000
0000
0000
0000
0000
1FFC
1FFC
0000
0000
0000
0000
0000
0000
0000
0000
ENDCHAR
STARTCHAR U+2014
ENCODING 8212
SWIDTH 1000 0
DWIDTH 16 0
BBX 16 16 0 -2
BITMAP
0000
0000
0000
0000
0000
0000
0000
1FFC
0000
0000
0000
0000
0000
0000
0000
0000
ENDCHAR
STARTCHAR U+2018
ENCODING 8216
SWIDTH 1000 0
DWIDTH 16 0
BBX 16 16 0 -2
BITMAP
0008
0010
0038
003C
0018
0000
0000
0000
0000
0000
0000
0000
0000
0000
0000
0000
ENDCHAR
STARTCHAR U+2019
ENCODING 8217
SWIDTH 1000 0
DWIDTH 16 0
BBX 16 16 0 -2
BITMAP
1800
3C00
1C00
0800
3000
0000
0000
0000
0000
0000
0000
0000
0000
0000
0000
0000
ENDCHAR
STARTCHAR U+201C
ENCODING 8220
SWIDTH 1000 0
DWIDTH 16 0
BBX 16 16 0 -2
BITMAP
0044
0088
0198
01DC
0198
0000
0000
0000
0000
0000
0000
0000
0000
0000
0000
0000
ENDCHAR
STARTCHAR U+201D
ENCODING 8221
SWIDTH 1000 0
DWIDTH 16 0
BBX 16 16 0 -2
BITMAP
7700
3300
2200
4400
0000
0000
0000
0000
0000
0000
0000
0000
0000
0000
0000
0000
ENDCHAR
STARTCHAR U+2025
ENCODING 8229
SWIDTH 1000 0
DWIDTH 16 0
BBX 16 16 0 -2
BITMAP
0000
0000
0000
0000
0000
0C30
1E78
0C30
0000
0000
0000
0000
0000
0000
0000
0000
ENDCHAR
STARTCHAR U+2026
ENCODING 8230
SWIDTH 1000 0
DWIDTH 16 0
BBX 16 16 0 -2
BITMAP
0000
0000
0000
0000
0000
6318
F7BC
6318
0000
0000
0000
0000
0000
0000
0000
0000
ENDCHAR
STARTCHAR U+2027
ENCODING 8231
SWIDTH 1000 0
DWIDTH 16 0
BBX 16 16 0 -2
BITMAP
0000
0000
0000
0000
0000
0180
03C0
03C0
0180
0000
0000
0000
0000
0000
0000
0000
ENDCHAR
STARTCHAR U+2032
ENCODING 8242
SWIDTH 1000 0
DWIDTH 16 0
BBX 16 16 0 -2
BITMAP
00C0
01E0
01C0
0180
0300
0400
0000
0000
0000
0000
0000
0000
0000
0000
0000
0000
ENDCHAR
STARTCHAR U+2035
ENCODING 8245
SWIDTH 1000 0
DWIDTH 16 0
BBX 16 16 0 -2
BITMAP
0700
0380
00C0
0020
0000
0000
0000
0000
0000
0000
0000
0000
0000
0000
0000
0000
ENDCHAR
STARTCHAR U+203B
ENCODING 8251
SWIDTH 1000 0
DWIDTH 16 0
BBX 16 16 0 -2
BITMAP
0000
0000
318C
1998
0C30
0660
33C0
318C
03CC
0660
0C30
1998
318C
0000
0000
0000
ENDCHAR
STARTCHAR U+2103
ENCODING 8451
SWIDTH 1000 0
DWIDTH 16 0
BBX 16 16 0 -2
BITMAP
3800
44F0
45FA
3B0E
0306
0602
0602
0600
0600
0600
0602
0306
038C
01FC
0070
0000
ENDCHAR
STARTCHAR U+2105
ENCODING 8453
SWIDTH 1000 0
DWIDTH 16 0
BBX 16 16 0 -2
BITMAP
3804
4408
8010
8020
8040
8480
4938
3244
0484
0904
1104
2108
4110
80E0
0000
0000
ENDCHAR
STARTCHAR U+2109
ENCODING 8457
SWIDTH 1000 0
DWIDTH 16 0
BBX 16 16 0 -2
BITMAP
7000
8BFF
8903
7101
0101
0108
01F8
0118
0108
0100
0100
0100
0100
07C0
0000
0000
ENDCHAR
STARTCHAR U+2160
ENCODING 8544
SWIDTH 1000 0
DWIDTH 16 0
BBX 16 16 0 -2
BITMAP
0FF0
0180
0180
0180
0180
0180
0180
0180
0180
0180
0180
0180
0FF0
0000
0000
0000
ENDCHAR
STARTCHAR U+2161
ENCODING 8545
SWIDTH 1000 0
DWIDTH 16 0
BBX 16 16 0 -2
BITMAP
0FF8
0360
0360
0360
0360
0360
0360
0360
0360
0360
0360
0360
0FF8
0000
0000
0000
ENDCHAR
STARTCHAR U+2162
ENCODING 8546
SWIDTH 1000 0
DWIDTH 16 0
BBX 16 16 0 -2
BITMAP
3FF8
0DB0
0DB0
0DB0
0DB0
0DB0
0DB0
0DB0
0DB0
0DB0
0DB0
0DB0
3FF8
0000
0000
0000
ENDCHAR
STARTCHAR U+2163
ENCODING 8547
SWIDTH 1000 0
DWIDTH 16 0
BBX 16 16 0 -2
BITMAP
FE0E
6404
6404
6404
6208
6208
6208
6110
6110
6110
60A0
60A0
F840
0000
0000
0000
ENDCHAR
STARTCHAR U+2164
ENCODING 8548
SWIDTH 1000 0
DWIDTH 16 0
BBX 16 16 0 -2
BITMAP
F83E
2008
2008
2008
2008
1010
1010
0820
0820
0440
0280
0280
0100
0000
0000
0000
ENDCHAR
STARTCHAR U+2165
ENCODING 8549
SWIDTH 1000 0
DWIDTH 16 0
BBX 16 16 0 -2
BITMAP
E1DE
408C
408C
408C
408C
408C
618C
210C
330C
120C
1E0C
0C0C
0C1E
0000
0000
0000
ENDCHAR
STARTCHAR U+2166
ENCODING 8550
SWIDTH 1000 0
DWIDTH 16 0
BBX 16 16 0 -2
BITMAP
F1FE
4094
4094
4094
4094
6194
2114
2114
3314
1214
1E14
0C14
0C3E
0000
0000
0000
ENDCHAR
STARTCHAR U+2167
ENCODING 8551
SWIDTH 1000 0
DWIDTH 16 0
BBX 16 16 0 -2
BITMAP
E3FE
4154
4154
4154
4154
4154
6354
2254
2254
2254
3654
1454
08FE
0000
0000
0000
ENDCHAR
STARTCHAR U+2168
ENCODING 8552
SWIDTH 1000 0
DWIDTH 16 0
BBX 16 16 0 -2
BITMAP
FE0E
6404
660C
6318
61B0
60E0
6040
60E0
61B0
6318
660C
6404
FE0E
0000
0000
0000
ENDCHAR
STARTCHAR U+2169
ENCODING 8553
SWIDTH 1000 0
DWIDTH 16 0
BBX 16 16 0 -2
BITMAP
781E
300C
1818
0C30
0660
03C0
0180
03C0
0660
0C30
1818
300C
781E
0000
0000
0000
ENDCHAR
STARTCHAR U+2190
ENCODING 8592
SWIDTH 500 0
DWIDTH 8 0
BBX 8 16 0 -2
BITMAP
00
00
00
00
00
20
60
60
FE
FE
60
60
20
00
00
00
ENDCHAR
STARTCHAR U+2191
ENCODING 8593
SWIDTH 500 0
DWIDTH 8 0
BBX 8 16 0 -2
BITMAP
00
00
00
18
3C
7E
18
18
18
18
18
18
18
18
00
00
ENDCHAR
STARTCHAR U+2192
ENCODING 8594
SWIDTH 500 0
DWIDTH 8 0
BBX 8 16 0 -2
BITMAP
00
00
00
00
00
08
0C
0C
FE
FE
0C
0C
08
00
00
00
ENDCHAR
STARTCHAR U+2193
ENCODING 8595
SWIDTH 500 0
DWIDTH 8 0
BBX 8 16 0 -2
BITMAP
00
00
00
18
18
18
18
18
18
18
18
7E
3C
18
00
00
ENDCHAR
STARTCHAR U+2196
ENCODING 8598
SWIDTH 1000 0
DWIDTH 16 0
BBX 16 16 0 -2
BITMAP
0000
3F80
3000
2800
2400
2200
2100
2080
0040
0020
0010
0008
0004
0000
0000
0000
ENDCHAR
STARTCHAR U+2197
ENCODING 8599
SWIDTH 1000 0
DWIDTH 16 0
BBX 16 16 0 -2
BITMAP
0000
01F8
0018
0028
0048
0088
0108
0200
0400
0800
1000
2000
4000
0000
0000
0000
ENDCHAR
STARTCHAR U+2198
ENCODING 8600
SWIDTH 1000 0
DWIDTH 16 0
BBX 16 16 0 -2
BITMAP
0000
2000
1000
0800
0400
0200
0100
0084
0044
0024
0014
000C
00FC
0000
0000
0000
ENDCHAR
STARTCHAR U+2199
ENCODING 8601
SWIDTH 1000 0
DWIDTH 16 0
BBX 16 16 0 -2
BITMAP
0004
0008
0010
0020
0040
0080
0100
4200
4400
4800
5000
6000
7E00
0000
0000
0000
ENDCHAR
STARTCHAR U+2215
ENCODING 8725
SWIDTH 1000 0
DWIDTH 16 0
BBX 16 16 0 -2
BITMAP
0010
0020
0020
0040
0040
0080
0080
0100
0100
0200
0200
0400
0400
0800
0800
0000
ENDCHAR
STARTCHAR U+221A
ENCODING 8730
SWIDTH 1000 0
DWIDTH 16 0
BBX 16 16 0 -2
BITMAP
0000
0000
03FC
0200
0200
0600
0400
0400
4C00
6800
2800
3000
1000
0000
0000
0000
ENDCHAR
STARTCHAR U+221E
ENCODING 8734
SWIDTH 1000 0
DWIDTH 16 0
BBX 16 16 0 -2
BITMAP
0000
0000
0000
0000
3870
4488
8304
8304
4488
3870
0000
0000
0000
0000
0000
0000
ENDCHAR
STARTCHAR U+221F
ENCODING 8735
SWIDTH 1000 0
DWIDTH 16 0
BBX 16 16 0 -2
BITMAP
0000
3000
3000
3000
3000
3000
3000
3000
3000
3000
3000
3FFC
3FFC
0000
0000
0000
ENDCHAR
STARTCHAR U+2220
ENCODING 8736
SWIDTH 1000 0
DWIDTH 16 0
BBX 16 16 0 -2
BITMAP
0000
000C
0018
0030
0060
00C0
0180
0300
0600
0C00
1800
3FFC
3FFC
0000
0000
0000
ENDCHAR
STARTCHAR U+2223
ENCODING 8739
SWIDTH 1000 0
DWIDTH 16 0
BBX 16 16 0 -2
BITMAP
0180
0180
0180
0180
0180
0180
0180
0180
0180
0180
0180
0180
0180
0180
0180
0000
ENDCHAR
STARTCHAR U+2225
ENCODING 8741
SWIDTH 1000 0
DWIDTH 16 0
BBX 16 16 0 -2
BITMAP
0340
0340
0340
0340
0340
0340
0340
0340
0340
0340
0340
0340
0340
0340
0340
0000
ENDCHAR
STARTCHAR U+2229
ENCODING 8745
SWIDTH 1000 0
DWIDTH 16 0
BBX 16 16 0 -2
BITMAP
03C0
0660
0C30
1818
1008
300C
300C
2004
6006
6006
4002
4002
4002
0000
0000
0000
ENDCHAR
STARTCHAR U+222A
ENCODING 8746
SWIDTH 1000 0
DWIDTH 16 0
BBX 16 16 0 -2
BITMAP
0000
2004
2004
2004
2004
300C
300C
1008
1818
1818
0C30
0C30
0660
03C0
0000
0000
ENDCHAR
STARTCHAR U+222B
ENCODING 8747
SWIDTH 1000 0
DWIDTH 16 0
BBX 16 16 0 -2
BITMAP
0078
004C
0044
00C0
0080
0080
0180
0180
0100
0100
0300
2200
3200
1E00
0C00
0000
ENDCHAR
STARTCHAR U+222E
ENCODING 8750
SWIDTH 1000 0
DWIDTH 16 0
BBX 16 16 0 -2
BITMAP
0038
004C
0044
0040
01F0
0248
0444
0842
0444
0248
01F0
1040
1840
0E80
0700
0000
ENDCHAR
STARTCHAR U+2234
ENCODING 8756
SWIDTH 1000 0
DWIDTH 16 0
BBX 16 16 0 -2
BITMAP
0000
0180
03C0
0180
0000
0000
0000
0000
0000
0000
300C
781E
300C
0000
0000
0000
ENDCHAR
STARTCHAR U+2235
ENCODING 8757
SWIDTH 1000 0
DWIDTH 16 0
BBX 16 16 0 -2
BITMAP
0000
0000
1818
3C3C
1818
0000
0000
0000
0000
0180
03C0
0180
0000
0000
0000
0000
ENDCHAR
STARTCHAR U+2252
ENCODING 8786
SWIDTH 1000 0
DWIDTH 16 0
BBX 16 16 0 -2
BITMAP
0000
0000
6000
6000
0000
FFFE
0000
0000
FFFE
0000
000C
000C
0000
0000
0000
0000
ENDCHAR
STARTCHAR U+2260
ENCODING 8800
SWIDTH 1000 0
DWIDTH 16 0
BBX 16 16 0 -2
BITMAP
0018
0010
0030
0020
3FFC
3FFC
00C0
0180
3FFC
3FFC
0300
0200
0600
0400
0C00
0000
ENDCHAR
STARTCHAR U+2261
ENCODING 8801
SWIDTH 1000 0
DWIDTH 16 0
BBX 16 16 0 -2
BITMAP
0000
0000
0000
FFFE
0000
0000
FFFE
0000
0000
FFFE
0000
0000
0000
0000
0000
0000
ENDCHAR
STARTCHAR U+2266
ENCODING 8806
SWIDTH 1000 0
DWIDTH 16 0
BBX 16 16 0 -2
BITMAP
000C
0070
0380
1C00
6000
1C00
0380
0070
000C
0000
3FFC
0000
0000
3FFC
0000
0000
ENDCHAR
STARTCHAR U+2267
ENCODING 8807
SWIDTH 1000 0
DWIDTH 16 0
BBX 16 16 0 -2
BITMAP
6000
1C00
0380
0070
000C
0070
0380
1C00
6000
0000
7FFC
0000
0000
7FFC
0000
0000
ENDCHAR
STARTCHAR U+2295
ENCODING 8853
SWIDTH 1000 0
DWIDTH 16 0
BBX 16 16 0 -2
BITMAP
03C0
0FF0
1998
318C
2184
6186
7FFE
7FFE
6186
2184
318C
1998
0FF0
03C0
0000
0000
ENDCHAR
STARTCHAR U+2299
ENCODING 8857
SWIDTH 1000 0
DWIDTH 16 0
BBX 16 16 0 -2
BITMAP
03C0
0C30
1008
2004
2004
4182
43C2
43C2
4182
2004
2004
1008
0C30
03C0
0000
0000
ENDCHAR
STARTCHAR U+22A5
ENCODING 8869
SWIDTH 1000 0
DWIDTH 16 0
BBX 16 16 0 -2
BITMAP
0000
0000
0180
0180
0180
0180
0180
0180
0180
0180
7FFE
7FFE
0000
0000
0000
0000
ENDCHAR
STARTCHAR U+22BF
ENCODING 8895
SWIDTH 1000 0
DWIDTH 16 0
BBX 16 16 0 -2
BITMAP
0000
0004
000C
001C
0034
0064
00C4
0184
0304
0604
0C04
1804
3FFC
0000
0000
0000
ENDCHAR
STARTCHAR U+2500
ENCODING 9472
SWIDTH 1000 0
DWIDTH 16 0
BBX 16 16 0 -2
BITMAP
0000
0000
0000
0000
0000
0000
FFFF
FFFF
0000
0000
0000
0000
0000
0000
0000
0000
ENDCHAR
STARTCHAR U+2502
ENCODING 9474
SWIDTH 1000 0
DWIDTH 16 0
BBX 16 16 0 -2
BITMAP
0180
0180
0180
0180
0180
0180
0180
0180
0180
0180
0180
0180
0180
0180
0180
0000
ENDCHAR
STARTCHAR U+250C
ENCODING 9484
SWIDTH 1000 0
DWIDTH 16 0
BBX 16 16 0 -2
BITMAP
0000
0000
0000
0000
0000
0000
01FF
01FF
0180
0180
0180
0180
0180
0180
0180
0000
ENDCHAR
STARTCHAR U+2510
ENCODING 9488
SWIDTH 1000 0
DWIDTH 16 0
BBX 16 16 0 -2
BITMAP
0000
0000
0000
0000
0000
0000
FF80
FF80
0180
0180
0180
0180
0180
0180
0180
0000
ENDCHAR
STARTCHAR U+2514
ENCODING 9492
SWIDTH 1000 0
DWIDTH 16 0
BBX 16 16 0 -2
BITMAP
0180
0180
0180
0180
0180
0180
01FF
01FF
0000
0000
0000
0000
0000
0000
0000
0000
ENDCHAR
STARTCHAR U+2518
ENCODING 9496
SWIDTH 1000 0
DWIDTH 16 0
BBX 16 16 0 -2
BITMAP
0180
0180
0180
0180
0180
0180
FF80
FF80
0000
0000
0000
0000
0000
0000
0000
0000
ENDCHAR
STARTCHAR U+251C
ENCODING 9500
SWIDTH 1000 0
DWIDTH 16 0
BBX 16 16 0 -2
BITMAP
0180
0180
0180
0180
0180
0180
01FF
01FF
0180
0180
0180
0180
0180
0180
0180
0000
ENDCHAR
STARTCHAR U+2524
ENCODING 9508
SWIDTH 1000 0
DWIDTH 16 0
BBX 16 16 0 -2
BITMAP
0180
0180
0180
0180
0180
0180
FF80
FF80
0180
0180
0180
0180
0180
0180
0180
0000
ENDCHAR
STARTCHAR U+252C
ENCODING 9516
SWIDTH 1000 0
DWIDTH 16 0
BBX 16 16 0 -2
BITMAP
0000
0000
0000
0000
0000
0000
FFFF
FFFF
0180
0180
0180
0180
0180
0180
0180
0000
ENDCHAR
STARTCHAR U+2534
ENCODING 9524
SWIDTH 1000 0
DWIDTH 16 0
BBX 16 16 0 -2
BITMAP
0180
0180
0180
0180
0180
0180
FFFF
FFFF
0000
0000
0000
0000
0000
0000
0000
0000
ENDCHAR
STARTCHAR U+253C
ENCODING 9532
SWIDTH 1000 0
DWIDTH 16 0
BBX 16 16 0 -2
BITMAP
0180
0180
0180
0180
0180
0180
FFFF
FFFF
0180
0180
0180
0180
0180
0180
0180
0000
ENDCHAR
STARTCHAR U+2550
ENCODING 9552
SWIDTH 1000 0
DWIDTH 16 0
BBX 16 16 0 -2
BITMAP
0000
0000
0000
FFFF
FFFF
0000
0000
0000
0000
0000
FFFF
FFFF
0000
0000
0000
0000
ENDCHAR
STARTCHAR U+2551
ENCODING 9553
SWIDTH 1000 0
DWIDTH 16 0
BBX 16 16 0 -2
BITMAP
0630
0630
0630
0630
0630
0630
0630
0630
0630
0630
0630
0630
0630
0630
0630
0000
ENDCHAR
STARTCHAR U+2552
ENCODING 9554
SWIDTH 1000 0
DWIDTH 16 0
BBX 16 16 0 -2
BITMAP
0000
0000
0000
0000
01FF
01FF
0180
0180
0180
01FF
01FF
0180
0180
0180
0180
0000
ENDCHAR
STARTCHAR U+2553
ENCODING 9555
SWIDTH 1000 0
DWIDTH 16 0
BBX 16 16 0 -2
BITMAP
0000
0000
0000
0000
0000
0000
07FF
07FF
0630
0630
0630
0630
0630
0630
0630
0000
ENDCHAR
STARTCHAR U+2554
ENCODING 9556
SWIDTH 1000 0
DWIDTH 16 0
BBX 16 16 0 -2
BITMAP
0000
0000
0000
0000
07FF
07FF
0600
0600
0600
063F
063F
0630
0630
0630
0630
0000
ENDCHAR
STARTCHAR U+2555
ENCODING 9557
SWIDTH 1000 0
DWIDTH 16 0
BBX 16 16 0 -2
BITMAP
0000
0000
0000
0000
FF80
FF80
0180
0180
0180
FF80
FF80
0180
0180
0180
0180
0000
ENDCHAR
STARTCHAR U+2556
ENCODING 9558
SWIDTH 1000 0
DWIDTH 16 0
BBX 16 16 0 -2
BITMAP
0000
0000
0000
0000
0000
0000
FFF0
FFF0
0630
0630
0630
0630
0630
0630
0630
0000
ENDCHAR
STARTCHAR U+2557
ENCODING 9559
SWIDTH 1000 0
DWIDTH 16 0
BBX 16 16 0 -2
BITMAP
0000
0000
0000
0000
FFF0
FFF0
0030
0030
0030
FE30
FE30
0630
0630
0630
0630
0000
ENDCHAR
STARTCHAR U+2558
ENCODING 9560
SWIDTH 1000 0
DWIDTH 16 0
BBX 16 16 0 -2
BITMAP
0180
0180
0180
0180
01FF
01FF
0180
0180
0180
01FF
01FF
0000
0000
0000
0000
0000
ENDCHAR
STARTCHAR U+2559
ENCODING 9561
SWIDTH 1000 0
DWIDTH 16 0
BBX 16 16 0 -2
BITMAP
0630
0630
0630
0630
0630
0630
07FF
07FF
0000
0000
0000
0000
0000
0000
0000
0000
ENDCHAR
STARTCHAR U+255A
ENCODING 9562
SWIDTH 1000 0
DWIDTH 16 0
BBX 16 16 0 -2
BITMAP
0630
0630
0630
0630
063F
063F
0600
0600
0600
07FF
07FF
0000
0000
0000
0000
0000
ENDCHAR
STARTCHAR U+255B
ENCODING 9563
SWIDTH 1000 0
DWIDTH 16 0
BBX 16 16 0 -2
BITMAP
0180
0180
0180
0180
FF80
FF80
0180
0180
0180
FF80
FF80
0000
0000
0000
0000
0000
ENDCHAR
STARTCHAR U+255C
ENCODING 9564
SWIDTH 1000 0
DWIDTH 16 0
BBX 16 16 0 -2
BITMAP
0630
0630
0630
0630
0630
0630
FFF0
FFF0
0000
0000
0000
0000
0000
0000
0000
0000
ENDCHAR
STARTCHAR U+255D
ENCODING 9565
SWIDTH 1000 0
DWIDTH 16 0
BBX 16 16 0 -2
BITMAP
0630
0630
0630
0630
FE30
FE30
0030
0030
0030
FFF0
FFF0
0000
0000
0000
0000
0000
ENDCHAR
STARTCHAR U+255E
ENCODING 9566
SWIDTH 1000 0
DWIDTH 16 0
BBX 16 16 0 -2
BITMAP
0180
0180
0180
01FF
01FF
0180
0180
0180
0180
0180
01FF
01FF
0180
0180
0180
0000
ENDCHAR
STARTCHAR U+255F
ENCODING 9567
SWIDTH 1000 0
DWIDTH 16 0
BBX 16 16 0 -2
BITMAP
0630
0630
0630
0630
0630
0630
063F
063F
0630
0630
0630
0630
0630
0630
0630
0000
ENDCHAR
STARTCHAR U+2560
ENCODING 9568
SWIDTH 1000 0
DWIDTH 16 0
BBX 16 16 0 -2
BITMAP
0630
0630
0630
0630
063F
063F
0600
0600
0600
063F
063F
0630
0630
0630
0630
0000
ENDCHAR
STARTCHAR U+2561
ENCODING 9569
SWIDTH 1000 0
DWIDTH 16 0
BBX 16 16 0 -2
BITMAP
0180
0180
0180
FF80
FF80
0180
0180
0180
0180
0180
FF80
FF80
0180
0180
0180
0000
ENDCHAR
STARTCHAR U+2562
ENCODING 9570
SWIDTH 1000 0
DWIDTH 16 0
BBX 16 16 0 -2
BITMAP
0630
0630
0630
0630
0630
0630
FE30
FE30
0630
0630
0630
0630
0630
0630
0630
0000
ENDCHAR
STARTCHAR U+2563
ENCODING 9571
SWIDTH 1000 0
DWIDTH 16 0
BBX 16 16 0 -2
BITMAP
0630
0630
0630
0630
FE30
FE30
0030
0030
0030
FE30
FE30
0630
0630
0630
0630
0000
ENDCHAR
STARTCHAR U+2564
ENCODING 9572
SWIDTH 1000 0
DWIDTH 16 0
BBX 16 16 0 -2
BITMAP
0000
0000
0000
0000
FFFF
FFFF
0000
0000
0000
FFFF
FFFF
0180
0180
0180
0180
0000
ENDCHAR
STARTCHAR U+2565
ENCODING 9573
SWIDTH 1000 0
DWIDTH 16 0
BBX 16 16 0 -2
BITMAP
0000
0000
0000
0000
0000
0000
FFFF
FFFF
0630
0630
0630
0630
0630
0630
0630
0000
ENDCHAR
STARTCHAR U+2566
ENCODING 9574
SWIDTH 1000 0
DWIDTH 16 0
BBX 16 16 0 -2
BITMAP
0000
0000
0000
0000
FFFF
FFFF
0000
0000
0000
FE3F
FE3F
0630
0630
0630
0630
0000
ENDCHAR
STARTCHAR U+2567
ENCODING 9575
SWIDTH 1000 0
DWIDTH 16 0
BBX 16 16 0 -2
BITMAP
0180
0180
0180
0180
FFFF
FFFF
0000
0000
0000
FFFF
FFFF
0000
0000
0000
0000
0000
ENDCHAR
STARTCHAR U+2568
ENCODING 9576
SWIDTH 1000 0
DWIDTH 16 0
BBX 16 16 0 -2
BITMAP
0630
0630
0630
0630
0630
0630
FFFF
FFFF
0000
0000
0000
0000
0000
0000
0000
0000
ENDCHAR
STARTCHAR U+2569
ENCODING 9577
SWIDTH 1000 0
DWIDTH 16 0
BBX 16 16 0 -2
BITMAP
0630
0630
0630
0630
FE3F
FE3F
0000
0000
0000
FFFF
FFFF
0000
0000
0000
0000
0000
ENDCHAR
STARTCHAR U+256A
ENCODING 9578
SWIDTH 1000 0
DWIDTH 16 0
BBX 16 16 0 -2
BITMAP
0180
0180
0180
FFFF
FFFF
0180
0180
0180
0180
0180
FFFF
FFFF
0180
0180
0180
0000
ENDCHAR
STARTCHAR U+256B
ENCODING 9579
SWIDTH 1000 0
DWIDTH 16 0
BBX 16 16 0 -2
BITMAP
0630
0630
0630
0630
0630
0630
FE3F
FE3F
0630
0630
0630
0630
0630
0630
0630
0000
ENDCHAR
STARTCHAR U+256C
ENCODING 9580
SWIDTH 1000 0
DWIDTH 16 0
BBX 16 16 0 -2
BITMAP
0630
0630
0630
0630
FE3F
FE3F
0000
0000
0000
FE3F
FE3F
0630
0630
0630
0630
0000
ENDCHAR
STARTCHAR U+256D
ENCODING 9581
SWIDTH 1000 0
DWIDTH 16 0
BBX 16 16 0 -2
BITMAP
0000
0000
0000
0000
0000
0000
0000
001E
007E
00E0
00C0
0180
0180
0180
0180
0000
ENDCHAR
STARTCHAR U+256E
ENCODING 9582
SWIDTH 1000 0
DWIDTH 16 0
BBX 16 16 0 -2
BITMAP
0000
0000
0000
0000
0000
0000
0000
F000
FC00
0E00
0600
0300
0300
0300
0300
0000
ENDCHAR
STARTCHAR U+256F
ENCODING 9583
SWIDTH 1000 0
DWIDTH 16 0
BBX 16 16 0 -2
BITMAP
0300
0300
0300
0600
0E00
FC00
F000
0000
0000
0000
0000
0000
0000
0000
0000
0000
ENDCHAR
STARTCHAR U+2570
ENCODING 9584
SWIDTH 1000 0
DWIDTH 16 0
BBX 16 16 0 -2
BITMAP
0180
0180
0180
00C0
00E0
007E
001E
0000
0000
0000
0000
0000
0000
0000
0000
0000
ENDCHAR
STARTCHAR U+2571
ENCODING 9585
SWIDTH 1000 0
DWIDTH 16 0
BBX 16 16 0 -2
BITMAP
0003
0006
000C
0018
0030
0060
00C0
0180
0300
0600
0C00
1800
3000
6000
C000
0000
ENDCHAR
STARTCHAR U+2572
ENCODING 9586
SWIDTH 1000 0
DWIDTH 16 0
BBX 16 16 0 -2
BITMAP
C000
6000
3000
1800
0C00
0600
0300
0180
00C0
0060
0030
0018
000C
0006
0003
0000
ENDCHAR
STARTCHAR U+2573
ENCODING 9587
SWIDTH 1000 0
DWIDTH 16 0
BBX 16 16 0 -2
BITMAP
C003
6006
300C
1818
0C30
0660
03C0
0180
03C0
0660
0C30
1818
300C
6006
C003
0000
ENDCHAR
STARTCHAR U+2574
ENCODING 9588
SWIDTH 1000 0
DWIDTH 16 0
BBX 16 16 0 -2
BITMAP
0000
0000
0000
0000
0000
0000
0000
0000
0000
0000
0000
0000
0000
0000
FFFF
0000
ENDCHAR
STARTCHAR U+2581
ENCODING 9601
SWIDTH 1000 0
DWIDTH 16 0
BBX 16 16 0 -2
BITMAP
0000
0000
0000
0000
0000
0000
0000
0000
0000
0000
0000
0000
0000
FFFF
FFFF
0000
ENDCHAR
STARTCHAR U+2582
ENCODING 9602
SWIDTH 1000 0
DWIDTH 16 0
BBX 16 16 0 -2
BITMAP
0000
0000
0000
0000
0000
0000
0000
0000
0000
0000
0000
FFFF
FFFF
FFFF
FFFF
0000
ENDCHAR
STARTCHAR U+2583
ENCODING 9603
SWIDTH 1000 0
DWIDTH 16 0
BBX 16 16 0 -2
BITMAP
0000
0000
0000
0000
0000
0000
0000
0000
0000
FFFF
FFFF
FFFF
FFFF
FFFF
FFFF
0000
ENDCHAR
STARTCHAR U+2584
ENCODING 9604
SWIDTH 1000 0
DWIDTH 16 0
BBX 16 16 0 -2
BITMAP
0000
0000
0000
0000
0000
0000
0000
FFFF
FFFF
FFFF
FFFF
FFFF
FFFF
FFFF
FFFF
0000
ENDCHAR
STARTCHAR U+2585
ENCODING 9605
SWIDTH 1000 0
DWIDTH 16 0
BBX 16 16 0 -2
BITMAP
0000
0000
0000
0000
0000
FFFF
FFFF
FFFF
FFFF
FFFF
FFFF
FFFF
FFFF
FFFF
FFFF
0000
ENDCHAR
STARTCHAR U+2586
ENCODING 9606
SWIDTH 1000 0
DWIDTH 16 0
BBX 16 16 0 -2
BITMAP
0000
0000
0000
FFFF
FFFF
FFFF
FFFF
FFFF
FFFF
FFFF
FFFF
FFFF
FFFF
FFFF
FFFF
0000
ENDCHAR
STARTCHAR U+2587
ENCODING 9607
SWIDTH 1000 0
DWIDTH 16 0
BBX 16 16 0 -2
BITMAP
0000
FFFF
FFFF
FFFF
FFFF
FFFF
FFFF
FFFF
FFFF
FFFF
FFFF
FFFF
FFFF
FFFF
FFFF
0000
ENDCHAR
STARTCHAR U+2588
ENCODING 9608
SWIDTH 1000 0
DWIDTH 16 0
BBX 16 16 0 -2
BITMAP
FFFF
FFFF
FFFF
FFFF
FFFF
FFFF
FFFF
FFFF
FFFF
FFFF
FFFF
FFFF
FFFF
FFFF
FFFF
0000
ENDCHAR
STARTCHAR U+2589
ENCODING 9609
SWIDTH 1000 0
DWIDTH 16 0
BBX 16 16 0 -2
BITMAP
FFFC
FFFC
FFFC
FFFC
FFFC
FFFC
FFFC
FFFC
FFFC
FFFC
FFFC
FFFC
FFFC
FFFC
FFFC
0000
ENDCHAR
STARTCHAR U+258A
ENCODING 9610
SWIDTH 1000 0
DWIDTH 16 0
BBX 16 16 0 -2
BITMAP
FFF0
FFF0
FFF0
FFF0
FFF0
FFF0
FFF0
FFF0
FFF0
FFF0
FFF0
FFF0
FFF0
FFF0
FFF0
0000
ENDCHAR
STARTCHAR U+258B
ENCODING 9611
SWIDTH 1000 0
DWIDTH 16 0
BBX 16 16 0 -2
BITMAP
FFC0
FFC0
FFC0
FFC0
FFC0
FFC0
FFC0
FFC0
FFC0
FFC0
FFC0
FFC0
FFC0
FFC0
FFC0
0000
ENDCHAR
STARTCHAR U+258C
ENCODING 9612
SWIDTH 1000 0
DWIDTH 16 0
BBX 16 16 0 -2
BITMAP
FF00
FF00
FF00
FF00
FF00
FF00
FF00
FF00
FF00
FF00
FF00
FF00
FF00
FF00
FF00
0000
ENDCHAR
STARTCHAR U+258D
ENCODING 9613
SWIDTH 1000 0
DWIDTH 16 0
BBX 16 16 0 -2
BITMAP
FC00
FC00
FC00
FC00
FC00
FC00
FC00
FC00
FC00
FC00
FC00
FC00
FC00
FC00
FC00
0000
ENDCHAR
STARTCHAR U+258E
ENCODING 9614
SWIDTH 1000 0
DWIDTH 16 0
BBX 16 16 0 -2
BITMAP
F000
F000
F000
F000
F000
F000
F000
F000
F000
F000
F000
F000
F000
F000
F000
0000
ENDCHAR
STARTCHAR U+258F
ENCODING 9615
SWIDTH 1000 0
DWIDTH 16 0
BBX 16 16 0 -2
BITMAP
C000
C000
C000
C000
C000
C000
C000
C000
C000
C000
C000
C000
C000
C000
C000
0000
ENDCHAR
STARTCHAR U+2593
ENCODING 9619
SWIDTH 1000 0
DWIDTH 16 0
BBX 16 16 0 -2
BITMAP
FFFF
FFFF
FFFF
FFFF
FFFF
FFFF
FFFF
FFFF
FFFF
FFFF
FFFF
FFFF
FFFF
FFFF
FFFF
0000
ENDCHAR
STARTCHAR U+2594
ENCODING 9620
SWIDTH 1000 0
DWIDTH 16 0
BBX 16 16 0 -2
BITMAP
FFFF
0000
0000
0000
0000
0000
0000
0000
0000
0000
0000
0000
0000
0000
0000
0000
ENDCHAR
STARTCHAR U+2595
ENCODING 9621
SWIDTH 1000 0
DWIDTH 16 0
BBX 16 16 0 -2
BITMAP
0003
0003
0003
0003
0003
0003
0003
0003
0003
0003
0003
0003
0003
0003
0003
0000
ENDCHAR
STARTCHAR U+25A0
ENCODING 9632
SWIDTH 1000 0
DWIDTH 16 0
BBX 16 16 0 -2
BITMAP
7FFE
7FFE
7FFE
7FFE
7FFE
7FFE
7FFE
7FFE
7FFE
7FFE
7FFE
7FFE
7FFE
7FFE
0000
0000
ENDCHAR
STARTCHAR U+25A1
ENCODING 9633
SWIDTH 1000 0
DWIDTH 16 0
BBX 16 16 0 -2
BITMAP
7FFE
4002
4002
4002
4002
4002
4002
4002
4002
4002
4002
4002
4002
7FFE
0000
0000
ENDCHAR
STARTCHAR U+25B2
ENCODING 9650
SWIDTH 1000 0
DWIDTH 16 0
BBX 16 16 0 -2
BITMAP
0000
0100
0380
07C0
07C0
0FE0
0FE0
1FF0
1FF0
3FF8
3FF8
7FFC
FFFE
0000
0000
0000
ENDCHAR
STARTCHAR U+25B3
ENCODING 9651
SWIDTH 1000 0
DWIDTH 16 0
BBX 16 16 0 -2
BITMAP
0100
0280
0280
0440
0440
0820
0820
1010
1010
2008
2008
4004
FFFE
0000
0000
0000
ENDCHAR
STARTCHAR U+25BC
ENCODING 9660
SWIDTH 1000 0
DWIDTH 16 0
BBX 16 16 0 -2
BITMAP
0000
0000
FFFE
7FFC
7FFC
3FF8
3FF8
1FF0
1FF0
0FE0
0FE0
07C0
07C0
0380
0100
0000
ENDCHAR
STARTCHAR U+25BD
ENCODING 9661
SWIDTH 1000 0
DWIDTH 16 0
BBX 16 16 0 -2
BITMAP
0000
0000
FFFE
4004
4004
2008
2008
1010
1010
0820
0820
0440
0440
0280
0100
0000
ENDCHAR
STARTCHAR U+25C6
ENCODING 9670
SWIDTH 1000 0
DWIDTH 16 0
BBX 16 16 0 -2
BITMAP
0100
0380
07C0
0FE0
1FF0
3FF8
7FFC
FFFE
7FFC
3FF8
1FF0
0FE0
07C0
0380
0100
0000
ENDCHAR
STARTCHAR U+25C7
ENCODING 9671
SWIDTH 1000 0
DWIDTH 16 0
BBX 16 16 0 -2
BITMAP
0100
0380
06C0
0C60
1830
3018
600C
C006
600C
3018
1830
0C60
06C0
0380
0100
0000
ENDCHAR
STARTCHAR U+25CB
ENCODING 9675
SWIDTH 1000 0
DWIDTH 16 0
BBX 16 16 0 -2
BITMAP
03C0
0420
1818
2004
2004
4002
4002
4002
4002
2004
2004
1008
0C30
03C0
0000
0000
ENDCHAR
STARTCHAR U+25CE
ENCODING 9678
SWIDTH 1000 0
DWIDTH 16 0
BBX 16 16 0 -2
BITMAP
03C0
0C30
1188
2664
2814
4812
500A
500A
4812
2814
2664
1188
0C30
03C0
0000
0000
ENDCHAR
STARTCHAR U+25CF
ENCODING 9679
SWIDTH 1000 0
DWIDTH 16 0
BBX 16 16 0 -2
BITMAP
03C0
0FF0
1FF8
3FFC
3FFC
7FFE
7FFE
7FFE
7FFE
3FFC
3FFC
1FF8
0FF0
03C0
0000
0000
ENDCHAR
STARTCHAR U+25E2
ENCODING 9698
SWIDTH 1000 0
DWIDTH 16 0
BBX 16 16 0 -2
BITMAP
0001
0003
0007
000F
001F
003F
007F
00FF
01FF
03FF
07FF
0FFF
1FFF
3FFF
7FFF
0000
ENDCHAR
STARTCHAR U+25E3
ENCODING 9699
SWIDTH 1000 0
DWIDTH 16 0
BBX 16 16 0 -2
BITMAP
8000
C000
E000
F000
F800
FC00
FE00
FF00
FF80
FFC0
FFE0
FFF0
FFF8
FFFC
FFFE
0000
ENDCHAR
STARTCHAR U+25E4
ENCODING 9700
SWIDTH 1000 0
DWIDTH 16 0
BBX 16 16 0 -2
BITMAP
FFFE
FFFC
FFF8
FFF0
FFE0
FFC0
FF80
FF00
FE00
FC00
F800
F000
E000
C000
8000
0000
ENDCHAR
STARTCHAR U+25E5
ENCODING 9701
SWIDTH 1000 0
DWIDTH 16 0
BBX 16 16 0 -2
BITMAP
7FFF
3FFF
1FFF
0FFF
07FF
03FF
01FF
00FF
007F
003F
001F
000F
0007
0003
0001
0000
ENDCHAR
STARTCHAR U+2605
ENCODING 9733
SWIDTH 1000 0
DWIDTH 16 0
BBX 16 16 0 -2
BITMAP
0100
0380
0380
07C0
07C0
FFFE
7FFC
3FF8
1FF0
0FE0
0FE0
1EF0
1C70
3838
3018
0000
ENDCHAR
STARTCHAR U+2606
ENCODING 9734
SWIDTH 1000 0
DWIDTH 16 0
BBX 16 16 0 -2
BITMAP
0100
0280
0280
0440
0440
FC7E
4004
2008
1010
0820
0920
1290
1450
2828
3018
0000
ENDCHAR
STARTCHAR U+2640
ENCODING 9792
SWIDTH 1000 0
DWIDTH 16 0
BBX 16 16 0 -2
BITMAP
07C0
0820
0820
0820
0820
0440
0380
0100
0100
7FFC
0100
0100
0100
0100
0100
0000
ENDCHAR
STARTCHAR U+2642
ENCODING 9794
SWIDTH 1000 0
DWIDTH 16 0
BBX 16 16 0 -2
BITMAP
0080
01C0
02A0
0490
0888
1084
0080
0080
01C0
0220
0410
0410
0410
0220
01C0
0000
ENDCHAR
STARTCHAR U+3000
ENCODING 12288
SWIDTH 1000 0
DWIDTH 16 0
BBX 16 16 0 -2
BITMAP
0000
0000
0000
0000
0000
0000
0000
0000
0000
0000
0000
0000
0000
0000
0000
0000
ENDCHAR
STARTCHAR U+3001
ENCODING 12289
SWIDTH 1000 0
DWIDTH 16 0
BBX 16 16 0 -2
BITMAP
0000
0000
0000
0000
0000
0000
0200
0180
01C0
00E0
0060
0000
0000
0000
0000
0000
ENDCHAR
STARTCHAR U+3002
ENCODING 12290
SWIDTH 1000 0
DWIDTH 16 0
BBX 16 16 0 -2
BITMAP
0000
0000
0000
0000
0000
03C0
0420
0420
0420
03C0
0000
0000
0000
0000
0000
0000
ENDCHAR
STARTCHAR U+3003
ENCODING 12291
SWIDTH 1000 0
DWIDTH 16 0
BBX 16 16 0 -2
BITMAP
0000
0000
0000
0000
0210
0738
0738
0738
0E70
0C60
18C0
3180
4200
0000
0000
0000
ENDCHAR
STARTCHAR U+3008
ENCODING 12296
SWIDTH 1000 0
DWIDTH 16 0
BBX 16 16 0 -2
BITMAP
0002
0004
0004
0008
0008
0010
0010
0020
0010
0010
0008
0008
0004
0004
0002
0000
ENDCHAR
STARTCHAR U+3009
ENCODING 12297
SWIDTH 1000 0
DWIDTH 16 0
BBX 16 16 0 -2
BITMAP
4000
2000
2000
1000
1000
0800
0800
0400
0800
0800
1000
1000
2000
2000
4000
0000
ENDCHAR
STARTCHAR U+300A
ENCODING 12298
SWIDTH 1000 0
DWIDTH 16 0
BBX 16 16 0 -2
BITMAP
006C
00D8
01B0
0360
06C0
0D80
1B00
1B00
0D80
06C0
0360
01B0
00D8
006C
0036
0000
ENDCHAR
STARTCHAR U+300B
ENCODING 12299
SWIDTH 1000 0
DWIDTH 16 0
BBX 16 16 0 -2
BITMAP
3600
1B00
0D80
06C0
0360
01B0
00D8
00D8
01B0
0360
06C0
0D80
1B00
3600
6C00
0000
ENDCHAR
STARTCHAR U+300C
ENCODING 12300
SWIDTH 1000 0
DWIDTH 16 0
BBX 16 16 0 -2
BITMAP
00FE
0080
0080
0080
0080
0080
0080
0080
0080
0080
0000
0000
0000
0000
0000
0000
ENDCHAR
STARTCHAR U+300D
ENCODING 12301
SWIDTH 1000 0
DWIDTH 16 0
BBX 16 16 0 -2
BITMAP
0000
0000
0000
0000
0000
0100
0100
0100
0100
0100
0100
0100
0100
0100
7F00
0000
ENDCHAR
STARTCHAR U+300E
ENCODING 12302
SWIDTH 1000 0
DWIDTH 16 0
BBX 16 16 0 -2
BITMAP
007E
0042
005E
0050
0050
0050
0050
0050
0050
0050
0050
0070
0000
0000
0000
0000
ENDCHAR
STARTCHAR U+300F
ENCODING 12303
SWIDTH 1000 0
DWIDTH 16 0
BBX 16 16 0 -2
BITMAP
0000
0000
0000
0000
0700
0500
0500
0500
0500
0500
0500
0500
7D00
4100
7F00
0000
ENDCHAR
STARTCHAR U+3010
ENCODING 12304
SWIDTH 1000 0
DWIDTH 16 0
BBX 16 16 0 -2
BITMAP
007E
007C
0078
0070
0070
0060
0060
0060
0060
0060
0070
0070
0078
007C
007E
0000
ENDCHAR
STARTCHAR U+3011
ENCODING 12305
SWIDTH 1000 0
DWIDTH 16 0
BBX 16 16 0 -2
BITMAP
7E00
3E00
1E00
1E00
0E00
0E00
0E00
0E00
0E00
0E00
0E00
1E00
1E00
3E00
7E00
0000
ENDCHAR
STARTCHAR U+3012
ENCODING 12306
SWIDTH 1000 0
DWIDTH 16 0
BBX 16 16 0 -2
BITMAP
7FFE
7FFE
0000
0000
7FFE
7FFE
0180
0180
0180
0180
0180
0180
0180
0180
0180
0000
ENDCHAR
STARTCHAR U+3014
ENCODING 12308
SWIDTH 1000 0
DWIDTH 16 0
BBX 16 16 0 -2
BITMAP
000E
0018
0030
0030
0030
0030
0030
0030
0030
0030
0030
0030
0030
0018
000E
0000
ENDCHAR
STARTCHAR U+3015
ENCODING 12309
SWIDTH 1000 0
DWIDTH 16 0
BBX 16 16 0 -2
BITMAP
7000
1800
0C00
0C00
0C00
0C00
0C00
0C00
0C00
0C00
0C00
0C00
0C00
1800
7000
0000
ENDCHAR
STARTCHAR U+301D
ENCODING 12317
SWIDTH 1000 0
DWIDTH 16 0
BBX 16 16 0 -2
BITMAP
EE00
6600
2200
1100
0000
0000
0000
0000
0000
0000
0000
0000
0000
0000
0000
0000
ENDCHAR
STARTCHAR U+301E
ENCODING 12318
SWIDTH 1000 0
DWIDTH 16 0
BBX 16 16 0 -2
BITMAP
00EE
00CC
0088
0110
0000
0000
0000
0000
0000
0000
0000
0000
0000
0000
0000
0000
ENDCHAR
STARTCHAR U+3021
ENCODING 12321
SWIDTH 1000 0
DWIDTH 16 0
BBX 16 16 0 -2
BITMAP
0180
0180
0180
0180
0180
0180
0180
0180
0180
0180
0180
0180
0180
0180
0080
0000
ENDCHAR
STARTCHAR U+3022
ENCODING 12322
SWIDTH 1000 0
DWIDTH 16 0
BBX 16 16 0 -2
BITMAP
0060
0260
0660
0660
0660
0660
0660
0660
0660
0660
0660
0660
0260
0060
0020
0000
ENDCHAR
STARTCHAR U+3023
ENCODING 12323
SWIDTH 1000 0
DWIDTH 16 0
BBX 16 16 0 -2
BITMAP
0018
0818
1818
1898
1998
1998
1998
1998
1998
1998
1998
1898
0818
0018
0008
0000
ENDCHAR
STARTCHAR U+3024
ENCODING 12324
SWIDTH 1000 0
DWIDTH 16 0
BBX 16 16 0 -2
BITMAP
0000
600C
3018
1830
0C60
06C0
0380
0380
06C0
0C60
1830
3018
600C
0000
0000
0000
ENDCHAR
STARTCHAR U+3025
ENCODING 12325
SWIDTH 1000 0
DWIDTH 16 0
BBX 16 16 0 -2
BITMAP
0000
0198
0198
0330
0360
03C0
01C0
0360
0630
0630
0630
0630
0660
03C0
0000
0000
ENDCHAR
STARTCHAR U+3026
ENCODING 12326
SWIDTH 1000 0
DWIDTH 16 0
BBX 16 16 0 -2
BITMAP
0000
0000
0100
0180
0180
0180
0188
3FFC
3FFE
0000
0000
0000
0000
0000
0000
0000
ENDCHAR
STARTCHAR U+3027
ENCODING 12327
SWIDTH 1000 0
DWIDTH 16 0
BBX 16 16 0 -2
BITMAP
0000
0100
0180
0180
0188
7FFC
7FFE
0000
0020
1FF0
1FF8
0000
0000
0000
0000
0000
ENDCHAR
STARTCHAR U+3028
ENCODING 12328
SWIDTH 1000 0
DWIDTH 16 0
BBX 16 16 0 -2
BITMAP
0200
0300
0300
0320
7FF0
7FF8
0000
0000
1FE0
1FE0
0000
0008
FFFC
FFFE
0000
0000
ENDCHAR
STARTCHAR U+3029
ENCODING 12329
SWIDTH 1000 0
DWIDTH 16 0
BBX 16 16 0 -2
BITMAP
0100
0300
0600
0FF8
1FFC
1818
0C30
0660
03C0
0180
03C0
0670
1C3E
380C
0000
0000
ENDCHAR
STARTCHAR U+3105
ENCODING 12549
SWIDTH 1000 0
DWIDTH 16 0
BBX 16 16 0 -2
BITMAP
0600
0600
0C00
1800
3FF8
1FFC
000C
000C
000C
0018
0030
0660
03C0
0180
0000
0000
ENDCHAR
STARTCHAR U+3106
ENCODING 12550
SWIDTH 1000 0
DWIDTH 16 0
BBX 16 16 0 -2
BITMAP
0600
0600
0C00
1830
3FF8
0030
1860
0CC0
0780
0300
0780
0EE0
1878
703C
0000
0000
ENDCHAR
STARTCHAR U+3107
ENCODING 12551
SWIDTH 1000 0
DWIDTH 16 0
BBX 16 16 0 -2
BITMAP
0000
0000
0018
3FFC
300C
300C
300C
300C
300C
300C
300C
300C
300C
0000
0000
0000
ENDCHAR
STARTCHAR U+3108
ENCODING 12552
SWIDTH 1000 0
DWIDTH 16 0
BBX 16 16 0 -2
BITMAP
0000
0000
2000
7FFC
6000
6000
6000
6000
6000
6000
6000
6000
7FFC
0000
0000
0000
ENDCHAR
STARTCHAR U+3109
ENCODING 12553
SWIDTH 1000 0
DWIDTH 16 0
BBX 16 16 0 -2
BITMAP
0E00
1C08
31FC
3FFE
0186
0186
030C
070C
0E18
1C18
3830
F0F0
6060
0060
0000
0000
ENDCHAR
STARTCHAR U+310A
ENCODING 12554
SWIDTH 1000 0
DWIDTH 16 0
BBX 16 16 0 -2
BITMAP
0180
01C0
01C0
2184
7FFE
2180
0180
0180
0300
0600
0C30
1FF8
1FFC
0C0C
0000
0000
ENDCHAR
STARTCHAR U+310B
ENCODING 12555
SWIDTH 1000 0
DWIDTH 16 0
BBX 16 16 0 -2
BITMAP
0180
0FC0
0C60
00C0
0180
03F0
0118
0018
0030
0030
0020
0660
03C0
0180
0000
0000
ENDCHAR
STARTCHAR U+310C
ENCODING 12556
SWIDTH 1000 0
DWIDTH 16 0
BBX 16 16 0 -2
BITMAP
0C00
0E60
1C60
30C8
3FFC
1FFE
0306
0306
060C
0C0C
1C18
3830
F070
61E0
00C0
0000
ENDCHAR
STARTCHAR U+310D
ENCODING 12557
SWIDTH 1000 0
DWIDTH 16 0
BBX 16 16 0 -2
BITMAP
0000
0318
0318
0630
0C60
18C0
3180
3180
18C0
0C60
0630
0318
039C
0000
0000
0000
ENDCHAR
STARTCHAR U+310E
ENCODING 12558
SWIDTH 1000 0
DWIDTH 16 0
BBX 16 16 0 -2
BITMAP
0018
7FFC
3F00
0300
0600
0FF0
0FF8
0018
0018
0030
0030
0C60
07C0
0380
0000
0000
ENDCHAR
STARTCHAR U+310F
ENCODING 12559
SWIDTH 1000 0
DWIDTH 16 0
BBX 16 16 0 -2
BITMAP
0004
0FFE
1C00
0C00
0C00
0C00
0C00
0C00
0C00
0C00
0C00
1C00
3800
7000
0000
0000
ENDCHAR
STARTCHAR U+3110
ENCODING 12560
SWIDTH 1000 0
DWIDTH 16 0
BBX 16 16 0 -2
BITMAP
0030
1830
3830
1830
1830
1870
19F0
1FB0
1E30
0830
0030
0030
0030
0070
0020
0000
ENDCHAR
STARTCHAR U+3111
ENCODING 12561
SWIDTH 1000 0
DWIDTH 16 0
BBX 16 16 0 -2
BITMAP
0070
0070
00E0
01C0
0380
0700
0E00
1C00
0E00
0700
0380
01C0
00E0
0070
0000
0000
ENDCHAR
STARTCHAR U+3112
ENCODING 12562
SWIDTH 1000 0
DWIDTH 16 0
BBX 16 16 0 -2
BITMAP
0000
3FFC
3FFC
0180
0180
0180
0180
0180
0180
0180
0180
0180
0180
0180
0000
0000
ENDCHAR
STARTCHAR U+3113
ENCODING 12563
SWIDTH 1000 0
DWIDTH 16 0
BBX 16 16 0 -2
BITMAP
0000
00C0
30C6
18C6
18C6
18C6
18C6
1FFE
00C0
00C0
00C0
00C4
1FFE
0000
0000
0000
ENDCHAR
STARTCHAR U+3114
ENCODING 12564
SWIDTH 1000 0
DWIDTH 16 0
BBX 16 16 0 -2
BITMAP
00E0
0198
033C
0670
1CE0
01C0
03C0
0EC0
0CC0
00C0
00C0
00C0
00C0
01C0
0080
0000
ENDCHAR
STARTCHAR U+3115
ENCODING 12565
SWIDTH 1000 0
DWIDTH 16 0
BBX 16 16 0 -2
BITMAP
0408
0FFC
001C
0018
03F8
07F0
0600
0C00
0C00
1800
1800
3800
7000
6000
0000
0000
ENDCHAR
STARTCHAR U+3116
ENCODING 12566
SWIDTH 1000 0
DWIDTH 16 0
BBX 16 16 0 -2
BITMAP
0008
1FFC
100C
100C
130C
138C
11CC
10CC
100C
100C
100C
1FFC
0018
0000
0000
0000
ENDCHAR
STARTCHAR U+3117
ENCODING 12567
SWIDTH 1000 0
DWIDTH 16 0
BBX 16 16 0 -2
BITMAP
3FF8
0C1C
0C18
0C18
0D18
0DB8
0CF0
0C60
0C00
0C00
0C00
0C00
1C00
0800
0000
0000
ENDCHAR
STARTCHAR U+3118
ENCODING 12568
SWIDTH 1000 0
DWIDTH 16 0
BBX 16 16 0 -2
BITMAP
01C0
01C0
11FC
3FFC
3F80
0300
0670
07F8
0718
0038
0070
00E0
03C0
0380
0000
0000
ENDCHAR
STARTCHAR U+3119
ENCODING 12569
SWIDTH 1000 0
DWIDTH 16 0
BBX 16 16 0 -2
BITMAP
0000
0300
0380
0300
0300
0600
0600
0C20
0C30
1C18
39FC
FFFE
7E0E
6004
0000
0000
ENDCHAR
STARTCHAR U+311A
ENCODING 12570
SWIDTH 1000 0
DWIDTH 16 0
BBX 16 16 0 -2
BITMAP
0000
381C
1818
0C30
0660
03C0
0180
0180
0180
0180
0180
0180
0180
0380
0100
0000
ENDCHAR
STARTCHAR U+311B
ENCODING 12571
SWIDTH 1000 0
DWIDTH 16 0
BBX 16 16 0 -2
BITMAP
0000
3FFC
1FFC
0180
0180
0180
0780
1F00
3800
3000
3018
3838
1FF0
07C0
0000
0000
ENDCHAR
STARTCHAR U+311C
ENCODING 12572
SWIDTH 1000 0
DWIDTH 16 0
BBX 16 16 0 -2
BITMAP
0380
0180
0180
1FFC
3FFC
0180
0180
0780
1F00
3800
300C
300C
1818
0FF0
03C0
0000
ENDCHAR
STARTCHAR U+311D
ENCODING 12573
SWIDTH 1000 0
DWIDTH 16 0
BBX 16 16 0 -2
BITMAP
1860
38E0
1860
1860
FFFC
1860
1860
1860
1860
18E0
1840
1830
0FE0
0000
0000
0000
ENDCHAR
STARTCHAR U+311E
ENCODING 12574
SWIDTH 1000 0
DWIDTH 16 0
BBX 16 16 0 -2
BITMAP
0008
1FFC
0C60
1860
30C0
3FF8
138C
070C
0E0C
1C18
3838
70F0
60E0
0040
0000
0000
ENDCHAR
STARTCHAR U+311F
ENCODING 12575
SWIDTH 1000 0
DWIDTH 16 0
BBX 16 16 0 -2
BITMAP
0000
0600
0F00
1F00
7D80
7180
00C0
00C0
0060
0060
0030
0038
001E
000C
0000
0000
ENDCHAR
STARTCHAR U+3120
ENCODING 12576
SWIDTH 1000 0
DWIDTH 16 0
BBX 16 16 0 -2
BITMAP
0300
0388
071C
3E18
1C30
1C60
0EC0
0780
0710
0E18
1CFC
3FFE
1C0C
0000
0000
0000
ENDCHAR
STARTCHAR U+3121
ENCODING 12577
SWIDTH 1000 0
DWIDTH 16 0
BBX 16 16 0 -2
BITMAP
0000
0018
1FFC
0018
0C30
0660
03C0
0180
03C0
0660
0C30
1818
700E
6006
0000
0000
ENDCHAR
STARTCHAR U+3122
ENCODING 12578
SWIDTH 1000 0
DWIDTH 16 0
BBX 16 16 0 -2
BITMAP
0000
3FF0
0618
0618
0C30
1860
1FF8
000C
000C
0018
0030
0060
01C0
0180
0000
0000
ENDCHAR
STARTCHAR U+3123
ENCODING 12579
SWIDTH 1000 0
DWIDTH 16 0
BBX 16 16 0 -2
BITMAP
0000
0C00
1C00
3000
6018
7FFC
0018
0018
0030
0030
0060
00E0
00C0
0000
0000
0000
ENDCHAR
STARTCHAR U+3124
ENCODING 12580
SWIDTH 1000 0
DWIDTH 16 0
BBX 16 16 0 -2
BITMAP
0180
0380
0180
0180
3FF8
0180
0100
0300
0280
06C0
0CC0
18C0
70C4
607E
0000
0000
ENDCHAR
STARTCHAR U+3125
ENCODING 12581
SWIDTH 1000 0
DWIDTH 16 0
BBX 16 16 0 -2
BITMAP
0000
0000
0000
0080
00C0
0180
0300
0600
0C00
1800
3010
3FF8
0000
0000
0000
0000
ENDCHAR
STARTCHAR U+3126
ENCODING 12582
SWIDTH 1000 0
DWIDTH 16 0
BBX 16 16 0 -2
BITMAP
0000
0080
09C0
08C0
08C0
08C0
08C0
08C0
08C0
08C0
18C0
30C0
607E
0000
0000
0000
ENDCHAR
STARTCHAR U+3127
ENCODING 12583
SWIDTH 1000 0
DWIDTH 16 0
BBX 16 16 0 -2
BITMAP
0000
0000
0000
0000
0000
0000
3FFC
3FFC
0000
0000
0000
0000
0000
0000
0000
0000
ENDCHAR
STARTCHAR U+3128
ENCODING 12584
SWIDTH 1000 0
DWIDTH 16 0
BBX 16 16 0 -2
BITMAP
0000
1008
381C
1830
0C60
06C0
0380
0380
06C0
0C60
1830
701C
600C
0000
0000
0000
ENDCHAR
STARTCHAR U+3129
ENCODING 12585
SWIDTH 1000 0
DWIDTH 16 0
BBX 16 16 0 -2
BITMAP
0000
0000
300C
300C
300C
300C
300C
300C
300C
300C
300C
300C
3FFC
0008
0000
0000
ENDCHAR
STARTCHAR U+32A3
ENCODING 12963
SWIDTH 1000 0
DWIDTH 16 0
BBX 16 16 0 -2
BITMAP
03C0
0C30
1008
2004
2FF4
4082
4082
44E2
4482
2484
2FF4
1008
0C30
03C0
0000
0000
ENDCHAR
STARTCHAR U+338E
ENCODING 13198
SWIDTH 1000 0
DWIDTH 16 0
BBX 16 16 0 -2
BITMAP
0000
0000
0000
0000
D470
7C8A
548A
548C
5488
5470
5460
5498
FE84
0084
0078
0000
ENDCHAR
STARTCHAR U+338F
ENCODING 13199
SWIDTH 1000 0
DWIDTH 16 0
BBX 16 16 0 -2
BITMAP
C000
4000
4000
4000
403A
4F46
4446
4844
5838
6C18
4424
4642
EFC2
0042
003C
0000
ENDCHAR
STARTCHAR U+339C
ENCODING 13212
SWIDTH 1000 0
DWIDTH 16 0
BBX 16 16 0 -2
BITMAP
0000
0000
0000
0000
D4D4
7C7C
5454
5454
5454
5454
5454
5454
FEFE
0000
0000
0000
ENDCHAR
STARTCHAR U+339D
ENCODING 13213
SWIDTH 1000 0
DWIDTH 16 0
BBX 16 16 0 -2
BITMAP
0000
0000
0000
0000
3C54
66FC
C654
C654
C054
C054
C254
6654
3CFE
0000
0000
0000
ENDCHAR
STARTCHAR U+339E
ENCODING 13214
SWIDTH 1000 0
DWIDTH 16 0
BBX 16 16 0 -2
BITMAP
C000
4000
4000
4000
4000
4ED4
447C
4854
5054
6854
4454
4254
E6FE
0000
0000
0000
ENDCHAR
STARTCHAR U+33A1
ENCODING 13217
SWIDTH 1000 0
DWIDTH 16 0
BBX 16 16 0 -2
BITMAP
0038
0044
0008
0010
0020
ED7C
5B00
4900
4900
4900
4900
4900
4900
FF80
0000
0000
ENDCHAR
STARTCHAR U+33C4
ENCODING 13252
SWIDTH 1000 0
DWIDTH 16 0
BBX 16 16 0 -2
BITMAP
0000
0000
0000
0000
3C3C
4646
8282
8282
8080
8080
8080
4242
3C3C
0000
0000
0000
ENDCHAR
STARTCHAR U+33CE
ENCODING 13262
SWIDTH 1000 0
DWIDTH 16 0
BBX 16 16 0 -2
BITMAP
E782
4282
42C6
44C6
48C6
50EE
60AA
50AA
4892
4492
4282
4282
E7C6
0000
0000
0000
ENDCHAR
STARTCHAR U+33D1
ENCODING 13265
SWIDTH 1000 0
DWIDTH 16 0
BBX 16 16 0 -2
BITMAP
E000
6000
6000
6000
6700
6378
638C
630C
630C
630C
630C
630C
F71E
0000
0000
0000
ENDCHAR
STARTCHAR U+33D2
ENCODING 13266
SWIDTH 1000 0
DWIDTH 16 0
BBX 16 16 0 -2
BITMAP
C000
4000
4000
4000
4000
4E1A
5126
5124
5118
5110
513C
5142
EE42
0042
003C
0000
ENDCHAR
STARTCHAR U+33D5
ENCODING 13269
SWIDTH 1000 0
DWIDTH 16 0
BBX 16 16 0 -2
BITMAP
001C
00CC
00CC
000C
D1CC
7CCC
54CC
54CC
54CC
54CC
54CC
54CC
FFFE
0000
0000
0000
ENDCHAR
STARTCHAR U+4E00
ENCODING 19968
SWIDTH 1000 0
DWIDTH 16 0
BBX 16 16 0 -2
BITMAP
0000
0000
0000
0000
0000
0000
0004
FFFE
0000
0000
0000
0000
0000
0000
0000
0000
ENDCHAR
STARTCHAR U+4E01
ENCODING 19969
SWIDTH 1000 0
DWIDTH 16 0
BBX 16 16 0 -2
BITMAP
0004
FFFE
0100
0100
0100
0100
0100
0100
0100
0100
0100
0100
0500
0200
0000
0000
ENDCHAR
STARTCHAR U+4E03
ENCODING 19971
SWIDTH 1000 0
DWIDTH 16 0
BBX 16 16 0 -2
BITMAP
0400
0400
0400
0400
0404
FFFE
0400
0400
0400
0400
0400
0400
0400
03FC
0000
0000
ENDCHAR
STARTCHAR U+4E07
ENCODING 19975
SWIDTH 1000 0
DWIDTH 16 0
BBX 16 16 0 -2
BITMAP
0004
FFFE
0800
0800
0FF8
0808
0808
0808
1008
2008
4008
8010
0120
00C0
0000
0000
ENDCHAR
STARTCHAR U+4E08
ENCODING 19976
SWIDTH 1000 0
DWIDTH 16 0
BBX 16 16 0 -2
BITMAP
0040
0040
0044
FFFE
0040
0840
0840
0440
0280
0100
0280
0460
181E
E004
0000
0000
ENDCHAR
STARTCHAR U+4E09
ENCODING 19977
SWIDTH 1000 0
DWIDTH 16 0
BBX 16 16 0 -2
BITMAP
0000
0008
7FFC
0000
0000
0000
0010
3FF8
0000
0000
0000
0004
FFFE
0000
0000
0000
ENDCHAR
STARTCHAR U+4E0A
ENCODING 19978
SWIDTH 1000 0
DWIDTH 16 0
BBX 16 16 0 -2
BITMAP
0100
0100
0100
0100
0110
01F8
0100
0100
0100
0100
0100
0100
0104
FFFE
0000
0000
ENDCHAR
STARTCHAR U+4E0B
ENCODING 19979
SWIDTH 1000 0
DWIDTH 16 0
BBX 16 16 0 -2
BITMAP
0004
FFFE
0200
0200
0280
0240
0230
0210
0200
0200
0200
0200
0200
0200
0000
0000
ENDCHAR
STARTCHAR U+4E0C
ENCODING 19980
SWIDTH 1000 0
DWIDTH 16 0
BBX 16 16 0 -2
BITMAP
0004
FFFE
0820
0820
0820
0820
0820
0820
0820
0820
1020
2020
4020
0020
0000
0000
ENDCHAR
STARTCHAR U+4E0D
ENCODING 19981
SWIDTH 1000 0
DWIDTH 16 0
BBX 16 16 0 -2
BITMAP
0004
FFFE
0080
0100
0100
0340
0520
0918
110C
2104
4100
0100
0100
0100
0000
0000
ENDCHAR
STARTCHAR U+4E0E
ENCODING 19982
SWIDTH 1000 0
DWIDTH 16 0
BBX 16 16 0 -2
BITMAP
4000
4000
7FF8
4000
8000
FFFE
0002
0002
0042
FFE2
0004
0008
0090
0060
0000
0000
ENDCHAR
STARTCHAR U+4E0F
ENCODING 19983
SWIDTH 1000 0
DWIDTH 16 0
BBX 16 16 0 -2
BITMAP
0004
FFFE
0100
0100
21F8
2108
2108
2108
3FF8
0008
0008
0010
0120
00C0
0000
0000
ENDCHAR
STARTCHAR U+4E10
ENCODING 19984
SWIDTH 1000 0
DWIDTH 16 0
BBX 16 16 0 -2
BITMAP
0004
FFFE
0100
0110
21F8
2100
2104
3FFE
0004
0004
0004
0004
0098
0060
0000
0000
ENDCHAR
STARTCHAR U+4E11
ENCODING 19985
SWIDTH 1000 0
DWIDTH 16 0
BBX 16 16 0 -2
BITMAP
0020
3FF0
0420
0420
0420
0420
0424
FFFE
0840
0840
0840
0840
0848
7FFC
0000
0000
ENDCHAR
STARTCHAR U+4E14
ENCODING 19988
SWIDTH 1000 0
DWIDTH 16 0
BBX 16 16 0 -2
BITMAP
0000
1FE0
1020
1020
1020
1FE0
1020
1020
1FE0
1020
1020
1020
1024
FFFE
0000
0000
ENDCHAR
STARTCHAR U+4E15
ENCODING 19989
SWIDTH 1000 0
DWIDTH 16 0
BBX 16 16 0 -2
BITMAP
0008
7FFC
0080
0100
0300
0560
0910
1108
2104
4104
0100
0100
0104
FFFE
0000
0000
ENDCHAR
STARTCHAR U+4E16
ENCODING 19990
SWIDTH 1000 0
DWIDTH 16 0
BBX 16 16 0 -2
BITMAP
0110
2110
2110
2110
FFFE
2110
2110
2110
2110
21F0
2110
2000
2000
1FFC
0000
0000
ENDCHAR
STARTCHAR U+4E18
ENCODING 19992
SWIDTH 1000 0
DWIDTH 16 0
BBX 16 16 0 -2
BITMAP
0020
0070
0180
1E00
1000
1010
1FF8
1040
1040
1040
1040
1040
1044
FFFE
0000
0000
ENDCHAR
STARTCHAR U+4E19
ENCODING 19993
SWIDTH 1000 0
DWIDTH 16 0
BBX 16 16 0 -2
BITMAP
0004
FFFE
0100
0100
0104
7FFE
4104
4184
4244
4424
4824
4004
4014
4008
0000
0000
ENDCHAR
STARTCHAR U+4E1E
ENCODING 19998
SWIDTH 1000 0
DWIDTH 16 0
BBX 16 16 0 -2
BITMAP
0020
3FF0
0040
0080
0108
7D18
05E0
0920
1110
110E
2104
4500
0204
FFFE
0000
0000
ENDCHAR
STARTCHAR U+4E1F
ENCODING 19999
SWIDTH 1000 0
DWIDTH 16 0
BBX 16 16 0 -2
BITMAP
0008
7FFC
0100
0110
3FF8
0100
0104
FFFE
0800
1000
2010
4008
FFFC
4004
0000
0000
ENDCHAR
STARTCHAR U+4E26
ENCODING 20006
SWIDTH 1000 0
DWIDTH 16 0
BBX 16 16 0 -2
BITMAP
1010
0820
0440
7FFC
0440
0440
0440
2448
1450
0C60
0440
0440
0440
FFFE
0000
0000
ENDCHAR
STARTCHAR U+4E2B
ENCODING 20011
SWIDTH 1000 0
DWIDTH 16 0
BBX 16 16 0 -2
BITMAP
2010
1030
0C40
0480
0100
0100
0100
0100
0100
0100
0100
0100
0100
0100
0000
0000
ENDCHAR
STARTCHAR U+4E2D
ENCODING 20013
SWIDTH 1000 0
DWIDTH 16 0
BBX 16 16 0 -2
BITMAP
0100
0100
0104
7FFE
4104
4104
4104
7FFC
4104
0100
0100
0100
0100
0100
0000
0000
ENDCHAR
STARTCHAR U+4E2E
ENCODING 20014
SWIDTH 1000 0
DWIDTH 16 0
BBX 16 16 0 -2
BITMAP
0008
7FFC
0008
0208
0208
3FE8
0208
0208
0208
3FE8
020A
020A
0206
0202
0000
0000
ENDCHAR
STARTCHAR U+4E30
ENCODING 20016
SWIDTH 1000 0
DWIDTH 16 0
BBX 16 16 0 -2
BITMAP
0100
0120
01F0
3F00
0100
0110
3FF8
0100
0104
FFFE
0100
0100
0100
0100
0000
0000
ENDCHAR
STARTCHAR U+4E31
ENCODING 20017
SWIDTH 1000 0
DWIDTH 16 0
BBX 16 16 0 -2
BITMAP
0440
0440
8442
8442
8442
8442
8442
FC7E
0440
0440
0840
1040
2040
4040
0000
0000
ENDCHAR
STARTCHAR U+4E32
ENCODING 20018
SWIDTH 1000 0
DWIDTH 16 0
BBX 16 16 0 -2
BITMAP
0100
0108
3FFC
2108
2108
3FF8
0100
7FFE
4104
4104
7FFC
0100
0100
0100
0000
0000
ENDCHAR
STARTCHAR U+4E33
ENCODING 20019
SWIDTH 1000 0
DWIDTH 16 0
BBX 16 16 0 -2
BITMAP
0440
0440
3FF8
2448
2448
3FF8
0440
7FFC
4444
4444
7FFC
0840
1040
2040
0000
0000
ENDCHAR
STARTCHAR U+4E38
ENCODING 20024
SWIDTH 1000 0
DWIDTH 16 0
BBX 16 16 0 -2
BITMAP
0200
0200
0220
7FF0
0220
0220
0220
0520
05A0
04A2
0822
0822
301E
C000
0000
0000
ENDCHAR
STARTCHAR U+4E39
ENCODING 20025
SWIDTH 1000 0
DWIDTH 16 0
BBX 16 16 0 -2
BITMAP
0010
1FF8
1010
1210
1110
1110
1010
FFFE
1010
1010
1010
1010
2050
4020
0000
0000
ENDCHAR
STARTCHAR U+4E3B
ENCODING 20027
SWIDTH 1000 0
DWIDTH 16 0
BBX 16 16 0 -2
BITMAP
0200
0100
0108
7FFC
0100
0100
0100
0110
3FF8
0100
0100
0100
0104
FFFE
0000
0000
ENDCHAR
STARTCHAR U+4E3C
ENCODING 20028
SWIDTH 1000 0
DWIDTH 16 0
BBX 16 16 0 -2
BITMAP
0820
0820
0820
7FFC
0A20
0920
08A0
0820
FFFE
0820
0820
1020
2020
4020
0000
0000
ENDCHAR
STARTCHAR U+4E42
ENCODING 20034
SWIDTH 1000 0
DWIDTH 16 0
BBX 16 16 0 -2
BITMAP
0008
0008
4008
2008
1010
0820
0440
0280
0100
0280
0440
0820
1010
E00E
0000
0000
ENDCHAR
STARTCHAR U+4E43
ENCODING 20035
SWIDTH 1000 0
DWIDTH 16 0
BBX 16 16 0 -2
BITMAP
0020
7FF0
0820
0840
0884
08FE
0804
0804
1004
1004
2004
4088
8050
0020
0000
0000
ENDCHAR
STARTCHAR U+4E45
ENCODING 20037
SWIDTH 1000 0
DWIDTH 16 0
BBX 16 16 0 -2
BITMAP
0400
0420
07F0
0820
1020
2040
0040
0080
0140
0220
0420
0810
300E
C004
0000
0000
ENDCHAR
STARTCHAR U+4E47
ENCODING 20039
SWIDTH 1000 0
DWIDTH 16 0
BBX 16 16 0 -2
BITMAP
0010
03F8
7E00
0200
0200
0208
FFFC
0200
0200
0200
0200
0202
0202
01FE
0000
0000
ENDCHAR
STARTCHAR U+4E48
ENCODING 20040
SWIDTH 1000 0
DWIDTH 16 0
BBX 16 16 0 -2
BITMAP
0100
0200
0400
0800
1020
2040
C080
0100
0200
0400
0810
1008
FFFC
0002
0000
0000
ENDCHAR
STARTCHAR U+4E4B
ENCODING 20043
SWIDTH 1000 0
DWIDTH 16 0
BBX 16 16 0 -2
BITMAP
0200
0100
0010
7FF8
0020
0040
0080
0100
0200
0C00
3000
4800
07FE
0000
0000
0000
ENDCHAR
STARTCHAR U+4E4D
ENCODING 20045
SWIDTH 1000 0
DWIDTH 16 0
BBX 16 16 0 -2
BITMAP
0800
0804
0FFE
1200
2210
43F8
8200
0200
0208
03FC
0200
0200
0200
0200
0000
0000
ENDCHAR
STARTCHAR U+4E4E
ENCODING 20046
SWIDTH 1000 0
DWIDTH 16 0
BBX 16 16 0 -2
BITMAP
0018
3FE0
0100
1110
0D30
0540
0104
FFFE
0100
0100
0100
0100
0500
0200
0000
0000
ENDCHAR
STARTCHAR U+4E4F
ENCODING 20047
SWIDTH 1000 0
DWIDTH 16 0
BBX 16 16 0 -2
BITMAP
0018
7FE0
0200
0180
0080
3FF8
0010
0060
0180
0600
0800
3000
4800
07FE
0000
0000
ENDCHAR
STARTCHAR U+4E52
ENCODING 20050
SWIDTH 1000 0
DWIDTH 16 0
BBX 16 16 0 -2
BITMAP
0030
0FC0
0800
0808
0FFC
0820
0820
0824
FFFE
0000
0200
0600
0800
1000
0000
0000
ENDCHAR
STARTCHAR U+4E53
ENCODING 20051
SWIDTH 1000 0
DWIDTH 16 0
BBX 16 16 0 -2
BITMAP
0030
0FC0
0800
0808
0FFC
0820
0820
0824
FFFE
0000
0040
0030
0018
0008
0000
0000
ENDCHAR
STARTCHAR U+4E56
ENCODING 20054
SWIDTH 1000 0
DWIDTH 16 0
BBX 16 16 0 -2
BITMAP
0030
1FC0
0100
0104
FFFE
0100
0920
0920
793E
0920
3920
C91E
0100
0100
0000
0000
ENDCHAR
STARTCHAR U+4E58
ENCODING 20056
SWIDTH 1000 0
DWIDTH 16 0
BBX 16 16 0 -2
BITMAP
0030
1FC0
0104
FFFE
0540
3D7C
0540
0D40
73BC
0540
0920
1110
610C
0100
0000
0000
ENDCHAR
STARTCHAR U+4E59
ENCODING 20057
SWIDTH 1000 0
DWIDTH 16 0
BBX 16 16 0 -2
BITMAP
0000
7FF0
0020
0040
0080
0100
0200
0400
0800
1000
2000
4004
4004
3FFC
0000
0000
ENDCHAR
STARTCHAR U+4E5C
ENCODING 20060
SWIDTH 1000 0
DWIDTH 16 0
BBX 16 16 0 -2
BITMAP
2000
2000
2000
2000
FFFC
2008
2010
2020
2040
2000
2002
2002
2002
3FFE
0000
0000
ENDCHAR
STARTCHAR U+4E5D
ENCODING 20061
SWIDTH 1000 0
DWIDTH 16 0
BBX 16 16 0 -2
BITMAP
0800
0800
0840
FFE0
0840
0840
0840
0840
0840
0840
1040
1042
2042
C03E
0000
0000
ENDCHAR
STARTCHAR U+4E5E
ENCODING 20062
SWIDTH 1000 0
DWIDTH 16 0
BBX 16 16 0 -2
BITMAP
0800
1008
1FFC
2000
4020
9FF0
0040
0080
0100
0200
0402
0802
1002
0FFE
0000
0000
ENDCHAR
STARTCHAR U+4E5F
ENCODING 20063
SWIDTH 1000 0
DWIDTH 16 0
BBX 16 16 0 -2
BITMAP
0100
0108
111C
11E8
1708
3908
D110
1120
1100
1100
1102
1002
1002
0FFE
0000
0000
ENDCHAR
STARTCHAR U+4E69
ENCODING 20073
SWIDTH 1000 0
DWIDTH 16 0
BBX 16 16 0 -2
BITMAP
1040
1040
1240
1F40
1040
1040
1240
7F40
4240
4240
4242
4242
7E42
423E
0000
0000
ENDCHAR
STARTCHAR U+4E73
ENCODING 20083
SWIDTH 1000 0
DWIDTH 16 0
BBX 16 16 0 -2
BITMAP
0640
F840
4940
2940
2240
FF40
0240
0C40
0B40
1C40
E840
0842
2842
103E
0000
0000
ENDCHAR
STARTCHAR U+4E7E
ENCODING 20094
SWIDTH 1000 0
DWIDTH 16 0
BBX 16 16 0 -2
BITMAP
1040
FE84
10FE
1100
7D00
46F8
7C10
4420
7C40
1040
FE82
1082
107E
1000
0000
0000
ENDCHAR
STARTCHAR U+4E7F
ENCODING 20095
SWIDTH 1000 0
DWIDTH 16 0
BBX 16 16 0 -2
BITMAP
0220
FCA0
89A0
4A20
1020
2120
7E20
04A0
7FA0
2A20
4920
88A2
0822
081E
0000
0000
ENDCHAR
STARTCHAR U+4E82
ENCODING 20098
SWIDTH 1000 0
DWIDTH 16 0
BBX 16 16 0 -2
BITMAP
0220
7C20
8920
4920
3E20
1C20
FFA0
A2A0
BEA0
BEA2
94A2
88A2
94A2
A31E
0000
0000
ENDCHAR
STARTCHAR U+4E83
ENCODING 20099
SWIDTH 1000 0
DWIDTH 16 0
BBX 16 16 0 -2
BITMAP
4920
2920
2A20
FFA0
2A20
4920
0920
2120
77A0
9520
67A0
4122
8122
013E
0000
0000
ENDCHAR
STARTCHAR U+4E84
ENCODING 20100
SWIDTH 1000 0
DWIDTH 16 0
BBX 16 16 0 -2
BITMAP
0820
FFA0
0820
7F20
0020
FFA0
80A0
BEA0
0020
7F20
4120
7F22
2222
FFBE
0000
0000
ENDCHAR
STARTCHAR U+4E86
ENCODING 20102
SWIDTH 1000 0
DWIDTH 16 0
BBX 16 16 0 -2
BITMAP
0004
FFFE
0010
0020
0040
0180
0080
0080
0080
0080
0080
0480
0280
0100
0000
0000
ENDCHAR
STARTCHAR U+4E88
ENCODING 20104
SWIDTH 1000 0
DWIDTH 16 0
BBX 16 16 0 -2
BITMAP
0020
3FF0
0040
0280
0184
FFFE
0104
0108
0100
0100
0100
0100
0500
0200
0000
0000
ENDCHAR
STARTCHAR U+4E8B
ENCODING 20107
SWIDTH 1000 0
DWIDTH 16 0
BBX 16 16 0 -2
BITMAP
0100
FFFE
0100
3FF8
2108
3FF8
0100
3FF8
0108
FFFE
0108
3FF8
0100
0700
0000
0000
ENDCHAR
STARTCHAR U+4E8C
ENCODING 20108
SWIDTH 1000 0
DWIDTH 16 0
BBX 16 16 0 -2
BITMAP
0000
0000
0010
3FF8
0000
0000
0000
0000
0000
0000
0000
0004
FFFE
0000
0000
0000
ENDCHAR
STARTCHAR U+4E8D
ENCODING 20109
SWIDTH 1000 0
DWIDTH 16 0
BBX 16 16 0 -2
BITMAP
0010
3FF8
0000
0004
FFFE
0100
0100
0100
0100
0100
0100
0100
0500
0200
0000
0000
ENDCHAR
STARTCHAR U+4E8E
ENCODING 20110
SWIDTH 1000 0
DWIDTH 16 0
BBX 16 16 0 -2
BITMAP
0010
3FF8
0100
0100
0104
FFFE
0100
0100
0100
0100
0100
0100
0500
0200
0000
0000
ENDCHAR
STARTCHAR U+4E91
ENCODING 20113
SWIDTH 1000 0
DWIDTH 16 0
BBX 16 16 0 -2
BITMAP
0020
1FF0
0000
0000
0004
FFFE
0200
0400
0420
0810
1008
7FFC
2002
0002
0000
0000
ENDCHAR
STARTCHAR U+4E92
ENCODING 20114
SWIDTH 1000 0
DWIDTH 16 0
BBX 16 16 0 -2
BITMAP
0008
7FFC
0800
0800
0820
0FF0
0820
0820
1020
3FE0
1040
0080
0084
FFFE
0000
0000
ENDCHAR
STARTCHAR U+4E93
ENCODING 20115
SWIDTH 1000 0
DWIDTH 16 0
BBX 16 16 0 -2
BITMAP
0010
3FF8
0000
0004
FFFE
0440
0440
0440
0440
0440
0840
0840
1040
2040
0000
0000
ENDCHAR
STARTCHAR U+4E94
ENCODING 20116
SWIDTH 1000 0
DWIDTH 16 0
BBX 16 16 0 -2
BITMAP
0008
7FFC
0200
0200
0200
0210
3FF8
0410
0410
0410
0810
0810
0810
FFFE
0000
0000
ENDCHAR
STARTCHAR U+4E95
ENCODING 20117
SWIDTH 1000 0
DWIDTH 16 0
BBX 16 16 0 -2
BITMAP
0820
0820
0820
7FFC
0820
0820
0824
FFFE
0820
0820
1020
1020
2020
4020
0000
0000
ENDCHAR
STARTCHAR U+4E99
ENCODING 20121
SWIDTH 1000 0
DWIDTH 16 0
BBX 16 16 0 -2
BITMAP
0008
7FFC
0400
0400
07F8
0A10
0910
0890
0A10
0910
1090
0020
0044
FFFE
0000
0000
ENDCHAR
STARTCHAR U+4E9B
ENCODING 20123
SWIDTH 1000 0
DWIDTH 16 0
BBX 16 16 0 -2
BITMAP
0440
0440
2440
277C
2440
2442
2742
FC3E
4000
0020
1FF0
0000
0008
7FFC
0000
0000
ENDCHAR
STARTCHAR U+4E9E
ENCODING 20126
SWIDTH 1000 0
DWIDTH 16 0
BBX 16 16 0 -2
BITMAP
0008
7FFC
0440
0440
0440
7C7C
4004
4004
4004
7C7C
0440
0440
0440
FFFE
0000
0000
ENDCHAR
STARTCHAR U+4E9F
ENCODING 20127
SWIDTH 1000 0
DWIDTH 16 0
BBX 16 16 0 -2
BITMAP
0008
7FFC
0400
0408
0F7C
0108
3D48
2528
2510
3D6C
0100
0100
0604
FFFE
0000
0000
ENDCHAR
STARTCHAR U+4EA1
ENCODING 20129
SWIDTH 1000 0
DWIDTH 16 0
BBX 16 16 0 -2
BITMAP
0200
0100
0100
0004
FFFE
1000
1000
1000
1000
1000
1000
1000
1008
0FFC
0000
0000
ENDCHAR
STARTCHAR U+4EA2
ENCODING 20130
SWIDTH 1000 0
DWIDTH 16 0
BBX 16 16 0 -2
BITMAP
0200
0104
FFFE
0000
0020
0FF0
0820
0820
0820
0820
1022
1022
2022
401E
0000
0000
ENDCHAR
STARTCHAR U+4EA4
ENCODING 20132
SWIDTH 1000 0
DWIDTH 16 0
BBX 16 16 0 -2
BITMAP
0100
0104
FFFE
0810
100C
2824
4440
0280
0100
0280
0440
0830
300E
C004
0000
0000
ENDCHAR
STARTCHAR U+4EA5
ENCODING 20133
SWIDTH 1000 0
DWIDTH 16 0
BBX 16 16 0 -2
BITMAP
0200
0104
FFFE
0200
0460
0880
1F10
0230
0440
08C0
3120
0610
180C
6004
0000
0000
ENDCHAR
STARTCHAR U+4EA6
ENCODING 20134
SWIDTH 1000 0
DWIDTH 16 0
BBX 16 16 0 -2
BITMAP
0200
0100
0104
FFFE
0440
0440
1450
1448
2444
4444
0440
0840
1140
0080
0000
0000
ENDCHAR
STARTCHAR U+4EA8
ENCODING 20136
SWIDTH 1000 0
DWIDTH 16 0
BBX 16 16 0 -2
BITMAP
0200
0108
FFFC
0000
1FF0
1010
1FF0
0000
7FF8
0060
0080
0880
0480
0300
0000
0000
ENDCHAR
STARTCHAR U+4EAB
ENCODING 20139
SWIDTH 1000 0
DWIDTH 16 0
BBX 16 16 0 -2
BITMAP
0100
7FFC
0000
1FF0
1010
1FF0
0000
1FF0
0040
0080
7FFE
0080
0480
0300
0000
0000
ENDCHAR
STARTCHAR U+4EAC
ENCODING 20140
SWIDTH 1000 0
DWIDTH 16 0
BBX 16 16 0 -2
BITMAP
0200
0104
FFFE
0000
1FF0
1010
1010
1FF0
0100
0920
1918
210C
4504
0200
0000
0000
ENDCHAR
STARTCHAR U+4EAD
ENCODING 20141
SWIDTH 1000 0
DWIDTH 16 0
BBX 16 16 0 -2
BITMAP
0200
0108
7FFC
1FF0
1010
1FF0
0000
7FFE
4002
9FF4
0100
0100
0500
0200
0000
0000
ENDCHAR
STARTCHAR U+4EAE
ENCODING 20142
SWIDTH 1000 0
DWIDTH 16 0
BBX 16 16 0 -2
BITMAP
0100
7FFC
0000
1FF0
1010
1FF0
0000
7FFE
4002
8440
0440
0442
1842
603E
0000
0000
ENDCHAR
STARTCHAR U+4EB3
ENCODING 20147
SWIDTH 1000 0
DWIDTH 16 0
BBX 16 16 0 -2
BITMAP
0100
FFFE
0000
1FF0
1010
1FF0
0000
FFFE
8012
9FE2
0100
3FF8
0102
01FE
0000
0000
ENDCHAR
STARTCHAR U+4EB6
ENCODING 20150
SWIDTH 1000 0
DWIDTH 16 0
BBX 16 16 0 -2
BITMAP
0100
FFFE
3FF8
27C8
2448
27C8
3FF8
0000
1FF0
1010
1FF0
1FF0
1010
FFFE
0000
0000
ENDCHAR
STARTCHAR U+4EB9
ENCODING 20153
SWIDTH 1000 0
DWIDTH 16 0
BBX 16 16 0 -2
BITMAP
0100
FFFE
27C0
745C
47C4
775C
4544
FFFE
8002
9FF2
1010
1FD0
1FD0
7FFC
0000
0000
ENDCHAR
STARTCHAR U+4EBA
ENCODING 20154
SWIDTH 1000 0
DWIDTH 16 0
BBX 16 16 0 -2
BITMAP
0100
0100
0100
0100
0100
0100
0280
0280
0440
0440
0820
1010
200E
4004
0000
0000
ENDCHAR
STARTCHAR U+4EC0
ENCODING 20160
SWIDTH 1000 0
DWIDTH 16 0
BBX 16 16 0 -2
BITMAP
0840
0840
1040
1040
3044
5FFE
9040
1040
1040
1040
1040
1040
1040
1040
0000
0000
ENDCHAR
STARTCHAR U+4EC1
ENCODING 20161
SWIDTH 1000 0
DWIDTH 16 0
BBX 16 16 0 -2
BITMAP
0800
0808
17FC
1000
3000
5000
9000
1000
1000
1004
1FFE
1000
1000
1000
0000
0000
ENDCHAR
STARTCHAR U+4EC2
ENCODING 20162
SWIDTH 1000 0
DWIDTH 16 0
BBX 16 16 0 -2
BITMAP
0880
0880
0880
1084
17FE
3084
5084
9084
1084
1104
1104
1248
1428
1810
0000
0000
ENDCHAR
STARTCHAR U+4EC3
ENCODING 20163
SWIDTH 1000 0
DWIDTH 16 0
BBX 16 16 0 -2
BITMAP
0800
0804
0BFE
1020
1020
3020
5020
9020
1020
1020
1020
1120
10A0
1040
0000
0000
ENDCHAR
STARTCHAR U+4EC4
ENCODING 20164
SWIDTH 1000 0
DWIDTH 16 0
BBX 16 16 0 -2
BITMAP
0008
3FFC
2000
2080
2080
2080
2080
2140
2220
2220
4410
4808
900E
2004
0000
0000
ENDCHAR
STARTCHAR U+4EC6
ENCODING 20166
SWIDTH 1000 0
DWIDTH 16 0
BBX 16 16 0 -2
BITMAP
0440
0440
0840
0840
1050
304C
5046
9042
1040
1040
1040
1040
1040
1040
0000
0000
ENDCHAR
STARTCHAR U+4EC7
ENCODING 20167
SWIDTH 1000 0
DWIDTH 16 0
BBX 16 16 0 -2
BITMAP
0900
0900
1110
17F8
3110
5110
9110
1110
1110
1210
1212
1412
180E
1000
0000
0000
ENDCHAR
STARTCHAR U+4EC8
ENCODING 20168
SWIDTH 1000 0
DWIDTH 16 0
BBX 16 16 0 -2
BITMAP
0800
0800
10F0
2010
6010
A110
2110
2110
2110
2110
2208
2404
2802
2000
0000
0000
ENDCHAR
STARTCHAR U+4EC9
ENCODING 20169
SWIDTH 1000 0
DWIDTH 16 0
BBX 16 16 0 -2
BITMAP
0800
0810
09F8
1110
3110
5110
9110
1110
1110
1110
1212
1212
1412
180E
0000
0000
ENDCHAR
STARTCHAR U+4ECA
ENCODING 20170
SWIDTH 1000 0
DWIDTH 16 0
BBX 16 16 0 -2
BITMAP
0100
0280
0440
0820
1010
2FEE
C004
0000
1FF0
0010
0020
0040
0080
0100
0000
0000
ENDCHAR
STARTCHAR U+4ECB
ENCODING 20171
SWIDTH 1000 0
DWIDTH 16 0
BBX 16 16 0 -2
BITMAP
0100
0280
0440
0820
1010
244E
C444
0440
0440
0840
0840
0840
1040
2040
0000
0000
ENDCHAR
STARTCHAR U+4ECD
ENCODING 20173
SWIDTH 1000 0
DWIDTH 16 0
BBX 16 16 0 -2
BITMAP
1000
1008
27FC
2108
6110
A124
213E
2104
2104
2204
2204
2444
2428
2810
0000
0000
ENDCHAR
STARTCHAR U+4ED4
ENCODING 20180
SWIDTH 1000 0
DWIDTH 16 0
BBX 16 16 0 -2
BITMAP
0BFC
0808
1010
1020
3040
5044
9FFE
1020
1020
1020
1020
1020
1140
1080
0000
0000
ENDCHAR
STARTCHAR U+4ED5
ENCODING 20181
SWIDTH 1000 0
DWIDTH 16 0
BBX 16 16 0 -2
BITMAP
0840
0840
1040
1044
37FE
5040
9040
1040
1040
1040
1048
13FC
1000
1000
0000
0000
ENDCHAR
STARTCHAR U+4ED6
ENCODING 20182
SWIDTH 1000 0
DWIDTH 16 0
BBX 16 16 0 -2
BITMAP
0840
0840
1040
1248
327C
53C8
9E48
1248
1250
1240
1242
1202
11FE
1000
0000
0000
ENDCHAR
STARTCHAR U+4ED7
ENCODING 20183
SWIDTH 1000 0
DWIDTH 16 0
BBX 16 16 0 -2
BITMAP
0820
0820
1024
17FE
3020
5120
9120
10A0
10A0
1040
1060
1090
110E
1604
0000
0000
ENDCHAR
STARTCHAR U+4ED8
ENCODING 20184
SWIDTH 1000 0
DWIDTH 16 0
BBX 16 16 0 -2
BITMAP
0810
0810
1010
1010
37FE
5010
9010
1110
1090
1090
1010
1010
1050
1020
0000
0000
ENDCHAR
STARTCHAR U+4ED9
ENCODING 20185
SWIDTH 1000 0
DWIDTH 16 0
BBX 16 16 0 -2
BITMAP
1040
1040
2040
2444
6444
A444
2444
2444
2444
2444
2444
27FC
2404
2000
0000
0000
ENDCHAR
STARTCHAR U+4EDA
ENCODING 20186
SWIDTH 1000 0
DWIDTH 16 0
BBX 16 16 0 -2
BITMAP
0080
0100
0280
0440
0820
1110
2108
C106
2108
2108
2108
2108
3FF8
2008
0000
0000
ENDCHAR
STARTCHAR U+4EDC
ENCODING 20188
SWIDTH 1000 0
DWIDTH 16 0
BBX 16 16 0 -2
BITMAP
0800
0800
1008
27FC
C040
2040
2040
2040
2040
2040
2040
2044
2FFE
2000
0000
0000
ENDCHAR
STARTCHAR U+4EDD
ENCODING 20189
SWIDTH 1000 0
DWIDTH 16 0
BBX 16 16 0 -2
BITMAP
0100
0280
0440
0820
1010
200E
C024
1FF0
0100
0100
0100
0100
0108
7FFC
0000
0000
ENDCHAR
STARTCHAR U+4EDE
ENCODING 20190
SWIDTH 1000 0
DWIDTH 16 0
BBX 16 16 0 -2
BITMAP
0800
0804
0FFE
1044
3044
5244
9144
1144
1084
1084
1104
1204
1428
1810
0000
0000
ENDCHAR
STARTCHAR U+4EDF
ENCODING 20191
SWIDTH 1000 0
DWIDTH 16 0
BBX 16 16 0 -2
BITMAP
0810
0838
0BC0
1040
3040
5044
9FFE
1040
1040
1040
1040
1040
1040
1040
0000
0000
ENDCHAR
STARTCHAR U+4EE1
ENCODING 20193
SWIDTH 1000 0
DWIDTH 16 0
BBX 16 16 0 -2
BITMAP
1200
1204
13FE
2400
69FC
A008
2010
2020
2040
2080
2102
2202
2202
21FE
0000
0000
ENDCHAR
STARTCHAR U+4EE3
ENCODING 20195
SWIDTH 1000 0
DWIDTH 16 0
BBX 16 16 0 -2
BITMAP
0880
08A0
0890
1090
1084
30FE
5F80
9040
1040
1020
1012
1012
100A
1006
0000
0000
ENDCHAR
STARTCHAR U+4EE4
ENCODING 20196
SWIDTH 1000 0
DWIDTH 16 0
BBX 16 16 0 -2
BITMAP
0100
0280
0440
0820
1010
2FEE
C004
1FF0
0010
0020
0440
0280
0100
0080
0000
0000
ENDCHAR
STARTCHAR U+4EE5
ENCODING 20197
SWIDTH 1000 0
DWIDTH 16 0
BBX 16 16 0 -2
BITMAP
0010
2010
2010
2010
2210
2110
2190
2090
2410
2820
3030
6048
C18C
8606
0000
0000
ENDCHAR
STARTCHAR U+4EE8
ENCODING 20200
SWIDTH 1000 0
DWIDTH 16 0
BBX 16 16 0 -2
BITMAP
0800
0808
0BFC
1000
3000
5008
93FC
1000
1000
1000
1004
1FFE
1000
1000
0000
0000
ENDCHAR
STARTCHAR U+4EE9
ENCODING 20201
SWIDTH 1000 0
DWIDTH 16 0
BBX 16 16 0 -2
BITMAP
0800
0880
1080
2080
6080
A088
20FC
2080
2080
2080
2080
2080
2084
2FFE
0000
0000
ENDCHAR
STARTCHAR U+4EF0
ENCODING 20208
SWIDTH 1000 0
DWIDTH 16 0
BBX 16 16 0 -2
BITMAP
0880
0904
127E
1444
2444
6444
A444
2444
2544
2654
2448
2040
2040
2040
0000
0000
ENDCHAR
STARTCHAR U+4EF1
ENCODING 20209
SWIDTH 1000 0
DWIDTH 16 0
BBX 16 16 0 -2
BITMAP
1040
10A0
2110
4208
8404
4BFA
5000
4000
47FC
4004
4008
4010
4020
4040
0000
0000
ENDCHAR
STARTCHAR U+4EF2
ENCODING 20210
SWIDTH 1000 0
DWIDTH 16 0
BBX 16 16 0 -2
BITMAP
0840
0840
1044
17FE
3444
5444
9444
1444
17FC
1444
1040
1040
1040
1040
0000
0000
ENDCHAR
STARTCHAR U+4EF3
ENCODING 20211
SWIDTH 1000 0
DWIDTH 16 0
BBX 16 16 0 -2
BITMAP
0820
0A20
1220
1220
3220
53BE
9220
1220
1220
1260
12A2
1322
121E
1000
0000
0000
ENDCHAR
STARTCHAR U+4EF4
ENCODING 20212
SWIDTH 1000 0
DWIDTH 16 0
BBX 16 16 0 -2
BITMAP
0804
11FE
2104
E104
21FC
2104
2104
21FC
2104
2104
2104
2104
2214
2008
0000
0000
ENDCHAR
STARTCHAR U+4EF5
ENCODING 20213
SWIDTH 1000 0
DWIDTH 16 0
BBX 16 16 0 -2
BITMAP
0900
0908
13FC
1240
3440
5040
9044
1FFE
1040
1040
1040
1040
1040
1040
0000
0000
ENDCHAR
STARTCHAR U+4EF6
ENCODING 20214
SWIDTH 1000 0
DWIDTH 16 0
BBX 16 16 0 -2
BITMAP
1040
1240
2248
23FC
6440
A440
2840
2044
3FFE
2040
2040
2040
2040
2040
0000
0000
ENDCHAR
STARTCHAR U+4EF7
ENCODING 20215
SWIDTH 1000 0
DWIDTH 16 0
BBX 16 16 0 -2
BITMAP
1040
20A0
4110
8208
4404
4912
4110
4110
4110
4110
4110
4210
4410
4010
0000
0000
ENDCHAR
STARTCHAR U+4EFB
ENCODING 20219
SWIDTH 1000 0
DWIDTH 16 0
BBX 16 16 0 -2
BITMAP
0800
0810
0BF8
1040
3040
5044
9FFE
1040
1040
1040
1048
17FC
1000
1000
0000
0000
ENDCHAR
STARTCHAR U+4EFD
ENCODING 20221
SWIDTH 1000 0
DWIDTH 16 0
BBX 16 16 0 -2
BITMAP
0820
0920
1110
1210
320E
5404
9BF0
1110
1110
1110
1210
1210
14A0
1040
0000
0000
ENDCHAR
STARTCHAR U+4EFF
ENCODING 20223
SWIDTH 1000 0
DWIDTH 16 0
BBX 16 16 0 -2
BITMAP
0840
0820
1024
17FE
3080
5088
90FC
1088
1088
1088
1108
1108
1250
1420
0000
0000
ENDCHAR
STARTCHAR U+4F00
ENCODING 20224
SWIDTH 1000 0
DWIDTH 16 0
BBX 16 16 0 -2
BITMAP
0800
0890
1090
2108
4204
A402
2842
2040
2040
2080
2110
2208
27FC
2002
0000
0000
ENDCHAR
STARTCHAR U+4F01
ENCODING 20225
SWIDTH 1000 0
DWIDTH 16 0
BBX 16 16 0 -2
BITMAP
0100
0280
0440
0820
1110
210E
C104
0900
09F0
0900
0900
0900
0904
FFFE
0000
0000
ENDCHAR
STARTCHAR U+4F02
ENCODING 20226
SWIDTH 1000 0
DWIDTH 16 0
BBX 16 16 0 -2
BITMAP
0820
0824
13FE
2020
C020
23FE
2222
2222
2222
222A
2224
2020
2020
2020
0000
0000
ENDCHAR
STARTCHAR U+4F04
ENCODING 20228
SWIDTH 1000 0
DWIDTH 16 0
BBX 16 16 0 -2
BITMAP
0800
13FC
2044
6044
A7FC
2440
2440
27FE
2042
2042
2054
2048
2040
2040
0000
0000
ENDCHAR
STARTCHAR U+4F05
ENCODING 20229
SWIDTH 1000 0
DWIDTH 16 0
BBX 16 16 0 -2
BITMAP
0840
0840
1048
27FC
C040
2444
2444
2444
27FC
2444
2040
2042
2042
203E
0000
0000
ENDCHAR
STARTCHAR U+4F08
ENCODING 20232
SWIDTH 1000 0
DWIDTH 16 0
BBX 16 16 0 -2
BITMAP
1000
1080
2040
4020
8100
4508
4506
4502
4900
5100
4100
4104
4104
40FC
0000
0000
ENDCHAR
STARTCHAR U+4F09
ENCODING 20233
SWIDTH 1000 0
DWIDTH 16 0
BBX 16 16 0 -2
BITMAP
0880
0844
17FE
1000
3010
51F8
9110
1110
1110
1110
1212
1212
1412
180E
0000
0000
ENDCHAR
STARTCHAR U+4F0A
ENCODING 20234
SWIDTH 1000 0
DWIDTH 16 0
BBX 16 16 0 -2
BITMAP
0808
0BFC
0888
1088
3FFE
5088
9088
13F8
1088
1080
1100
1100
1200
1400
0000
0000
ENDCHAR
STARTCHAR U+4F0B
ENCODING 20235
SWIDTH 1000 0
DWIDTH 16 0
BBX 16 16 0 -2
BITMAP
1008
27FC
4108
A110
2120
21FC
2184
2248
2250
2420
2450
2888
310E
2204
0000
0000
ENDCHAR
STARTCHAR U+4F0D
ENCODING 20237
SWIDTH 1000 0
DWIDTH 16 0
BBX 16 16 0 -2
BITMAP
1000
1008
17FC
2080
6080
A088
27FC
2108
2108
2108
2108
2208
3FFE
2000
0000
0000
ENDCHAR
STARTCHAR U+4F0E
ENCODING 20238
SWIDTH 1000 0
DWIDTH 16 0
BBX 16 16 0 -2
BITMAP
0840
0844
17FE
3040
5040
93F8
1208
1110
1110
10A0
1040
10B0
110E
1604
0000
0000
ENDCHAR
STARTCHAR U+4F0F
ENCODING 20239
SWIDTH 1000 0
DWIDTH 16 0
BBX 16 16 0 -2
BITMAP
0850
0848
1048
1040
3FFE
5040
9040
10A0
10A0
1110
1110
1208
140E
1804
0000
0000
ENDCHAR
STARTCHAR U+4F10
ENCODING 20240
SWIDTH 1000 0
DWIDTH 16 0
BBX 16 16 0 -2
BITMAP
0880
08A0
0890
1090
30FC
5780
9088
1050
1060
1040
10A0
1112
160A
1006
0000
0000
ENDCHAR
STARTCHAR U+4F11
ENCODING 20241
SWIDTH 1000 0
DWIDTH 16 0
BBX 16 16 0 -2
BITMAP
0840
0840
1044
17FE
3040
50E0
90E0
1150
1150
1248
1446
1844
1040
1040
0000
0000
ENDCHAR
STARTCHAR U+4F12
ENCODING 20242
SWIDTH 1000 0
DWIDTH 16 0
BBX 16 16 0 -2
BITMAP
0808
081C
13E0
2100
E104
21FE
2110
2110
2110
2110
2110
2210
2410
2010
0000
0000
ENDCHAR
STARTCHAR U+4F13
ENCODING 20243
SWIDTH 1000 0
DWIDTH 16 0
BBX 16 16 0 -2
BITMAP
1004
27FE
4010
8020
4040
4080
4140
4248
4C44
4042
4040
4040
4040
4040
0000
0000
ENDCHAR
STARTCHAR U+4F14
ENCODING 20244
SWIDTH 1000 0
DWIDTH 16 0
BBX 16 16 0 -2
BITMAP
1000
17FC
2404
4404
A000
2120
2120
2120
2120
2120
2120
2122
2222
243E
0000
0000
ENDCHAR
STARTCHAR U+4F15
ENCODING 20245
SWIDTH 1000 0
DWIDTH 16 0
BBX 16 16 0 -2
BITMAP
0840
0840
1040
23F8
6040
A040
2048
27FC
2040
2040
20A0
2110
2208
2404
0000
0000
ENDCHAR
STARTCHAR U+4F18
ENCODING 20248
SWIDTH 1000 0
DWIDTH 16 0
BBX 16 16 0 -2
BITMAP
1088
1084
2082
4080
8FFE
4080
40A0
40A0
40A0
4120
4220
4422
4822
503E
0000
0000
ENDCHAR
STARTCHAR U+4F19
ENCODING 20249
SWIDTH 1000 0
DWIDTH 16 0
BBX 16 16 0 -2
BITMAP
0840
0840
1040
1044
344C
5250
9260
1040
10A0
1110
1110
1208
140E
1804
0000
0000
ENDCHAR
STARTCHAR U+4F1D
ENCODING 20253
SWIDTH 1000 0
DWIDTH 16 0
BBX 16 16 0 -2
BITMAP
1000
1008
27FC
4000
8000
4004
4FFE
4040
4040
4080
4108
4204
4FFE
4002
0000
0000
ENDCHAR
STARTCHAR U+4F22
ENCODING 20258
SWIDTH 1000 0
DWIDTH 16 0
BBX 16 16 0 -2
BITMAP
0808
0BFC
1110
3210
5214
93FE
1030
1050
1090
1110
1210
1410
1050
1020
0000
0000
ENDCHAR
STARTCHAR U+4F2C
ENCODING 20268
SWIDTH 1000 0
DWIDTH 16 0
BBX 16 16 0 -2
BITMAP
1000
17FC
2404
4404
8404
47FC
4500
4480
4440
4420
4410
4408
4804
5002
0000
0000
ENDCHAR
STARTCHAR U+4F2D
ENCODING 20269
SWIDTH 1000 0
DWIDTH 16 0
BBX 16 16 0 -2
BITMAP
1080
2040
4FFE
A000
2080
2108
2210
27E0
2040
2080
2108
2208
2FFC
2004
0000
0000
ENDCHAR
STARTCHAR U+4F2F
ENCODING 20271
SWIDTH 1000 0
DWIDTH 16 0
BBX 16 16 0 -2
BITMAP
0840
0884
11FE
1104
3104
5104
9104
11FC
1104
1104
1104
1104
11FC
1104
0000
0000
ENDCHAR
STARTCHAR U+4F30
ENCODING 20272
SWIDTH 1000 0
DWIDTH 16 0
BBX 16 16 0 -2
BITMAP
0840
0840
1044
1FFE
3040
5040
9048
13FC
1208
1208
1208
1208
13F8
1208
0000
0000
ENDCHAR
STARTCHAR U+4F33
ENCODING 20275
SWIDTH 1000 0
DWIDTH 16 0
BBX 16 16 0 -2
BITMAP
0A00
1248
2248
6248
AFFE
2248
2248
2248
2248
2278
2200
2200
2200
21FE
0000
0000
ENDCHAR
STARTCHAR U+4F34
ENCODING 20276
SWIDTH 1000 0
DWIDTH 16 0
BBX 16 16 0 -2
BITMAP
0840
0A44
0948
1040
27FC
3040
5040
9044
1FFE
1040
1040
1040
1040
1040
0000
0000
ENDCHAR
STARTCHAR U+4F36
ENCODING 20278
SWIDTH 1000 0
DWIDTH 16 0
BBX 16 16 0 -2
BITMAP
0840
08A0
10A0
1110
3208
55EE
9804
1000
13F8
1008
1010
10A0
1040
1020
0000
0000
ENDCHAR
STARTCHAR U+4F38
ENCODING 20280
SWIDTH 1000 0
DWIDTH 16 0
BBX 16 16 0 -2
BITMAP
0840
0840
0844
17FE
3444
5444
97FC
1444
1444
17FC
1444
1040
1040
1040
0000
0000
ENDCHAR
STARTCHAR U+4F3A
ENCODING 20282
SWIDTH 1000 0
DWIDTH 16 0
BBX 16 16 0 -2
BITMAP
0804
0BFE
0804
1024
37F4
5004
93E4
1224
1224
1224
13E4
1204
1014
1008
0000
0000
ENDCHAR
STARTCHAR U+4F3B
ENCODING 20283
SWIDTH 1000 0
DWIDTH 16 0
BBX 16 16 0 -2
BITMAP
0804
0BFE
1020
2222
6124
A0A8
2020
27FE
2020
2020
2020
2020
2020
2020
0000
0000
ENDCHAR
STARTCHAR U+4F3C
ENCODING 20284
SWIDTH 1000 0
DWIDTH 16 0
BBX 16 16 0 -2
BITMAP
1000
1008
1008
2408
2408
6508
A488
2448
2450
2520
2628
2446
2882
2100
0000
0000
ENDCHAR
STARTCHAR U+4F3D
ENCODING 20285
SWIDTH 1000 0
DWIDTH 16 0
BBX 16 16 0 -2
BITMAP
1400
1404
243E
3FA4
64A4
A4A4
24A4
24A4
24A4
24A4
28A4
28BC
32A4
2100
0000
0000
ENDCHAR
STARTCHAR U+4F3E
ENCODING 20286
SWIDTH 1000 0
DWIDTH 16 0
BBX 16 16 0 -2
BITMAP
0800
1008
27FC
4020
C060
40C0
4140
4250
4448
4844
4044
4040
4040
4FFE
0000
0000
ENDCHAR
STARTCHAR U+4F3F
ENCODING 20287
SWIDTH 1000 0
DWIDTH 16 0
BBX 16 16 0 -2
BITMAP
0800
13FC
2204
C204
2204
2204
23FC
2204
2000
2108
2204
2402
2802
2000
0000
0000
ENDCHAR
STARTCHAR U+4F41
ENCODING 20289
SWIDTH 1000 0
DWIDTH 16 0
BBX 16 16 0 -2
BITMAP
0840
1040
2080
6108
A204
27FE
2002
2000
23FC
2204
2204
2204
23FC
2204
0000
0000
ENDCHAR
STARTCHAR U+4F43
ENCODING 20291
SWIDTH 1000 0
DWIDTH 16 0
BBX 16 16 0 -2
BITMAP
1000
1000
1004
27FE
2444
6444
A444
27FC
2444
2444
2444
27FC
2404
2000
0000
0000
ENDCHAR
STARTCHAR U+4F46
ENCODING 20294
SWIDTH 1000 0
DWIDTH 16 0
BBX 16 16 0 -2
BITMAP
1000
1000
1008
27FC
6408
A408
27F8
2408
2408
27F8
2000
2004
3FFE
2000
0000
0000
ENDCHAR
STARTCHAR U+4F47
ENCODING 20295
SWIDTH 1000 0
DWIDTH 16 0
BBX 16 16 0 -2
BITMAP
1080
1040
27FE
C802
2802
27FC
2040
2040
2040
2040
2040
2240
2140
2080
0000
0000
ENDCHAR
STARTCHAR U+4F48
ENCODING 20296
SWIDTH 1000 0
DWIDTH 16 0
BBX 16 16 0 -2
BITMAP
2080
2080
2FFE
4080
8140
4240
47FC
4C44
5444
4444
4454
4448
4040
4040
0000
0000
ENDCHAR
STARTCHAR U+4F49
ENCODING 20297
SWIDTH 1000 0
DWIDTH 16 0
BBX 16 16 0 -2
BITMAP
1040
1040
2040
47FC
C040
4040
4040
4FFE
4040
4080
4100
4208
4FFC
4004
0000
0000
ENDCHAR
STARTCHAR U+4F4C
ENCODING 20300
SWIDTH 1000 0
DWIDTH 16 0
BBX 16 16 0 -2
BITMAP
1220
2220
4220
8220
4220
43BE
4220
4A20
4A20
4A20
4A20
4A22
4BA2
5C3E
0000
0000
ENDCHAR
STARTCHAR U+4F4D
ENCODING 20301
SWIDTH 1000 0
DWIDTH 16 0
BBX 16 16 0 -2
BITMAP
0900
08C0
1040
17FC
3000
5208
9208
1210
1110
1120
1044
1FFE
1000
1000
0000
0000
ENDCHAR
STARTCHAR U+4F4E
ENCODING 20302
SWIDTH 1000 0
DWIDTH 16 0
BBX 16 16 0 -2
BITMAP
1008
103C
13E0
2220
6220
A224
23FE
2220
2220
2210
2292
270A
220A
21E6
0000
0000
ENDCHAR
STARTCHAR U+4F4F
ENCODING 20303
SWIDTH 1000 0
DWIDTH 16 0
BBX 16 16 0 -2
BITMAP
0880
0840
0844
17FE
3040
5040
9048
17FC
1040
1040
1040
1044
1FFE
1000
0000
0000
ENDCHAR
STARTCHAR U+4F50
ENCODING 20304
SWIDTH 1000 0
DWIDTH 16 0
BBX 16 16 0 -2
BITMAP
0880
0884
17FE
1080
3080
5100
9108
11FC
1220
1420
1820
1024
17FE
1000
0000
0000
ENDCHAR
STARTCHAR U+4F51
ENCODING 20305
SWIDTH 1000 0
DWIDTH 16 0
BBX 16 16 0 -2
BITMAP
0880
0880
1084
1FFE
3100
5100
9208
13FC
1508
1908
1108
1108
11F8
1108
0000
0000
ENDCHAR
STARTCHAR U+4F52
ENCODING 20306
SWIDTH 1000 0
DWIDTH 16 0
BBX 16 16 0 -2
BITMAP
1040
1040
1040
27FC
4444
C444
4444
5FFE
40A0
4110
4208
4404
4802
5002
0000
0000
ENDCHAR
STARTCHAR U+4F53
ENCODING 20307
SWIDTH 1000 0
DWIDTH 16 0
BBX 16 16 0 -2
BITMAP
1080
1080
2088
2FFC
62A0
A2A0
2490
2490
2888
2BEE
3084
2080
2080
2080
0000
0000
ENDCHAR
STARTCHAR U+4F54
ENCODING 20308
SWIDTH 1000 0
DWIDTH 16 0
BBX 16 16 0 -2
BITMAP
1040
1040
2040
407C
A040
2040
2044
23FE
2204
2204
2204
2204
23FC
2204
0000
0000
ENDCHAR
STARTCHAR U+4F55
ENCODING 20309
SWIDTH 1000 0
DWIDTH 16 0
BBX 16 16 0 -2
BITMAP
0800
0804
0FFE
1008
1008
33C8
5248
9248
1248
13C8
1248
1008
1028
1010
0000
0000
ENDCHAR
STARTCHAR U+4F56
ENCODING 20310
SWIDTH 1000 0
DWIDTH 16 0
BBX 16 16 0 -2
BITMAP
0800
1080
2044
6124
A504
2508
2510
2524
2942
2182
2100
2304
2504
20FC
0000
0000
ENDCHAR
STARTCHAR U+4F57
ENCODING 20311
SWIDTH 1000 0
DWIDTH 16 0
BBX 16 16 0 -2
BITMAP
0840
0844
17FE
1404
3908
5100
9108
1118
1120
1140
1182
1102
1102
10FE
0000
0000
ENDCHAR
STARTCHAR U+4F58
ENCODING 20312
SWIDTH 1000 0
DWIDTH 16 0
BBX 16 16 0 -2
BITMAP
0100
0280
0440
0830
300E
CFE4
0000
7FFC
0100
0920
1918
210C
4104
0100
0000
0000
ENDCHAR
STARTCHAR U+4F59
ENCODING 20313
SWIDTH 1000 0
DWIDTH 16 0
BBX 16 16 0 -2
BITMAP
0100
0280
0440
0820
1010
2FEE
C104
0110
3FF8
0920
1918
210C
4504
0200
0000
0000
ENDCHAR
STARTCHAR U+4F5A
ENCODING 20314
SWIDTH 1000 0
DWIDTH 16 0
BBX 16 16 0 -2
BITMAP
0840
0940
1148
11FC
3240
5440
9044
1FFE
1040
10A0
1110
1110
120E
1404
0000
0000
ENDCHAR
STARTCHAR U+4F5B
ENCODING 20315
SWIDTH 1000 0
DWIDTH 16 0
BBX 16 16 0 -2
BITMAP
1090
1090
27FE
2092
6092
A7FE
2492
2490
27FE
2092
2092
2114
2210
2410
0000
0000
ENDCHAR
STARTCHAR U+4F5C
ENCODING 20316
SWIDTH 1000 0
DWIDTH 16 0
BBX 16 16 0 -2
BITMAP
0900
0904
11FE
1280
3280
5488
98FC
1080
1080
1084
10FE
1080
1080
1080
0000
0000
ENDCHAR
STARTCHAR U+4F5D
ENCODING 20317
SWIDTH 1000 0
DWIDTH 16 0
BBX 16 16 0 -2
BITMAP
0900
0904
13FE
1204
3424
5BF4
9224
1224
1224
13E4
1224
1004
1028
1010
0000
0000
ENDCHAR
STARTCHAR U+4F5E
ENCODING 20318
SWIDTH 1000 0
DWIDTH 16 0
BBX 16 16 0 -2
BITMAP
0BF8
0800
1008
17FC
3080
5084
9FFE
1110
1210
11A0
1040
10A0
1118
1604
0000
0000
ENDCHAR
STARTCHAR U+4F5F
ENCODING 20319
SWIDTH 1000 0
DWIDTH 16 0
BBX 16 16 0 -2
BITMAP
0900
09F8
1210
1520
38A0
5040
90A0
139E
1C64
1020
1180
1060
1030
1010
0000
0000
ENDCHAR
STARTCHAR U+4F60
ENCODING 20320
SWIDTH 1000 0
DWIDTH 16 0
BBX 16 16 0 -2
BITMAP
1100
1104
23FE
2204
6408
A840
2040
2150
2148
224C
2444
2040
2140
2080
0000
0000
ENDCHAR
STARTCHAR U+4F61
ENCODING 20321
SWIDTH 1000 0
DWIDTH 16 0
BBX 16 16 0 -2
BITMAP
0840
1040
2040
60A0
A110
2208
2C46
2040
2444
2444
2444
2444
27FC
2404
0000
0000
ENDCHAR
STARTCHAR U+4F62
ENCODING 20322
SWIDTH 1000 0
DWIDTH 16 0
BBX 16 16 0 -2
BITMAP
0800
0BFE
1100
2100
6100
A1FC
2104
2104
2104
21FC
2100
2100
2100
27FE
0000
0000
ENDCHAR
STARTCHAR U+4F63
ENCODING 20323
SWIDTH 1000 0
DWIDTH 16 0
BBX 16 16 0 -2
BITMAP
1004
17FE
1444
2444
67FC
A444
2444
2444
27FC
2444
2444
2444
2854
3008
0000
0000
ENDCHAR
STARTCHAR U+4F64
ENCODING 20324
SWIDTH 1000 0
DWIDTH 16 0
BBX 16 16 0 -2
BITMAP
0804
0FFE
1100
1110
31F8
5110
9110
1190
1250
1210
13D2
1612
100E
1000
0000
0000
ENDCHAR
STARTCHAR U+4F67
ENCODING 20327
SWIDTH 1000 0
DWIDTH 16 0
BBX 16 16 0 -2
BITMAP
0880
0890
10F8
1080
3080
5084
9FFE
1080
10C0
10A0
1098
1088
1080
1080
0000
0000
ENDCHAR
STARTCHAR U+4F69
ENCODING 20329
SWIDTH 1000 0
DWIDTH 16 0
BBX 16 16 0 -2
BITMAP
1008
1FFC
2808
2FF8
6888
A888
2BE8
2AA8
2AA8
2AA8
2AEA
288A
3086
2080
0000
0000
ENDCHAR
STARTCHAR U+4F6A
ENCODING 20330
SWIDTH 1000 0
DWIDTH 16 0
BBX 16 16 0 -2
BITMAP
1000
1000
2FFE
4802
8802
49F2
4912
4912
4912
49F2
4802
4802
4FFE
4802
0000
0000
ENDCHAR
STARTCHAR U+4F6B
ENCODING 20331
SWIDTH 1000 0
DWIDTH 16 0
BBX 16 16 0 -2
BITMAP
0900
13F8
2508
C890
2060
2090
2108
2206
2DFA
2108
2108
2108
21F8
2108
0000
0000
ENDCHAR
STARTCHAR U+4F6C
ENCODING 20332
SWIDTH 1000 0
DWIDTH 16 0
BBX 16 16 0 -2
BITMAP
0880
0884
17EC
1090
30A0
50C4
9FFE
1100
1700
19F8
1100
1100
1100
10FC
0000
0000
ENDCHAR
STARTCHAR U+4F6E
ENCODING 20334
SWIDTH 1000 0
DWIDTH 16 0
BBX 16 16 0 -2
BITMAP
0840
08A0
10A0
2110
420E
A404
23F8
2000
23F8
2208
2208
2208
23F8
2208
0000
0000
ENDCHAR
STARTCHAR U+4F6F
ENCODING 20335
SWIDTH 1000 0
DWIDTH 16 0
BBX 16 16 0 -2
BITMAP
1208
1110
10A0
27FC
6040
A040
23F8
2040
2044
2FFE
2040
2040
2040
2040
0000
0000
ENDCHAR
STARTCHAR U+4F70
ENCODING 20336
SWIDTH 1000 0
DWIDTH 16 0
BBX 16 16 0 -2
BITMAP
0800
0804
0FFE
1040
1040
3084
53FC
9204
1204
13FC
1204
1204
13FC
1204
0000
0000
ENDCHAR
STARTCHAR U+4F73
ENCODING 20339
SWIDTH 1000 0
DWIDTH 16 0
BBX 16 16 0 -2
BITMAP
0840
0840
17FC
1040
3044
5FFE
9040
1040
17FC
1040
1040
1044
1FFE
1000
0000
0000
ENDCHAR
STARTCHAR U+4F74
ENCODING 20340
SWIDTH 1000 0
DWIDTH 16 0
BBX 16 16 0 -2
BITMAP
0FFE
0908
1108
11F8
3108
5108
91F8
1108
1108
17FE
1008
1008
1008
1008
0000
0000
ENDCHAR
STARTCHAR U+4F75
ENCODING 20341
SWIDTH 1000 0
DWIDTH 16 0
BBX 16 16 0 -2
BITMAP
1208
1110
20A0
47FC
A110
2110
2110
2FFE
2110
2110
2110
2210
2410
2810
0000
0000
ENDCHAR
STARTCHAR U+4F76
ENCODING 20342
SWIDTH 1000 0
DWIDTH 16 0
BBX 16 16 0 -2
BITMAP
0840
0844
1FFE
1040
3048
57FC
9000
1008
13FC
1208
1208
1208
13F8
1208
0000
0000
ENDCHAR
STARTCHAR U+4F77
ENCODING 20343
SWIDTH 1000 0
DWIDTH 16 0
BBX 16 16 0 -2
BITMAP
1008
13FC
2208
63F8
A208
23F8
2200
2244
2248
2230
2250
2288
2304
2E02
0000
0000
ENDCHAR
STARTCHAR U+4F78
ENCODING 20344
SWIDTH 1000 0
DWIDTH 16 0
BBX 16 16 0 -2
BITMAP
1008
201C
47E0
C040
4040
4FFE
4040
4040
47FC
4404
4404
4404
47FC
4404
0000
0000
ENDCHAR
STARTCHAR U+4F79
ENCODING 20345
SWIDTH 1000 0
DWIDTH 16 0
BBX 16 16 0 -2
BITMAP
1100
23F8
4410
8020
47FE
4400
45FC
4484
4484
44B8
4480
4482
4882
40FE
0000
0000
ENDCHAR
STARTCHAR U+4F7A
ENCODING 20346
SWIDTH 1000 0
DWIDTH 16 0
BBX 16 16 0 -2
BITMAP
1080
1040
20A0
6110
A208
2406
2BFA
2040
2040
23F8
2040
2040
27FC
2000
0000
0000
ENDCHAR
STARTCHAR U+4F7B
ENCODING 20347
SWIDTH 1000 0
DWIDTH 16 0
BBX 16 16 0 -2
BITMAP
0920
0920
1124
112C
3530
5320
9130
132C
1D24
1120
1222
1222
141E
1800
0000
0000
ENDCHAR
STARTCHAR U+4F7C
ENCODING 20348
SWIDTH 1000 0
DWIDTH 16 0
BBX 16 16 0 -2
BITMAP
0880
0844
17FE
1120
3110
520C
9514
1110
10A0
1040
10A0
1110
120E
1C04
0000
0000
ENDCHAR
STARTCHAR U+4F7D
ENCODING 20349
SWIDTH 1000 0
DWIDTH 16 0
BBX 16 16 0 -2
BITMAP
1100
2100
41FE
DD22
4122
4224
4020
5E20
4020
4050
4088
4104
4202
4402
0000
0000
ENDCHAR
STARTCHAR U+4F7E
ENCODING 20350
SWIDTH 1000 0
DWIDTH 16 0
BBX 16 16 0 -2
BITMAP
0800
0920
1210
1408
3BF6
5210
9210
13F0
1210
1210
13F0
1210
1250
1420
0000
0000
ENDCHAR
STARTCHAR U+4F7F
ENCODING 20351
SWIDTH 1000 0
DWIDTH 16 0
BBX 16 16 0 -2
BITMAP
1040
1044
1FFE
2040
67FC
A444
2444
27FC
2244
2180
20C0
2130
260E
2804
0000
0000
ENDCHAR
STARTCHAR U+4F80
ENCODING 20352
SWIDTH 1000 0
DWIDTH 16 0
BBX 16 16 0 -2
BITMAP
1002
2FC2
4482
848A
448A
448A
5FEA
448A
448A
4482
4482
4882
408A
4084
0000
0000
ENDCHAR
STARTCHAR U+4F81
ENCODING 20353
SWIDTH 1000 0
DWIDTH 16 0
BBX 16 16 0 -2
BITMAP
1040
2448
47FC
8440
4840
4044
4FFE
4120
4120
4120
4220
4422
4822
503E
0000
0000
ENDCHAR
STARTCHAR U+4F82
ENCODING 20354
SWIDTH 1000 0
DWIDTH 16 0
BBX 16 16 0 -2
BITMAP
1020
2FFE
4800
8808
4870
4BC0
4840
4840
4BFE
4840
4840
4842
5042
407E
0000
0000
ENDCHAR
STARTCHAR U+4F83
ENCODING 20355
SWIDTH 1000 0
DWIDTH 16 0
BBX 16 16 0 -2
BITMAP
0808
0BFC
0A08
1208
33F8
5000
9248
1248
1248
1248
1248
1448
184E
1000
0000
0000
ENDCHAR
STARTCHAR U+4F84
ENCODING 20356
SWIDTH 1000 0
DWIDTH 16 0
BBX 16 16 0 -2
BITMAP
0800
0808
17FC
2100
6208
A7FC
2044
2040
2048
27FC
2040
2044
2FFE
2000
0000
0000
ENDCHAR
STARTCHAR U+4F85
ENCODING 20357
SWIDTH 1000 0
DWIDTH 16 0
BBX 16 16 0 -2
BITMAP
1080
2044
4FFE
8080
4110
4220
47C8
4090
4120
4260
4490
4108
4206
4C02
0000
0000
ENDCHAR
STARTCHAR U+4F86
ENCODING 20358
SWIDTH 1000 0
DWIDTH 16 0
BBX 16 16 0 -2
BITMAP
0100
0104
FFFE
0910
1120
2950
C58C
0100
0540
0920
1110
2108
C106
0100
0000
0000
ENDCHAR
STARTCHAR U+4F87
ENCODING 20359
SWIDTH 1000 0
DWIDTH 16 0
BBX 16 16 0 -2
BITMAP
1080
2FF8
4080
87F8
4088
4FF8
4880
4FFE
4082
4142
4224
4410
4808
5006
0000
0000
ENDCHAR
STARTCHAR U+4F88
ENCODING 20360
SWIDTH 1000 0
DWIDTH 16 0
BBX 16 16 0 -2
BITMAP
08FC
0908
1310
10A0
3040
5090
9110
1620
107E
1084
1348
1030
10C0
1700
0000
0000
ENDCHAR
STARTCHAR U+4F89
ENCODING 20361
SWIDTH 1000 0
DWIDTH 16 0
BBX 16 16 0 -2
BITMAP
0840
0884
1FFE
1120
3210
54EE
9804
13F8
1080
11F8
1008
1088
1050
1020
0000
0000
ENDCHAR
STARTCHAR U+4F8B
ENCODING 20363
SWIDTH 1000 0
DWIDTH 16 0
BBX 16 16 0 -2
BITMAP
1004
1044
1FE4
2204
67D4
A454
2854
3494
2294
2114
2204
2404
2814
2008
0000
0000
ENDCHAR
STARTCHAR U+4F8D
ENCODING 20365
SWIDTH 1000 0
DWIDTH 16 0
BBX 16 16 0 -2
BITMAP
0840
0844
17FE
1040
3040
53FC
9010
1010
17FC
1010
1210
1110
1050
1020
0000
0000
ENDCHAR
STARTCHAR U+4F8F
ENCODING 20367
SWIDTH 1000 0
DWIDTH 16 0
BBX 16 16 0 -2
BITMAP
0840
0A48
13FC
1440
3840
5044
9FFE
10C0
10E0
1150
1248
144E
1844
1040
0000
0000
ENDCHAR
STARTCHAR U+4F90
ENCODING 20368
SWIDTH 1000 0
DWIDTH 16 0
BBX 16 16 0 -2
BITMAP
0800
1080
2100
6204
A7FE
2CA4
24A4
24A4
24A4
24A4
24A4
24A4
2FFE
2000
0000
0000
ENDCHAR
STARTCHAR U+4F91
ENCODING 20369
SWIDTH 1000 0
DWIDTH 16 0
BBX 16 16 0 -2
BITMAP
0880
0884
17FE
1100
3108
53FC
9508
1908
11F8
1108
11F8
1108
1128
1210
0000
0000
ENDCHAR
STARTCHAR U+4F92
ENCODING 20370
SWIDTH 1000 0
DWIDTH 16 0
BBX 16 16 0 -2
BITMAP
0820
13FE
2202
C282
2088
23FE
2088
2088
2088
2050
2020
2050
2088
2306
0000
0000
ENDCHAR
STARTCHAR U+4F94
ENCODING 20372
SWIDTH 1000 0
DWIDTH 16 0
BBX 16 16 0 -2
BITMAP
0880
0910
1208
17FC
3244
5240
93F8
1440
1044
1FFE
1040
1040
1040
1040
0000
0000
ENDCHAR
STARTCHAR U+4F95
ENCODING 20373
SWIDTH 1000 0
DWIDTH 16 0
BBX 16 16 0 -2
BITMAP
1004
17FE
2040
4080
A7FE
2492
2492
2492
2492
2492
2492
2492
2402
2404
0000
0000
ENDCHAR
STARTCHAR U+4F96
ENCODING 20374
SWIDTH 1000 0
DWIDTH 16 0
BBX 16 16 0 -2
BITMAP
07C0
0820
1010
2008
5FF4
8002
0000
3FF8
2448
2448
3FF8
2448
2448
2458
0000
0000
ENDCHAR
STARTCHAR U+4F97
ENCODING 20375
SWIDTH 1000 0
DWIDTH 16 0
BBX 16 16 0 -2
BITMAP
0804
0BFE
1204
13FC
3204
5204
92F4
1294
1294
12F4
1204
1204
1214
1208
0000
0000
ENDCHAR
STARTCHAR U+4F98
ENCODING 20376
SWIDTH 1000 0
DWIDTH 16 0
BBX 16 16 0 -2
BITMAP
1080
2040
4FFE
8802
481A
4062
4780
4080
4FFE
4080
4080
4082
4082
40FE
0000
0000
ENDCHAR
STARTCHAR U+4F9A
ENCODING 20378
SWIDTH 1000 0
DWIDTH 16 0
BBX 16 16 0 -2
BITMAP
1200
2200
43FE
8402
4002
43E2
4222
43E2
4222
43E2
4222
4004
4048
4030
0000
0000
ENDCHAR
STARTCHAR U+4F9B
ENCODING 20379
SWIDTH 1000 0
DWIDTH 16 0
BBX 16 16 0 -2
BITMAP
1210
1210
2210
2FFC
6210
A210
2210
3FFE
2000
2210
2208
240C
2804
2000
0000
0000
ENDCHAR
STARTCHAR U+4F9C
ENCODING 20380
SWIDTH 1000 0
DWIDTH 16 0
BBX 16 16 0 -2
BITMAP
1100
1108
23FC
4608
8A88
4248
4228
4FFE
4288
4248
4228
4208
4208
4418
0000
0000
ENDCHAR
STARTCHAR U+4F9D
ENCODING 20381
SWIDTH 1000 0
DWIDTH 16 0
BBX 16 16 0 -2
BITMAP
0880
0840
0844
17FE
3080
5140
9148
1350
1520
1920
1110
114E
1184
1100
0000
0000
ENDCHAR
STARTCHAR U+4F9E
ENCODING 20382
SWIDTH 1000 0
DWIDTH 16 0
BBX 16 16 0 -2
BITMAP
1000
2880
4880
889E
5FD2
4892
4892
4892
4892
4512
4212
451E
4892
5040
0000
0000
ENDCHAR
STARTCHAR U+4FAE
ENCODING 20398
SWIDTH 1000 0
DWIDTH 16 0
BBX 16 16 0 -2
BITMAP
0900
09FC
1200
15F8
3148
5128
9128
1FFE
1148
1128
1228
13FC
1008
1010
0000
0000
ENDCHAR
STARTCHAR U+4FAF
ENCODING 20399
SWIDTH 1000 0
DWIDTH 16 0
BBX 16 16 0 -2
BITMAP
0BF8
0810
1010
17FC
3200
5200
93FC
1440
1040
1FFE
10A0
1090
110E
1604
0000
0000
ENDCHAR
STARTCHAR U+4FB2
ENCODING 20402
SWIDTH 1000 0
DWIDTH 16 0
BBX 16 16 0 -2
BITMAP
1004
27FE
4400
C400
45FC
4400
47FE
4480
4492
4494
4490
44A8
49C6
5082
0000
0000
ENDCHAR
STARTCHAR U+4FB3
ENCODING 20403
SWIDTH 1000 0
DWIDTH 16 0
BBX 16 16 0 -2
BITMAP
1000
2080
4888
8888
4888
5494
62A2
4080
4080
4FFC
4080
4080
4080
5FFE
0000
0000
ENDCHAR
STARTCHAR U+4FB5
ENCODING 20405
SWIDTH 1000 0
DWIDTH 16 0
BBX 16 16 0 -2
BITMAP
0BF8
0808
13FE
1008
33F8
5000
97FE
1402
19F4
1110
10A0
10E0
111C
1608
0000
0000
ENDCHAR
STARTCHAR U+4FB6
ENCODING 20406
SWIDTH 1000 0
DWIDTH 16 0
BBX 16 16 0 -2
BITMAP
0808
0BFC
0A08
1208
33F8
5040
9080
1104
17FE
1404
1404
1404
17FC
1404
0000
0000
ENDCHAR
STARTCHAR U+4FB7
ENCODING 20407
SWIDTH 1000 0
DWIDTH 16 0
BBX 16 16 0 -2
BITMAP
13FC
1204
1204
23FC
6200
A3FE
2202
22FA
228A
228A
24FA
2802
2024
2018
0000
0000
ENDCHAR
STARTCHAR U+4FB9
ENCODING 20409
SWIDTH 1000 0
DWIDTH 16 0
BBX 16 16 0 -2
BITMAP
1004
2F78
4110
8210
4410
48FE
4410
4210
4210
42FE
4A00
4400
4A00
51FE
0000
0000
ENDCHAR
STARTCHAR U+4FBA
ENCODING 20410
SWIDTH 1000 0
DWIDTH 16 0
BBX 16 16 0 -2
BITMAP
1040
1444
27FC
6040
A0A0
2110
220E
25F4
2000
23F8
2008
2010
2020
2040
0000
0000
ENDCHAR
STARTCHAR U+4FBB
ENCODING 20411
SWIDTH 1000 0
DWIDTH 16 0
BBX 16 16 0 -2
BITMAP
1020
1110
2208
4406
8BFA
4208
4208
43F8
4120
4120
4120
4220
4422
483E
0000
0000
ENDCHAR
STARTCHAR U+4FBF
ENCODING 20415
SWIDTH 1000 0
DWIDTH 16 0
BBX 16 16 0 -2
BITMAP
1004
17FE
1040
27FC
2444
67FC
A444
27FC
2240
2140
2080
2160
221E
2C04
0000
0000
ENDCHAR
STARTCHAR U+4FC0
ENCODING 20416
SWIDTH 1000 0
DWIDTH 16 0
BBX 16 16 0 -2
BITMAP
1008
27F0
4084
8444
4248
4000
4110
4FFE
4110
4120
40C0
4120
461C
4408
0000
0000
ENDCHAR
STARTCHAR U+4FC1
ENCODING 20417
SWIDTH 1000 0
DWIDTH 16 0
BBX 16 16 0 -2
BITMAP
0808
09FC
1108
2108
45F8
A400
27FC
2044
2048
2FFE
20A0
2110
220E
2C04
0000
0000
ENDCHAR
STARTCHAR U+4FC2
ENCODING 20418
SWIDTH 1000 0
DWIDTH 16 0
BBX 16 16 0 -2
BITMAP
1010
1038
23C0
4088
A110
23E0
2040
2084
27FC
2042
2150
224C
2444
2040
0000
0000
ENDCHAR
STARTCHAR U+4FC3
ENCODING 20419
SWIDTH 1000 0
DWIDTH 16 0
BBX 16 16 0 -2
BITMAP
0808
0BFC
0A08
1208
33F8
5040
9040
1248
127C
1240
1540
14C0
187E
1000
0000
0000
ENDCHAR
STARTCHAR U+4FC4
ENCODING 20420
SWIDTH 1000 0
DWIDTH 16 0
BBX 16 16 0 -2
BITMAP
11A8
1724
2124
6FFE
A120
2120
21A4
2318
2D10
2130
2148
210A
2506
2202
0000
0000
ENDCHAR
STARTCHAR U+4FC5
ENCODING 20421
SWIDTH 1000 0
DWIDTH 16 0
BBX 16 16 0 -2
BITMAP
0850
0848
1048
17FE
3040
5444
9248
1270
1150
1250
144E
1044
1140
1080
0000
0000
ENDCHAR
STARTCHAR U+4FC7
ENCODING 20423
SWIDTH 1000 0
DWIDTH 16 0
BBX 16 16 0 -2
BITMAP
1100
2A00
44FE
8A10
5210
4210
4210
46FE
4A10
5210
4210
4210
4AFE
4400
0000
0000
ENDCHAR
STARTCHAR U+4FC9
ENCODING 20425
SWIDTH 1000 0
DWIDTH 16 0
BBX 16 16 0 -2
BITMAP
1010
17F8
2080
6080
A7F8
2088
2108
2FFE
2000
23F8
2208
2208
23F8
2208
0000
0000
ENDCHAR
STARTCHAR U+4FCA
ENCODING 20426
SWIDTH 1000 0
DWIDTH 16 0
BBX 16 16 0 -2
BITMAP
0840
0880
1108
13FC
3110
520C
9504
11F0
1210
1310
14A0
10F0
111E
1604
0000
0000
ENDCHAR
STARTCHAR U+4FCB
ENCODING 20427
SWIDTH 1000 0
DWIDTH 16 0
BBX 16 16 0 -2
BITMAP
1000
1000
27FC
4404
A7FC
2000
27FC
2444
2444
27FC
2400
2402
2402
23FE
0000
0000
ENDCHAR
STARTCHAR U+4FCD
ENCODING 20429
SWIDTH 1000 0
DWIDTH 16 0
BBX 16 16 0 -2
BITMAP
1080
1040
23FC
6204
A3FC
2204
23FC
2202
2244
2228
2290
2308
2606
2202
0000
0000
ENDCHAR
STARTCHAR U+4FCE
ENCODING 20430
SWIDTH 1000 0
DWIDTH 16 0
BBX 16 16 0 -2
BITMAP
1008
11FC
1108
2908
2908
45F8
9508
1108
1108
29F8
2908
4508
8108
0FFE
0000
0000
ENDCHAR
STARTCHAR U+4FCF
ENCODING 20431
SWIDTH 1000 0
DWIDTH 16 0
BBX 16 16 0 -2
BITMAP
0924
08A4
10A8
3020
51FC
9104
1104
11FC
1104
1104
11FC
1104
1114
1208
0000
0000
ENDCHAR
STARTCHAR U+4FD0
ENCODING 20432
SWIDTH 1000 0
DWIDTH 16 0
BBX 16 16 0 -2
BITMAP
11C4
1F04
2114
2114
7FF4
A114
2314
2394
2554
2554
2904
3104
2114
2108
0000
0000
ENDCHAR
STARTCHAR U+4FD1
ENCODING 20433
SWIDTH 1000 0
DWIDTH 16 0
BBX 16 16 0 -2
BITMAP
0BF8
0810
10A0
1044
37FE
5444
9444
17FC
1444
1444
17FC
1444
1454
1408
0000
0000
ENDCHAR
STARTCHAR U+4FD3
ENCODING 20435
SWIDTH 1000 0
DWIDTH 16 0
BBX 16 16 0 -2
BITMAP
1008
17FC
2000
4124
C248
4490
4248
4124
4000
47FC
4040
4040
4044
4FFE
0000
0000
ENDCHAR
STARTCHAR U+4FD4
ENCODING 20436
SWIDTH 1000 0
DWIDTH 16 0
BBX 16 16 0 -2
BITMAP
0BF8
1208
2208
43F8
A208
2208
23F8
2208
2208
23F8
2120
2222
2422
283E
0000
0000
ENDCHAR
STARTCHAR U+4FD6
ENCODING 20438
SWIDTH 1000 0
DWIDTH 16 0
BBX 16 16 0 -2
BITMAP
1004
27FE
4040
C0C0
4150
424C
4C44
4040
43F8
4208
4208
4208
43F8
4208
0000
0000
ENDCHAR
STARTCHAR U+4FD7
ENCODING 20439
SWIDTH 1000 0
DWIDTH 16 0
BBX 16 16 0 -2
BITMAP
1110
110C
2244
2440
60A0
A110
220E
2404
2BF8
2208
2208
2208
23F8
2208
0000
0000
ENDCHAR
STARTCHAR U+4FD8
ENCODING 20440
SWIDTH 1000 0
DWIDTH 16 0
BBX 16 16 0 -2
BITMAP
1020
17C0
2008
2488
6250
A000
27F0
2020
2044
2FFE
2040
2040
2140
2080
0000
0000
ENDCHAR
STARTCHAR U+4FD9
ENCODING 20441
SWIDTH 1000 0
DWIDTH 16 0
BBX 16 16 0 -2
BITMAP
1108
2090
4060
8090
430C
4080
4FFE
4240
47FC
4A44
4244
4254
4048
4040
0000
0000
ENDCHAR
STARTCHAR U+4FDA
ENCODING 20442
SWIDTH 1000 0
DWIDTH 16 0
BBX 16 16 0 -2
BITMAP
1000
17FC
1444
2444
67FC
A444
2444
27FC
2040
2040
27FC
2040
2040
2FFE
0000
0000
ENDCHAR
STARTCHAR U+4FDB
ENCODING 20443
SWIDTH 1000 0
DWIDTH 16 0
BBX 16 16 0 -2
BITMAP
1100
23FC
4408
8810
47FC
4444
4444
47FC
4120
4120
4220
4422
4822
503E
0000
0000
ENDCHAR
STARTCHAR U+4FDC
ENCODING 20444
SWIDTH 1000 0
DWIDTH 16 0
BBX 16 16 0 -2
BITMAP
0840
0BF8
1248
23F8
4248
A3F8
2000
2FFE
2080
21F8
2008
2008
2010
2060
0000
0000
ENDCHAR
STARTCHAR U+4FDD
ENCODING 20445
SWIDTH 1000 0
DWIDTH 16 0
BBX 16 16 0 -2
BITMAP
0808
0BFC
1208
1208
33F8
3040
5044
9FFE
1040
1150
114C
1246
1442
1040
0000
0000
ENDCHAR
STARTCHAR U+4FDE
ENCODING 20446
SWIDTH 1000 0
DWIDTH 16 0
BBX 16 16 0 -2
BITMAP
0380
0440
0820
1010
2FEE
C004
3E08
2248
3E48
2248
3E48
2248
2208
4C30
0000
0000
ENDCHAR
STARTCHAR U+4FDF
ENCODING 20447
SWIDTH 1000 0
DWIDTH 16 0
BBX 16 16 0 -2
BITMAP
0880
0910
1208
17FC
3104
5100
91F8
1240
1444
1FFE
10A0
1090
110E
1604
0000
0000
ENDCHAR
STARTCHAR U+4FE0
ENCODING 20448
SWIDTH 1000 0
DWIDTH 16 0
BBX 16 16 0 -2
BITMAP
1020
1020
13FE
2020
6124
A124
2124
22AA
2020
2050
2088
2104
2202
2202
0000
0000
ENDCHAR
STARTCHAR U+4FE1
ENCODING 20449
SWIDTH 1000 0
DWIDTH 16 0
BBX 16 16 0 -2
BITMAP
0880
0844
17FE
2000
63FC
A000
23FC
2000
23FC
2204
2204
2204
23FC
2204
0000
0000
ENDCHAR
STARTCHAR U+4FEC
ENCODING 20460
SWIDTH 1000 0
DWIDTH 16 0
BBX 16 16 0 -2
BITMAP
1080
2F10
4210
8210
4F90
4210
4310
4690
4A22
4242
42FE
4202
4202
4200
0000
0000
ENDCHAR
STARTCHAR U+4FEE
ENCODING 20462
SWIDTH 1000 0
DWIDTH 16 0
BBX 16 16 0 -2
BITMAP
1104
11FE
2110
2AA0
6C40
A9B0
2E4E
2890
2B20
2840
2990
2020
2040
2180
0000
0000
ENDCHAR
STARTCHAR U+4FEF
ENCODING 20463
SWIDTH 1000 0
DWIDTH 16 0
BBX 16 16 0 -2
BITMAP
1080
1044
17FE
2480
6488
A508
25FE
2708
2548
2528
2528
2908
3128
2110
0000
0000
ENDCHAR
STARTCHAR U+4FF1
ENCODING 20465
SWIDTH 1000 0
DWIDTH 16 0
BBX 16 16 0 -2
BITMAP
0808
0BFC
1208
13F8
3208
53F8
9208
13F8
1208
1208
1FFE
1110
130C
1404
0000
0000
ENDCHAR
STARTCHAR U+4FF3
ENCODING 20467
SWIDTH 1000 0
DWIDTH 16 0
BBX 16 16 0 -2
BITMAP
0890
0890
1090
179E
3090
5090
979E
1090
1090
179E
1090
1090
1090
1110
0000
0000
ENDCHAR
STARTCHAR U+4FF4
ENCODING 20468
SWIDTH 1000 0
DWIDTH 16 0
BBX 16 16 0 -2
BITMAP
1090
1088
27FC
6080
A050
2022
21DE
2000
2088
27FE
2080
2050
2022
23DE
0000
0000
ENDCHAR
STARTCHAR U+4FF5
ENCODING 20469
SWIDTH 1000 0
DWIDTH 16 0
BBX 16 16 0 -2
BITMAP
1040
1040
27FC
4040
87FC
4040
4FFE
4080
4124
4328
4D10
4108
4144
4382
0000
0000
ENDCHAR
STARTCHAR U+4FF6
ENCODING 20470
SWIDTH 1000 0
DWIDTH 16 0
BBX 16 16 0 -2
BITMAP
1400
2400
477C
8444
4444
5F44
4444
4444
4E28
5510
4428
4444
4482
4502
0000
0000
ENDCHAR
STARTCHAR U+4FF7
ENCODING 20471
SWIDTH 1000 0
DWIDTH 16 0
BBX 16 16 0 -2
BITMAP
1000
2FBE
48AA
88AA
4FAA
48AA
48BE
4FA0
48A0
48A0
48A0
48A2
48A2
51BE
0000
0000
ENDCHAR
STARTCHAR U+4FF8
ENCODING 20472
SWIDTH 1000 0
DWIDTH 16 0
BBX 16 16 0 -2
BITMAP
1040
17FC
2040
63F8
A080
2FFE
2110
2248
25F6
2844
2040
27FC
2040
2040
0000
0000
ENDCHAR
STARTCHAR U+4FFA
ENCODING 20474
SWIDTH 1000 0
DWIDTH 16 0
BBX 16 16 0 -2
BITMAP
0840
0840
13FC
1090
3108
D646
13FA
1248
13F8
1248
13F8
1040
1040
103E
0000
0000
ENDCHAR
STARTCHAR U+4FFE
ENCODING 20478
SWIDTH 1000 0
DWIDTH 16 0
BBX 16 16 0 -2
BITMAP
0908
0BFC
1248
1248
33F8
5248
9288
13F8
1120
1224
1FFE
1020
1020
1020
0000
0000
ENDCHAR
STARTCHAR U+5000
ENCODING 20480
SWIDTH 1000 0
DWIDTH 16 0
BBX 16 16 0 -2
BITMAP
1010
13F8
2200
63F8
A200
23F8
2200
2FFE
2280
2244
2228
2290
2308
2606
0000
0000
ENDCHAR
STARTCHAR U+5005
ENCODING 20485
SWIDTH 1000 0
DWIDTH 16 0
BBX 16 16 0 -2
BITMAP
1040
2FFE
4000
C208
4208
4514
48E2
4040
4FFE
4040
4040
4040
4040
4040
0000
0000
ENDCHAR
STARTCHAR U+5006
ENCODING 20486
SWIDTH 1000 0
DWIDTH 16 0
BBX 16 16 0 -2
BITMAP
2004
2FFE
2040
4040
C842
4FFE
4842
4A52
494A
4AD6
4C62
4842
484A
4844
0000
0000
ENDCHAR
STARTCHAR U+5007
ENCODING 20487
SWIDTH 1000 0
DWIDTH 16 0
BBX 16 16 0 -2
BITMAP
1040
1040
2FFE
4802
C200
47BE
48A2
58A2
44AA
4324
4220
4422
4822
503E
0000
0000
ENDCHAR
STARTCHAR U+5009
ENCODING 20489
SWIDTH 1000 0
DWIDTH 16 0
BBX 16 16 0 -2
BITMAP
0380
0440
0BA0
1010
2FE8
4824
8FE2
0820
0FE0
1000
2FF0
4810
0810
0FF0
0000
0000
ENDCHAR
STARTCHAR U+500B
ENCODING 20491
SWIDTH 1000 0
DWIDTH 16 0
BBX 16 16 0 -2
BITMAP
2004
2FFE
4884
8884
4BF4
4884
4884
4BF4
4A14
4A14
4BF4
4804
4FFC
4804
0000
0000
ENDCHAR
STARTCHAR U+500C
ENCODING 20492
SWIDTH 1000 0
DWIDTH 16 0
BBX 16 16 0 -2
BITMAP
1080
17FE
1404
2808
63F0
A210
2210
23F0
2200
23F8
2208
2208
23F8
2200
0000
0000
ENDCHAR
STARTCHAR U+500D
ENCODING 20493
SWIDTH 1000 0
DWIDTH 16 0
BBX 16 16 0 -2
BITMAP
1080
1040
17FC
1210
2110
6120
AFFE
2000
23F8
2208
2208
2208
23F8
2208
0000
0000
ENDCHAR
STARTCHAR U+500E
ENCODING 20494
SWIDTH 1000 0
DWIDTH 16 0
BBX 16 16 0 -2
BITMAP
10A0
20A0
47FC
C4A4
44A4
47FC
44A4
44A4
44A4
4FFE
4000
4110
4208
4404
0000
0000
ENDCHAR
STARTCHAR U+500F
ENCODING 20495
SWIDTH 1000 0
DWIDTH 16 0
BBX 16 16 0 -2
BITMAP
1100
11FC
2910
2A90
6C60
A8B0
2B4E
2850
2848
2FFC
2840
2090
210C
2604
0000
0000
ENDCHAR
STARTCHAR U+5011
ENCODING 20497
SWIDTH 1000 0
DWIDTH 16 0
BBX 16 16 0 -2
BITMAP
2000
2FBE
48A2
8FBE
48A2
4FBE
48A2
4802
4802
4802
4802
4802
480A
4804
0000
0000
ENDCHAR
STARTCHAR U+5012
ENCODING 20498
SWIDTH 1000 0
DWIDTH 16 0
BBX 16 16 0 -2
BITMAP
2042
2FE2
2202
428A
C44A
4FCA
414A
410A
4FCA
410A
41E2
5F02
440A
4004
0000
0000
ENDCHAR
STARTCHAR U+5013
ENCODING 20499
SWIDTH 1000 0
DWIDTH 16 0
BBX 16 16 0 -2
BITMAP
1040
1444
2248
6240
A0A0
2110
260E
2040
2444
2248
22A0
20A0
2110
260E
0000
0000
ENDCHAR
STARTCHAR U+5014
ENCODING 20500
SWIDTH 1000 0
DWIDTH 16 0
BBX 16 16 0 -2
BITMAP
1004
17FE
2404
27FC
6420
A524
2524
25FC
2420
2524
2524
2924
31FC
2104
0000
0000
ENDCHAR
STARTCHAR U+5015
ENCODING 20501
SWIDTH 1000 0
DWIDTH 16 0
BBX 16 16 0 -2
BITMAP
1004
27F8
4040
8040
4FFE
4248
4248
4FFE
4248
4248
4FFE
4040
4040
4FFE
0000
0000
ENDCHAR
STARTCHAR U+5016
ENCODING 20502
SWIDTH 1000 0
DWIDTH 16 0
BBX 16 16 0 -2
BITMAP
1040
17FC
2040
6040
AFFE
2208
2110
2FFE
2040
2048
27FC
2040
2040
2040
0000
0000
ENDCHAR
STARTCHAR U+5017
ENCODING 20503
SWIDTH 1000 0
DWIDTH 16 0
BBX 16 16 0 -2
BITMAP
2FBE
28A2
48A2
88A2
4FBE
48A2
48A2
4FBE
48A2
48A2
48A2
48A2
48A2
5144
0000
0000
ENDCHAR
STARTCHAR U+5018
ENCODING 20504
SWIDTH 1000 0
DWIDTH 16 0
BBX 16 16 0 -2
BITMAP
1448
1248
1250
2044
67FE
A404
2404
25F4
2514
2514
25F4
2504
2414
2408
0000
0000
ENDCHAR
STARTCHAR U+5019
ENCODING 20505
SWIDTH 1000 0
DWIDTH 16 0
BBX 16 16 0 -2
BITMAP
13F8
2010
2810
6FFE
A900
2900
2BFC
2C40
2844
2FFE
28A0
2110
220E
2404
0000
0000
ENDCHAR
STARTCHAR U+501A
ENCODING 20506
SWIDTH 1000 0
DWIDTH 16 0
BBX 16 16 0 -2
BITMAP
0840
0848
13FC
30A0
3110
57FE
9008
13E8
1228
1228
13E8
1208
1028
1010
0000
0000
ENDCHAR
STARTCHAR U+501B
ENCODING 20507
SWIDTH 1000 0
DWIDTH 16 0
BBX 16 16 0 -2
BITMAP
1000
2210
4210
8FFC
4210
43F0
4210
43F0
4210
4210
5FFE
4210
440C
4804
0000
0000
ENDCHAR
STARTCHAR U+501C
ENCODING 20508
SWIDTH 1000 0
DWIDTH 16 0
BBX 16 16 0 -2
BITMAP
1004
17FE
2444
25F4
6444
A444
25F4
2404
25F4
2514
25F4
2804
2814
3008
0000
0000
ENDCHAR
STARTCHAR U+501E
ENCODING 20510
SWIDTH 1000 0
DWIDTH 16 0
BBX 16 16 0 -2
BITMAP
0820
0BFE
1000
31FC
5104
9104
11FC
1020
10A8
1124
1222
1020
10A0
1040
0000
0000
ENDCHAR
STARTCHAR U+501F
ENCODING 20511
SWIDTH 1000 0
DWIDTH 16 0
BBX 16 16 0 -2
BITMAP
1110
17FC
1110
2110
6FFE
A000
23F8
2208
2208
23F8
2208
2208
23F8
2208
0000
0000
ENDCHAR
STARTCHAR U+5020
ENCODING 20512
SWIDTH 1000 0
DWIDTH 16 0
BBX 16 16 0 -2
BITMAP
1100
1120
2210
67FE
AA10
2210
23FE
2210
2210
23FE
2210
2210
23FE
2200
0000
0000
ENDCHAR
STARTCHAR U+5021
ENCODING 20513
SWIDTH 1000 0
DWIDTH 16 0
BBX 16 16 0 -2
BITMAP
13F8
1208
23F8
2208
6208
A3F8
2000
27FC
2404
27FC
2404
2404
27FC
2404
0000
0000
ENDCHAR
STARTCHAR U+5022
ENCODING 20514
SWIDTH 1000 0
DWIDTH 16 0
BBX 16 16 0 -2
BITMAP
2040
2FFE
4040
87FC
4044
4FFE
4044
47FC
4040
4240
427C
4540
48C0
507E
0000
0000
ENDCHAR
STARTCHAR U+5023
ENCODING 20515
SWIDTH 1000 0
DWIDTH 16 0
BBX 16 16 0 -2
BITMAP
2810
2420
427E
9F84
4804
4F24
4924
4924
4924
4924
4918
5118
4524
4242
0000
0000
ENDCHAR
STARTCHAR U+5025
ENCODING 20517
SWIDTH 1000 0
DWIDTH 16 0
BBX 16 16 0 -2
BITMAP
1080
1040
17FE
2402
6914
A208
2404
2000
23F8
2040
2040
2044
2FFE
2000
0000
0000
ENDCHAR
STARTCHAR U+5026
ENCODING 20518
SWIDTH 1000 0
DWIDTH 16 0
BBX 16 16 0 -2
BITMAP
1248
1150
17FC
2080
6FFE
A110
2208
25F6
2914
2110
2150
2124
2104
20FC
0000
0000
ENDCHAR
STARTCHAR U+5027
ENCODING 20519
SWIDTH 1000 0
DWIDTH 16 0
BBX 16 16 0 -2
BITMAP
1040
1020
23FE
6202
A202
20F8
2000
23FE
2020
20A8
2124
2222
2020
2020
0000
0000
ENDCHAR
STARTCHAR U+5028
ENCODING 20520
SWIDTH 1000 0
DWIDTH 16 0
BBX 16 16 0 -2
BITMAP
0804
0BFE
1204
13FC
3224
5220
93FE
1220
1224
13FE
1304
1504
19FC
1104
0000
0000
ENDCHAR
STARTCHAR U+5029
ENCODING 20521
SWIDTH 1000 0
DWIDTH 16 0
BBX 16 16 0 -2
BITMAP
0840
0FFC
1040
13F8
3040
5FFE
9000
13F8
1208
13F8
1208
13F8
1208
1210
0000
0000
ENDCHAR
STARTCHAR U+502A
ENCODING 20522
SWIDTH 1000 0
DWIDTH 16 0
BBX 16 16 0 -2
BITMAP
0840
0884
0B3E
1204
33BC
5204
9204
13FC
1294
1090
1090
1112
1212
140E
0000
0000
ENDCHAR
STARTCHAR U+502B
ENCODING 20523
SWIDTH 1000 0
DWIDTH 16 0
BBX 16 16 0 -2
BITMAP
1040
10A0
2110
4208
A406
2BFA
2000
27FC
24A4
24A4
27FC
24A4
24A4
2408
0000
0000
ENDCHAR
STARTCHAR U+502C
ENCODING 20524
SWIDTH 1000 0
DWIDTH 16 0
BBX 16 16 0 -2
BITMAP
0840
087C
1040
13F8
3208
53F8
9208
13F8
1240
1044
1FFE
1040
1040
1040
0000
0000
ENDCHAR
STARTCHAR U+502D
ENCODING 20525
SWIDTH 1000 0
DWIDTH 16 0
BBX 16 16 0 -2
BITMAP
0818
0BE0
1040
17FC
3150
5248
9446
1080
1FFE
1210
11A0
1040
11B0
1608
0000
0000
ENDCHAR
STARTCHAR U+502F
ENCODING 20527
SWIDTH 1000 0
DWIDTH 16 0
BBX 16 16 0 -2
BITMAP
1400
2410
4428
8444
5F82
4400
4410
4E10
5510
4410
4420
4444
44FE
4402
0000
0000
ENDCHAR
STARTCHAR U+5030
ENCODING 20528
SWIDTH 1000 0
DWIDTH 16 0
BBX 16 16 0 -2
BITMAP
0820
0820
11FC
2020
63FE
A144
227A
2088
2188
2250
2020
2050
218E
2E04
0000
0000
ENDCHAR
STARTCHAR U+5031
ENCODING 20529
SWIDTH 1000 0
DWIDTH 16 0
BBX 16 16 0 -2
BITMAP
1000
13FC
2204
63FC
A204
23FC
2000
2420
2420
27BE
2420
2420
2FA2
243E
0000
0000
ENDCHAR
STARTCHAR U+5033
ENCODING 20531
SWIDTH 1000 0
DWIDTH 16 0
BBX 16 16 0 -2
BITMAP
1040
17FC
2040
67FC
A444
27FC
2040
27FC
2044
2FFE
2044
27FC
2040
20C0
0000
0000
ENDCHAR
STARTCHAR U+5035
ENCODING 20533
SWIDTH 1000 0
DWIDTH 16 0
BBX 16 16 0 -2
BITMAP
2024
2FA2
4020
CFFE
4020
4220
4220
4BA0
4A20
4A90
4B12
5E0A
4006
4002
0000
0000
ENDCHAR
STARTCHAR U+5037
ENCODING 20535
SWIDTH 1000 0
DWIDTH 16 0
BBX 16 16 0 -2
BITMAP
2040
2FFE
40A0
8110
4208
4DF6
4000
47FC
4040
4150
4248
4C46
4040
4040
0000
0000
ENDCHAR
STARTCHAR U+503C
ENCODING 20540
SWIDTH 1000 0
DWIDTH 16 0
BBX 16 16 0 -2
BITMAP
1040
1044
17FE
2080
63F8
A208
23F8
2208
23F8
2208
23F8
2208
2FFE
2000
0000
0000
ENDCHAR
STARTCHAR U+5040
ENCODING 20544
SWIDTH 1000 0
DWIDTH 16 0
BBX 16 16 0 -2
BITMAP
1110
2FFE
4110
C040
47FC
4444
4444
4444
5FFE
40A0
4110
4208
4404
4802
0000
0000
ENDCHAR
STARTCHAR U+5041
ENCODING 20545
SWIDTH 1000 0
DWIDTH 16 0
BBX 16 16 0 -2
BITMAP
2002
2FFC
4442
8224
4040
47FC
4444
47FC
4444
5FFE
4404
4404
4414
4408
0000
0000
ENDCHAR
STARTCHAR U+5043
ENCODING 20547
SWIDTH 1000 0
DWIDTH 16 0
BBX 16 16 0 -2
BITMAP
17FE
1400
25FC
6504
A5FC
2504
25FC
2440
27FE
2488
2590
2460
2598
27FE
0000
0000
ENDCHAR
STARTCHAR U+5045
ENCODING 20549
SWIDTH 1000 0
DWIDTH 16 0
BBX 16 16 0 -2
BITMAP
0808
09F0
0820
13FE
3020
51FC
9124
11FC
1124
11FC
1020
11FC
1020
13FE
0000
0000
ENDCHAR
STARTCHAR U+5046
ENCODING 20550
SWIDTH 1000 0
DWIDTH 16 0
BBX 16 16 0 -2
BITMAP
1080
27F8
4080
8FFC
4080
5FFE
4210
4408
4BF4
5212
43F0
4210
43F0
4210
0000
0000
ENDCHAR
STARTCHAR U+5047
ENCODING 20551
SWIDTH 1000 0
DWIDTH 16 0
BBX 16 16 0 -2
BITMAP
1004
17BE
1484
2484
67BC
A400
247C
2784
2428
27A8
2410
2428
24C6
2404
0000
0000
ENDCHAR
STARTCHAR U+5048
ENCODING 20552
SWIDTH 1000 0
DWIDTH 16 0
BBX 16 16 0 -2
BITMAP
0BFC
0A08
13F8
1208
33F8
5100
9104
13FE
1444
1A44
12A4
13E4
1014
1008
0000
0000
ENDCHAR
STARTCHAR U+5049
ENCODING 20553
SWIDTH 1000 0
DWIDTH 16 0
BBX 16 16 0 -2
BITMAP
2040
27FC
4044
CFFE
4000
47FC
4404
47FC
4040
47FC
4440
4440
47FE
4040
0000
0000
ENDCHAR
STARTCHAR U+504A
ENCODING 20554
SWIDTH 1000 0
DWIDTH 16 0
BBX 16 16 0 -2
BITMAP
1004
27F8
4040
87FC
4444
4444
47FC
4040
4FFE
484A
4BFA
480A
4802
4804
0000
0000
ENDCHAR
STARTCHAR U+504B
ENCODING 20555
SWIDTH 1000 0
DWIDTH 16 0
BBX 16 16 0 -2
BITMAP
17FE
1402
27FE
6484
A448
25FE
2448
2448
27FE
2448
2448
2488
2908
2008
0000
0000
ENDCHAR
STARTCHAR U+504C
ENCODING 20556
SWIDTH 1000 0
DWIDTH 16 0
BBX 16 16 0 -2
BITMAP
1110
1110
27FC
6110
A150
2080
2FFE
2100
2208
23FC
2608
2A08
23F8
2208
0000
0000
ENDCHAR
STARTCHAR U+504D
ENCODING 20557
SWIDTH 1000 0
DWIDTH 16 0
BBX 16 16 0 -2
BITMAP
13F8
2208
43F8
8208
43F8
4000
4FFE
4040
4240
427C
4240
4540
48C0
507E
0000
0000
ENDCHAR
STARTCHAR U+504E
ENCODING 20558
SWIDTH 1000 0
DWIDTH 16 0
BBX 16 16 0 -2
BITMAP
1008
13FC
2248
63F8
A248
23F8
2000
2FFE
2288
2250
2220
2290
270E
2204
0000
0000
ENDCHAR
STARTCHAR U+504F
ENCODING 20559
SWIDTH 1000 0
DWIDTH 16 0
BBX 16 16 0 -2
BITMAP
1018
17E0
17FC
2404
67FC
A400
2404
27FE
2694
2A94
2BFC
2A94
3294
220C
0000
0000
ENDCHAR
STARTCHAR U+5051
ENCODING 20561
SWIDTH 1000 0
DWIDTH 16 0
BBX 16 16 0 -2
BITMAP
17FC
140C
25F4
6444
A444
25F4
2554
2554
25F4
2444
244A
25FA
240A
2802
0000
0000
ENDCHAR
STARTCHAR U+5053
ENCODING 20563
SWIDTH 1000 0
DWIDTH 16 0
BBX 16 16 0 -2
BITMAP
17FE
2402
47FE
8400
45FC
4440
4484
45FC
4422
4420
49FC
5020
4020
43FE
0000
0000
ENDCHAR
STARTCHAR U+5055
ENCODING 20565
SWIDTH 1000 0
DWIDTH 16 0
BBX 16 16 0 -2
BITMAP
1220
1224
23BE
6220
A2A2
2322
225E
2080
23F8
2208
23F8
2208
23F8
2208
0000
0000
ENDCHAR
STARTCHAR U+5057
ENCODING 20567
SWIDTH 1000 0
DWIDTH 16 0
BBX 16 16 0 -2
BITMAP
1040
1148
2254
6462
A040
2080
21FC
2304
25FC
2904
21FC
2104
21FC
2104
0000
0000
ENDCHAR
STARTCHAR U+505A
ENCODING 20570
SWIDTH 1000 0
DWIDTH 16 0
BBX 16 16 0 -2
BITMAP
2420
2420
4420
DF3E
4444
4404
4424
5F24
5124
5128
5110
5F28
5144
4082
0000
0000
ENDCHAR
STARTCHAR U+505B
ENCODING 20571
SWIDTH 1000 0
DWIDTH 16 0
BBX 16 16 0 -2
BITMAP
1000
27FC
4040
8040
4FFE
4040
444E
4842
4842
4F5E
4842
4842
4FFE
4802
0000
0000
ENDCHAR
STARTCHAR U+505C
ENCODING 20572
SWIDTH 1000 0
DWIDTH 16 0
BBX 16 16 0 -2
BITMAP
1080
1048
17FC
2000
63F8
A208
23F8
2000
2FFE
2802
33F4
2040
2040
21C0
0000
0000
ENDCHAR
STARTCHAR U+505D
ENCODING 20573
SWIDTH 1000 0
DWIDTH 16 0
BBX 16 16 0 -2
BITMAP
1090
179E
2090
6092
A79E
2000
23FC
2204
23FC
2204
23FC
2204
2214
2408
0000
0000
ENDCHAR
STARTCHAR U+505E
ENCODING 20574
SWIDTH 1000 0
DWIDTH 16 0
BBX 16 16 0 -2
BITMAP
1490
2490
4FFE
8490
44F0
4400
47FC
4040
4FFE
4150
4248
4444
4842
4040
0000
0000
ENDCHAR
STARTCHAR U+505F
ENCODING 20575
SWIDTH 1000 0
DWIDTH 16 0
BBX 16 16 0 -2
BITMAP
1100
1200
27FC
4C04
C7FC
4404
47FC
4000
47FC
4040
47FC
4040
4040
4FFE
0000
0000
ENDCHAR
STARTCHAR U+5060
ENCODING 20576
SWIDTH 1000 0
DWIDTH 16 0
BBX 16 16 0 -2
BITMAP
2FFE
20A0
4FFE
C8A2
48A2
4FFE
4100
4110
4FFE
4110
40A0
4040
40A0
4F1C
0000
0000
ENDCHAR
STARTCHAR U+5061
ENCODING 20577
SWIDTH 1000 0
DWIDTH 16 0
BBX 16 16 0 -2
BITMAP
1110
1110
2FFE
4110
81F0
4110
41F0
4110
4FFE
44A0
44A0
453C
4400
47FE
0000
0000
ENDCHAR
STARTCHAR U+5062
ENCODING 20578
SWIDTH 1000 0
DWIDTH 16 0
BBX 16 16 0 -2
BITMAP
1080
2F10
4210
8254
4254
5FD4
4238
4710
4A90
5210
4228
4244
4282
4282
0000
0000
ENDCHAR
STARTCHAR U+5063
ENCODING 20579
SWIDTH 1000 0
DWIDTH 16 0
BBX 16 16 0 -2
BITMAP
2040
2040
4FFE
8208
4208
4110
4FFE
4000
47FC
4404
47FC
4404
47FC
4404
0000
0000
ENDCHAR
STARTCHAR U+5064
ENCODING 20580
SWIDTH 1000 0
DWIDTH 16 0
BBX 16 16 0 -2
BITMAP
1208
2110
4FFE
80A0
47FC
44A4
44A4
4524
463C
4404
44E4
4404
47FC
4404
0000
0000
ENDCHAR
STARTCHAR U+5065
ENCODING 20581
SWIDTH 1000 0
DWIDTH 16 0
BBX 16 16 0 -2
BITMAP
1020
10FC
2E24
23FE
6224
A4FC
2820
2EFC
2220
3220
2DFE
2A20
3120
20FE
0000
0000
ENDCHAR
STARTCHAR U+5068
ENCODING 20584
SWIDTH 1000 0
DWIDTH 16 0
BBX 16 16 0 -2
BITMAP
1220
2220
4220
8BBE
4A20
4A22
5FBE
4040
4040
4FFE
4248
4444
4842
4040
0000
0000
ENDCHAR
STARTCHAR U+5069
ENCODING 20585
SWIDTH 1000 0
DWIDTH 16 0
BBX 16 16 0 -2
BITMAP
1200
27F8
4810
8020
47FC
4404
47FC
4404
47FC
4404
47FC
4208
4404
4802
0000
0000
ENDCHAR
STARTCHAR U+506A
ENCODING 20586
SWIDTH 1000 0
DWIDTH 16 0
BBX 16 16 0 -2
BITMAP
0BFE
1000
21FC
C104
21FC
2000
23FE
2222
2222
23FE
2222
2222
23FE
2202
0000
0000
ENDCHAR
STARTCHAR U+506B
ENCODING 20587
SWIDTH 1000 0
DWIDTH 16 0
BBX 16 16 0 -2
BITMAP
2210
2410
487C
D210
42FE
4400
4C08
54FE
4448
4428
4408
4408
4428
4410
0000
0000
ENDCHAR
STARTCHAR U+506D
ENCODING 20589
SWIDTH 1000 0
DWIDTH 16 0
BBX 16 16 0 -2
BITMAP
2004
2FFE
4080
C100
4200
4FFE
4922
49E2
4922
4922
49E2
4922
4FFE
4802
0000
0000
ENDCHAR
STARTCHAR U+506E
ENCODING 20590
SWIDTH 1000 0
DWIDTH 16 0
BBX 16 16 0 -2
BITMAP
0800
13F8
2208
63F8
A000
27FE
2208
23F8
2208
23F8
2208
2FFE
2008
2008
0000
0000
ENDCHAR
STARTCHAR U+506F
ENCODING 20591
SWIDTH 1000 0
DWIDTH 16 0
BBX 16 16 0 -2
BITMAP
1080
1040
27FC
6000
A3F8
2208
2208
23F8
2080
2104
2328
2D10
2148
2386
0000
0000
ENDCHAR
STARTCHAR U+5070
ENCODING 20592
SWIDTH 1000 0
DWIDTH 16 0
BBX 16 16 0 -2
BITMAP
1200
2FBE
4212
8F92
4212
4FA2
420C
4040
4FFE
4040
40A0
4110
4208
4C06
0000
0000
ENDCHAR
STARTCHAR U+5072
ENCODING 20594
SWIDTH 1000 0
DWIDTH 16 0
BBX 16 16 0 -2
BITMAP
17FC
2444
4444
87FC
4444
4444
47FC
4000
4000
4944
4924
4902
4908
41F8
0000
0000
ENDCHAR
STARTCHAR U+5073
ENCODING 20595
SWIDTH 1000 0
DWIDTH 16 0
BBX 16 16 0 -2
BITMAP
1040
1442
2442
67FE
A000
27FE
2040
2080
27FE
2492
2492
2492
2492
2404
0000
0000
ENDCHAR
STARTCHAR U+5074
ENCODING 20596
SWIDTH 1000 0
DWIDTH 16 0
BBX 16 16 0 -2
BITMAP
1000
1002
17C2
2442
2452
67D2
A452
27D2
2452
2442
27C2
2282
244A
2844
0000
0000
ENDCHAR
STARTCHAR U+5075
ENCODING 20597
SWIDTH 1000 0
DWIDTH 16 0
BBX 16 16 0 -2
BITMAP
0840
1040
207C
6040
A7FC
2404
27FC
2404
27FC
2404
27FC
2208
2404
2802
0000
0000
ENDCHAR
STARTCHAR U+5076
ENCODING 20598
SWIDTH 1000 0
DWIDTH 16 0
BBX 16 16 0 -2
BITMAP
13FC
1244
23FC
6244
A244
23FC
2440
2FFE
2442
244A
25FA
2402
240A
2404
0000
0000
ENDCHAR
STARTCHAR U+5077
ENCODING 20599
SWIDTH 1000 0
DWIDTH 16 0
BBX 16 16 0 -2
BITMAP
1080
1140
2220
2410
6BEE
B004
2788
24A8
27A8
24A8
27A8
2488
24A8
2990
0000
0000
ENDCHAR
STARTCHAR U+507A
ENCODING 20602
SWIDTH 1000 0
DWIDTH 16 0
BBX 16 16 0 -2
BITMAP
1200
13C8
1248
2688
6914
A2A2
2440
283E
2000
27FC
2404
27FC
2404
27FC
0000
0000
ENDCHAR
STARTCHAR U+507D
ENCODING 20605
SWIDTH 1000 0
DWIDTH 16 0
BBX 16 16 0 -2
BITMAP
1220
1120
2020
47FC
4048
C088
41FC
4204
45FE
4802
52AA
44AA
4004
4038
0000
0000
ENDCHAR
STARTCHAR U+5080
ENCODING 20608
SWIDTH 1000 0
DWIDTH 16 0
BBX 16 16 0 -2
BITMAP
1080
1108
17FC
2448
67F8
A448
27F8
2488
2080
2150
2168
227A
2442
283E
0000
0000
ENDCHAR
STARTCHAR U+5082
ENCODING 20610
SWIDTH 1000 0
DWIDTH 16 0
BBX 16 16 0 -2
BITMAP
1002
2FFC
4420
843C
4420
45FE
4522
4578
4520
453C
4500
4528
492A
524E
0000
0000
ENDCHAR
STARTCHAR U+5083
ENCODING 20611
SWIDTH 1000 0
DWIDTH 16 0
BBX 16 16 0 -2
BITMAP
1040
17FC
2040
67FC
A040
2FFE
2104
27F8
2022
27FE
2040
2248
2C46
2040
0000
0000
ENDCHAR
STARTCHAR U+5085
ENCODING 20613
SWIDTH 1000 0
DWIDTH 16 0
BBX 16 16 0 -2
BITMAP
0850
0FFE
1040
17FC
3444
57FC
9444
17FC
1444
1010
1FFE
1110
1050
1020
0000
0000
ENDCHAR
STARTCHAR U+5087
ENCODING 20615
SWIDTH 1000 0
DWIDTH 16 0
BBX 16 16 0 -2
BITMAP
1090
17FE
2090
4000
A7FE
2108
21F8
2108
21F8
2108
2108
27FE
2008
2008
0000
0000
ENDCHAR
STARTCHAR U+508B
ENCODING 20619
SWIDTH 1000 0
DWIDTH 16 0
BBX 16 16 0 -2
BITMAP
1110
17FC
2110
67FC
A110
2FFE
2040
27FC
2444
27FC
2444
2FFE
2404
2408
0000
0000
ENDCHAR
STARTCHAR U+508C
ENCODING 20620
SWIDTH 1000 0
DWIDTH 16 0
BBX 16 16 0 -2
BITMAP
1404
27FE
4420
87FE
4420
47FE
4420
47FE
4002
4AA2
4A92
4A92
4002
401C
0000
0000
ENDCHAR
STARTCHAR U+508D
ENCODING 20621
SWIDTH 1000 0
DWIDTH 16 0
BBX 16 16 0 -2
BITMAP
1040
13FC
2108
2090
67FE
A442
2020
27FC
2100
21FC
2104
2204
2428
2010
0000
0000
ENDCHAR
STARTCHAR U+508E
ENCODING 20622
SWIDTH 1000 0
DWIDTH 16 0
BBX 16 16 0 -2
BITMAP
1040
27FC
4040
C3F8
4208
43F8
4208
43F8
4208
43F8
4208
4FFE
4208
4404
0000
0000
ENDCHAR
STARTCHAR U+5091
ENCODING 20625
SWIDTH 1000 0
DWIDTH 16 0
BBX 16 16 0 -2
BITMAP
2208
2208
47BE
C8A8
5528
423E
4408
4848
4FFE
4150
4248
4C46
4842
4040
0000
0000
ENDCHAR
STARTCHAR U+5092
ENCODING 20626
SWIDTH 1000 0
DWIDTH 16 0
BBX 16 16 0 -2
BITMAP
2FF2
2886
4448
C100
4210
47E0
4040
4084
47FC
4040
4FFE
4110
4208
4C06
0000
0000
ENDCHAR
STARTCHAR U+5094
ENCODING 20628
SWIDTH 1000 0
DWIDTH 16 0
BBX 16 16 0 -2
BITMAP
1110
2110
4FFE
80A0
47FC
40A4
4FFE
40A4
47FC
40A0
42A8
44A4
48A2
40A0
0000
0000
ENDCHAR
STARTCHAR U+5095
ENCODING 20629
SWIDTH 1000 0
DWIDTH 16 0
BBX 16 16 0 -2
BITMAP
1040
2040
4FFE
8882
4120
4220
47FC
4A20
53FC
4220
43FC
4220
4220
43FC
0000
0000
ENDCHAR
STARTCHAR U+5096
ENCODING 20630
SWIDTH 1000 0
DWIDTH 16 0
BBX 16 16 0 -2
BITMAP
11F0
1208
2444
4BFA
A208
23F8
2208
23F8
2400
2BF8
3208
2208
23F8
2208
0000
0000
ENDCHAR
STARTCHAR U+5098
ENCODING 20632
SWIDTH 1000 0
DWIDTH 16 0
BBX 16 16 0 -2
BITMAP
0380
0440
0920
1110
2928
4924
9552
2388
0920
1550
2388
FFFE
0100
0100
0000
0000
ENDCHAR
STARTCHAR U+5099
ENCODING 20633
SWIDTH 1000 0
DWIDTH 16 0
BBX 16 16 0 -2
BITMAP
2110
27FC
4110
CFFE
4200
47FC
4A44
53FC
4244
43FC
4244
4244
4454
4008
0000
0000
ENDCHAR
STARTCHAR U+509A
ENCODING 20634
SWIDTH 1000 0
DWIDTH 16 0
BBX 16 16 0 -2
BITMAP
2410
2210
5FBE
8544
4884
5144
4924
4924
4924
4924
4524
4218
4518
58E6
0000
0000
ENDCHAR
STARTCHAR U+509B
ENCODING 20635
SWIDTH 1000 0
DWIDTH 16 0
BBX 16 16 0 -2
BITMAP
1040
2FFE
4802
88A2
4110
4248
44A4
4110
4208
4404
4BFA
4208
4208
43F8
0000
0000
ENDCHAR
STARTCHAR U+509C
ENCODING 20636
SWIDTH 1000 0
DWIDTH 16 0
BBX 16 16 0 -2
BITMAP
1080
11FC
2288
4E50
C120
4740
4400
47FC
4440
4840
4FFE
4040
4444
47FC
0000
0000
ENDCHAR
STARTCHAR U+509D
ENCODING 20637
SWIDTH 1000 0
DWIDTH 16 0
BBX 16 16 0 -2
BITMAP
17FC
2404
47FC
8404
47FC
4000
4000
4FBE
4082
469A
4186
4EBA
4082
471C
0000
0000
ENDCHAR
STARTCHAR U+509E
ENCODING 20638
SWIDTH 1000 0
DWIDTH 16 0
BBX 16 16 0 -2
BITMAP
1208
2110
47FC
C040
47FC
4040
47FC
4080
4108
43FC
4C20
4020
4024
47FE
0000
0000
ENDCHAR
STARTCHAR U+50A2
ENCODING 20642
SWIDTH 1000 0
DWIDTH 16 0
BBX 16 16 0 -2
BITMAP
2080
2040
4FFE
C802
53F4
4080
4180
46C4
4128
4270
4CA8
4126
4622
40C0
0000
0000
ENDCHAR
STARTCHAR U+50A3
ENCODING 20643
SWIDTH 1000 0
DWIDTH 16 0
BBX 16 16 0 -2
BITMAP
2080
2FFC
2080
4FF8
C100
5FFE
4490
4C9E
52A4
41C0
42A0
4490
588E
4104
0000
0000
ENDCHAR
STARTCHAR U+50AC
ENCODING 20652
SWIDTH 1000 0
DWIDTH 16 0
BBX 16 16 0 -2
BITMAP
0820
0924
1124
11FC
30A0
5110
93FE
1520
19FC
1120
11FC
1120
11FE
1100
0000
0000
ENDCHAR
STARTCHAR U+50AD
ENCODING 20653
SWIDTH 1000 0
DWIDTH 16 0
BBX 16 16 0 -2
BITMAP
1020
27FE
65FC
A424
25FE
2424
25FC
2420
25FC
2524
25FC
2524
25FC
2924
0000
0000
ENDCHAR
STARTCHAR U+50AE
ENCODING 20654
SWIDTH 1000 0
DWIDTH 16 0
BBX 16 16 0 -2
BITMAP
0888
13FE
2088
63FE
A28A
23FE
228A
23FE
2000
21FC
2104
21FC
2104
21FC
0000
0000
ENDCHAR
STARTCHAR U+50AF
ENCODING 20655
SWIDTH 1000 0
DWIDTH 16 0
BBX 16 16 0 -2
BITMAP
1200
17FC
2544
6C8C
A554
2624
2454
27FC
2000
2100
2544
2522
2908
30F8
0000
0000
ENDCHAR
STARTCHAR U+50B0
ENCODING 20656
SWIDTH 1000 0
DWIDTH 16 0
BBX 16 16 0 -2
BITMAP
1040
2842
4842
CFFE
4000
4FBE
48A2
4FBE
48A2
4FBE
48A2
48A2
48A2
50C6
0000
0000
ENDCHAR
STARTCHAR U+50B1
ENCODING 20657
SWIDTH 1000 0
DWIDTH 16 0
BBX 16 16 0 -2
BITMAP
0944
1244
2444
60AA
A110
2200
2610
2A90
229E
2290
2290
2350
2230
221E
0000
0000
ENDCHAR
STARTCHAR U+50B2
ENCODING 20658
SWIDTH 1000 0
DWIDTH 16 0
BBX 16 16 0 -2
BITMAP
1210
1210
3FE0
223E
6F84
A424
3FE4
2428
27A8
2490
2890
28A8
3328
2046
0000
0000
ENDCHAR
STARTCHAR U+50B3
ENCODING 20659
SWIDTH 1000 0
DWIDTH 16 0
BBX 16 16 0 -2
BITMAP
1040
1FFE
2040
67FC
A7F4
2444
27FC
2042
2FFE
2008
2FFE
2208
2008
2030
0000
0000
ENDCHAR
STARTCHAR U+50B4
ENCODING 20660
SWIDTH 1000 0
DWIDTH 16 0
BBX 16 16 0 -2
BITMAP
1004
27FE
4400
A4F8
2488
24F8
2400
25DC
2554
2554
25DC
2400
27FE
2000
0000
0000
ENDCHAR
STARTCHAR U+50B5
ENCODING 20661
SWIDTH 1000 0
DWIDTH 16 0
BBX 16 16 0 -2
BITMAP
0820
13FE
2020
63FE
A020
23FE
21FC
2104
217C
21F4
2104
21FC
2104
2202
0000
0000
ENDCHAR
STARTCHAR U+50B6
ENCODING 20662
SWIDTH 1000 0
DWIDTH 16 0
BBX 16 16 0 -2
BITMAP
1014
1012
27FE
6410
A490
24F0
2490
27F0
2490
25D2
26B4
2488
2896
21A2
0000
0000
ENDCHAR
STARTCHAR U+50B7
ENCODING 20663
SWIDTH 1000 0
DWIDTH 16 0
BBX 16 16 0 -2
BITMAP
0900
11FE
2200
65FC
A104
21FC
2104
21FC
27FE
2100
23FE
244A
2092
2004
0000
0000
ENDCHAR
STARTCHAR U+50B8
ENCODING 20664
SWIDTH 1000 0
DWIDTH 16 0
BBX 16 16 0 -2
BITMAP
0820
0820
13FE
32AA
5124
92AA
1020
12AA
1124
12AA
1050
1088
1104
1202
0000
0000
ENDCHAR
STARTCHAR U+50BA
ENCODING 20666
SWIDTH 1000 0
DWIDTH 16 0
BBX 16 16 0 -2
BITMAP
1220
13BC
24A4
66A8
A910
2510
2208
25F6
2800
27FC
2150
224C
2444
2040
0000
0000
ENDCHAR
STARTCHAR U+50BB
ENCODING 20667
SWIDTH 1000 0
DWIDTH 16 0
BBX 16 16 0 -2
BITMAP
1080
17FE
2514
24E4
6514
A7FC
2208
2506
29FA
2290
2460
2090
230E
2C04
0000
0000
ENDCHAR
STARTCHAR U+50BD
ENCODING 20669
SWIDTH 1000 0
DWIDTH 16 0
BBX 16 16 0 -2
BITMAP
1040
2FFE
4208
CFFE
4000
47FC
4404
47FC
4404
47FC
4040
4FFE
4040
4040
0000
0000
ENDCHAR
STARTCHAR U+50BE
ENCODING 20670
SWIDTH 1000 0
DWIDTH 16 0
BBX 16 16 0 -2
BITMAP
10FE
1010
2420
647C
A444
2744
247C
2444
247C
2544
2E7C
2428
2044
2084
0000
0000
ENDCHAR
STARTCHAR U+50BF
ENCODING 20671
SWIDTH 1000 0
DWIDTH 16 0
BBX 16 16 0 -2
BITMAP
1FFE
2040
4278
C240
4FFE
4200
43F8
4200
43FE
4002
4A52
4A52
4002
403C
0000
0000
ENDCHAR
STARTCHAR U+50C1
ENCODING 20673
SWIDTH 1000 0
DWIDTH 16 0
BBX 16 16 0 -2
BITMAP
2010
47E0
C842
4444
4FFE
40E0
4150
4248
4C46
4200
4A84
4A42
5208
43F8
0000
0000
ENDCHAR
STARTCHAR U+50C2
ENCODING 20674
SWIDTH 1000 0
DWIDTH 16 0
BBX 16 16 0 -2
BITMAP
0840
13F8
2248
67FC
A248
23F8
27FC
2444
27FC
2150
27FC
20A0
2040
27BC
0000
0000
ENDCHAR
STARTCHAR U+50C4
ENCODING 20676
SWIDTH 1000 0
DWIDTH 16 0
BBX 16 16 0 -2
BITMAP
17FC
20A0
47FC
C4A4
47FC
4000
47FC
4000
4FFE
4248
4444
4842
4040
4040
0000
0000
ENDCHAR
STARTCHAR U+50C5
ENCODING 20677
SWIDTH 1000 0
DWIDTH 16 0
BBX 16 16 0 -2
BITMAP
0908
17FE
2108
61F8
A020
23FC
2224
23FC
2020
23FC
2020
23FC
2020
27FE
0000
0000
ENDCHAR
STARTCHAR U+50C6
ENCODING 20678
SWIDTH 1000 0
DWIDTH 16 0
BBX 16 16 0 -2
BITMAP
1020
2BFE
4420
C1FC
5D24
45FC
4924
51FC
4820
47FE
4420
4820
5400
63FE
0000
0000
ENDCHAR
STARTCHAR U+50C7
ENCODING 20679
SWIDTH 1000 0
DWIDTH 16 0
BBX 16 16 0 -2
BITMAP
17BE
1082
2492
628A
A492
2164
2090
2128
2646
21A2
2050
21A0
2040
2380
0000
0000
ENDCHAR
STARTCHAR U+50C8
ENCODING 20680
SWIDTH 1000 0
DWIDTH 16 0
BBX 16 16 0 -2
BITMAP
17FC
2404
45F4
C404
45F4
4FFE
4912
4FFE
4000
43F8
4110
40A0
4040
47BC
0000
0000
ENDCHAR
STARTCHAR U+50C9
ENCODING 20681
SWIDTH 1000 0
DWIDTH 16 0
BBX 16 16 0 -2
BITMAP
0380
0440
0820
1010
2FE8
4004
BEFA
2288
2288
3EF8
0000
0820
1450
628C
0000
0000
ENDCHAR
STARTCHAR U+50CA
ENCODING 20682
SWIDTH 1000 0
DWIDTH 16 0
BBX 16 16 0 -2
BITMAP
17FC
20A0
47FC
C4A4
47FC
4100
4FFE
4208
45F4
4912
4150
4122
4102
41FE
0000
0000
ENDCHAR
STARTCHAR U+50CB
ENCODING 20683
SWIDTH 1000 0
DWIDTH 16 0
BBX 16 16 0 -2
BITMAP
0870
1088
2174
6202
A4F8
2010
21FC
2104
21FC
21FC
2104
21FC
2104
2202
0000
0000
ENDCHAR
STARTCHAR U+50CE
ENCODING 20686
SWIDTH 1000 0
DWIDTH 16 0
BBX 16 16 0 -2
BITMAP
0BDE
1252
2252
63DE
A210
2210
23DE
2088
23FE
2088
23FE
2088
2104
2202
0000
0000
ENDCHAR
STARTCHAR U+50CF
ENCODING 20687
SWIDTH 1000 0
DWIDTH 16 0
BBX 16 16 0 -2
BITMAP
1200
13F0
2420
6FFC
A444
27FC
2180
2244
24A8
2130
26A8
2126
2622
20C0
0000
0000
ENDCHAR
STARTCHAR U+50D1
ENCODING 20689
SWIDTH 1000 0
DWIDTH 16 0
BBX 16 16 0 -2
BITMAP
1008
13F0
2080
67FC
A110
23F8
2516
29F2
27FC
2404
25E4
2524
25E4
2418
0000
0000
ENDCHAR
STARTCHAR U+50D3
ENCODING 20691
SWIDTH 1000 0
DWIDTH 16 0
BBX 16 16 0 -2
BITMAP
1040
17FC
2444
67FC
A040
2FFE
27FC
2404
27F4
27F4
2404
27FC
2208
2404
0000
0000
ENDCHAR
STARTCHAR U+50D4
ENCODING 20692
SWIDTH 1000 0
DWIDTH 16 0
BBX 16 16 0 -2
BITMAP
1110
2FFE
60A0
A7FC
24A4
2514
24E4
2404
27FC
2008
2FFE
2408
2208
2038
0000
0000
ENDCHAR
STARTCHAR U+50D5
ENCODING 20693
SWIDTH 1000 0
DWIDTH 16 0
BBX 16 16 0 -2
BITMAP
14A4
12A8
2FFE
6208
A110
27FC
2040
27FC
2040
2FFE
2090
2108
2206
2C02
0000
0000
ENDCHAR
STARTCHAR U+50D6
ENCODING 20694
SWIDTH 1000 0
DWIDTH 16 0
BBX 16 16 0 -2
BITMAP
0820
13FE
2020
61FC
A000
21FC
2104
21FC
2088
23FE
2000
21FC
2104
21FC
0000
0000
ENDCHAR
STARTCHAR U+50D7
ENCODING 20695
SWIDTH 1000 0
DWIDTH 16 0
BBX 16 16 0 -2
BITMAP
1208
2AAA
671C
A208
2514
28A2
2000
2FFE
2882
27FC
2084
2104
2204
2418
0000
0000
ENDCHAR
STARTCHAR U+50DA
ENCODING 20698
SWIDTH 1000 0
DWIDTH 16 0
BBX 16 16 0 -2
BITMAP
1080
1FFC
2140
2A28
6410
AFFE
3414
27F0
2410
27F0
22A0
2498
2A88
2100
0000
0000
ENDCHAR
STARTCHAR U+50DB
ENCODING 20699
SWIDTH 1000 0
DWIDTH 16 0
BBX 16 16 0 -2
BITMAP
28A0
28A0
5FFE
C8A2
488A
4F8A
4888
4888
4F88
4888
4888
5FC8
4514
48A2
0000
0000
ENDCHAR
STARTCHAR U+50DD
ENCODING 20701
SWIDTH 1000 0
DWIDTH 16 0
BBX 16 16 0 -2
BITMAP
17FE
1402
27FE
6400
A4F8
2410
25FC
2410
2470
27FE
2444
27FE
2844
20CC
0000
0000
ENDCHAR
STARTCHAR U+50E0
ENCODING 20704
SWIDTH 1000 0
DWIDTH 16 0
BBX 16 16 0 -2
BITMAP
0804
0BF8
1124
20A8
67FE
A0A8
2124
2222
21FC
2124
21FC
2124
21FC
2104
0000
0000
ENDCHAR
STARTCHAR U+50E3
ENCODING 20707
SWIDTH 1000 0
DWIDTH 16 0
BBX 16 16 0 -2
BITMAP
1208
2FBE
6208
AFBE
2208
2514
28A2
2000
27FC
2404
27FC
2404
27FC
2404
0000
0000
ENDCHAR
STARTCHAR U+50E4
ENCODING 20708
SWIDTH 1000 0
DWIDTH 16 0
BBX 16 16 0 -2
BITMAP
2FBE
28A2
6FBE
A000
27FC
2444
27FC
2444
27FC
2040
2FFE
2040
2040
2040
0000
0000
ENDCHAR
STARTCHAR U+50E5
ENCODING 20709
SWIDTH 1000 0
DWIDTH 16 0
BBX 16 16 0 -2
BITMAP
1040
27FC
4040
CFFE
4208
4FBE
4208
4FBE
4000
4FFE
4240
4240
4442
483E
0000
0000
ENDCHAR
STARTCHAR U+50E6
ENCODING 20710
SWIDTH 1000 0
DWIDTH 16 0
BBX 16 16 0 -2
BITMAP
1210
1218
3FD4
2010
6FFE
A890
2898
2F98
2228
2B28
2AA8
32CA
264A
2086
0000
0000
ENDCHAR
STARTCHAR U+50E7
ENCODING 20711
SWIDTH 1000 0
DWIDTH 16 0
BBX 16 16 0 -2
BITMAP
1208
1110
27FC
264C
6554
A444
27FC
2000
23F8
2208
23F8
2208
23F8
2208
0000
0000
ENDCHAR
STARTCHAR U+50E8
ENCODING 20712
SWIDTH 1000 0
DWIDTH 16 0
BBX 16 16 0 -2
BITMAP
1040
17FC
2150
6FFE
A110
27FC
2404
27FC
2404
27FC
2404
27FC
2208
2C06
0000
0000
ENDCHAR
STARTCHAR U+50E9
ENCODING 20713
SWIDTH 1000 0
DWIDTH 16 0
BBX 16 16 0 -2
BITMAP
0BDE
1252
23DE
6252
A3DE
2202
22FA
228A
22FA
228A
22FA
228A
231A
2206
0000
0000
ENDCHAR
STARTCHAR U+50EA
ENCODING 20714
SWIDTH 1000 0
DWIDTH 16 0
BBX 16 16 0 -2
BITMAP
13F8
1010
20A0
6FFE
A144
2248
20C0
2FFE
2912
2912
2AEA
28A2
28E2
2806
0000
0000
ENDCHAR
STARTCHAR U+50EC
ENCODING 20716
SWIDTH 1000 0
DWIDTH 16 0
BBX 16 16 0 -2
BITMAP
1240
1220
23FE
6620
ABFC
2220
23FC
2220
2220
23FE
2000
2524
2492
2892
0000
0000
ENDCHAR
STARTCHAR U+50ED
ENCODING 20717
SWIDTH 1000 0
DWIDTH 16 0
BBX 16 16 0 -2
BITMAP
1FBE
1A28
2A28
2FBE
6208
A618
2AAA
334E
27F8
2408
27F8
2408
27F8
2408
0000
0000
ENDCHAR
STARTCHAR U+50EE
ENCODING 20718
SWIDTH 1000 0
DWIDTH 16 0
BBX 16 16 0 -2
BITMAP
1040
17FC
2110
4FFE
C000
47FC
4444
47FC
4444
47FC
4040
47FC
4040
4FFE
0000
0000
ENDCHAR
STARTCHAR U+50EF
ENCODING 20719
SWIDTH 1000 0
DWIDTH 16 0
BBX 16 16 0 -2
BITMAP
0924
10A8
27FE
60A8
A124
2222
2000
2104
23FE
2464
22A4
213E
2204
2404
0000
0000
ENDCHAR
STARTCHAR U+50F0
ENCODING 20720
SWIDTH 1000 0
DWIDTH 16 0
BBX 16 16 0 -2
BITMAP
1010
FEFE
1010
FEFE
9292
9292
3838
5454
9292
0100
0100
0280
0440
F83E
0000
0000
ENDCHAR
STARTCHAR U+50F1
ENCODING 20721
SWIDTH 1000 0
DWIDTH 16 0
BBX 16 16 0 -2
BITMAP
0804
13F8
2200
63FE
A202
23FE
2288
23FE
2288
22FE
2488
20FE
2088
20FE
0000
0000
ENDCHAR
STARTCHAR U+50F3
ENCODING 20723
SWIDTH 1000 0
DWIDTH 16 0
BBX 16 16 0 -2
BITMAP
1FFE
10A0
27FC
24A4
64A4
A7FC
2248
2150
2FFE
2150
2248
2446
2844
2040
0000
0000
ENDCHAR
STARTCHAR U+50F5
ENCODING 20725
SWIDTH 1000 0
DWIDTH 16 0
BBX 16 16 0 -2
BITMAP
1000
17FE
23FC
6244
A3FC
2244
23FC
27FE
23FC
2244
23FC
2244
23FC
27FE
0000
0000
ENDCHAR
STARTCHAR U+50F6
ENCODING 20726
SWIDTH 1000 0
DWIDTH 16 0
BBX 16 16 0 -2
BITMAP
1000
2FFE
28A2
68A2
AFBE
20A0
2FBE
28A2
2FBE
28A2
2FBE
20A0
20A0
20FE
0000
0000
ENDCHAR
STARTCHAR U+50F8
ENCODING 20728
SWIDTH 1000 0
DWIDTH 16 0
BBX 16 16 0 -2
BITMAP
1208
2FBE
6208
A71C
2AAA
2208
27FC
2000
2FFE
2040
2150
2248
2446
2040
0000
0000
ENDCHAR
STARTCHAR U+50F9
ENCODING 20729
SWIDTH 1000 0
DWIDTH 16 0
BBX 16 16 0 -2
BITMAP
1000
17FC
2110
67FC
A514
27FC
23F8
2208
23F8
2208
23F8
2208
23F8
2404
0000
0000
ENDCHAR
STARTCHAR U+50FB
ENCODING 20731
SWIDTH 1000 0
DWIDTH 16 0
BBX 16 16 0 -2
BITMAP
1020
2F10
49FE
C944
4924
4F28
48FE
4810
4F10
4D7C
5510
4710
4410
4010
0000
0000
ENDCHAR
STARTCHAR U+50FD
ENCODING 20733
SWIDTH 1000 0
DWIDTH 16 0
BBX 16 16 0 -2
BITMAP
1000
1708
222A
6FAA
A208
2708
2A94
2222
2000
2548
2524
2500
2904
20FC
0000
0000
ENDCHAR
STARTCHAR U+50FE
ENCODING 20734
SWIDTH 1000 0
DWIDTH 16 0
BBX 16 16 0 -2
BITMAP
17FC
2444
6248
AFFE
2882
2D46
2512
29F0
2080
23F8
24A0
2040
20A0
2F1E
0000
0000
ENDCHAR
STARTCHAR U+50FF
ENCODING 20735
SWIDTH 1000 0
DWIDTH 16 0
BBX 16 16 0 -2
BITMAP
1080
1040
2FFE
6912
AFFE
2110
27FC
2110
2FFE
2248
2444
2BFA
2040
2FFE
0000
0000
ENDCHAR
STARTCHAR U+5100
ENCODING 20736
SWIDTH 1000 0
DWIDTH 16 0
BBX 16 16 0 -2
BITMAP
1208
1110
27FC
6040
A7FC
2040
27FC
23C0
2114
2FFE
2110
2314
2D08
2216
0000
0000
ENDCHAR
STARTCHAR U+5102
ENCODING 20738
SWIDTH 1000 0
DWIDTH 16 0
BBX 16 16 0 -2
BITMAP
10A0
17FC
24A4
67FC
A4A4
27FC
27FC
2400
27FC
2400
27FC
2528
2510
298E
0000
0000
ENDCHAR
STARTCHAR U+5103
ENCODING 20739
SWIDTH 1000 0
DWIDTH 16 0
BBX 16 16 0 -2
BITMAP
1080
1040
2FFE
67FC
A5F4
2514
25F4
27FC
23F8
2208
23F8
2208
23F8
2FFE
0000
0000
ENDCHAR
STARTCHAR U+5104
ENCODING 20740
SWIDTH 1000 0
DWIDTH 16 0
BBX 16 16 0 -2
BITMAP
1040
17FC
2110
6FFE
A000
23F8
2208
23F8
2208
23F8
2884
2A52
2A08
21F8
0000
0000
ENDCHAR
STARTCHAR U+5105
ENCODING 20741
SWIDTH 1000 0
DWIDTH 16 0
BBX 16 16 0 -2
BITMAP
1248
1150
27FC
6404
A5F4
2110
21F0
2000
23F8
2248
23F8
2248
23F8
2208
0000
0000
ENDCHAR
STARTCHAR U+5106
ENCODING 20742
SWIDTH 1000 0
DWIDTH 16 0
BBX 16 16 0 -2
BITMAP
2520
2DA0
2520
403E
C844
4F84
48A4
50A8
4EA8
4A90
4EA8
40A8
42C6
4104
0000
0000
ENDCHAR
STARTCHAR U+5107
ENCODING 20743
SWIDTH 1000 0
DWIDTH 16 0
BBX 16 16 0 -2
BITMAP
17FC
14A4
27FC
6000
AFFE
2000
23F8
2208
23F8
20C4
2128
2310
2D8E
2104
0000
0000
ENDCHAR
STARTCHAR U+5108
ENCODING 20744
SWIDTH 1000 0
DWIDTH 16 0
BBX 16 16 0 -2
BITMAP
10E0
1110
2208
65F4
A802
27FC
264C
2554
27FC
23F8
2208
23F8
2208
23F8
0000
0000
ENDCHAR
STARTCHAR U+5109
ENCODING 20745
SWIDTH 1000 0
DWIDTH 16 0
BBX 16 16 0 -2
BITMAP
08E0
1110
2208
6404
ABFA
2000
27BC
24A4
24A4
27BC
2208
2208
2514
28A2
0000
0000
ENDCHAR
STARTCHAR U+510A
ENCODING 20746
SWIDTH 1000 0
DWIDTH 16 0
BBX 16 16 0 -2
BITMAP
1208
1208
2FBE
6208
A71C
2AAA
2208
2FFE
2042
2040
227C
2240
2540
28FE
0000
0000
ENDCHAR
STARTCHAR U+510B
ENCODING 20747
SWIDTH 1000 0
DWIDTH 16 0
BBX 16 16 0 -2
BITMAP
0880
09F8
1210
27FE
6C88
A524
27FE
25FC
2400
25FC
2400
29FC
3104
21FC
0000
0000
ENDCHAR
STARTCHAR U+510C
ENCODING 20748
SWIDTH 1000 0
DWIDTH 16 0
BBX 16 16 0 -2
BITMAP
1210
1420
2FFE
6884
AF84
2884
2FA4
2224
2FA4
2424
2794
2488
2894
2322
0000
0000
ENDCHAR
STARTCHAR U+5110
ENCODING 20752
SWIDTH 1000 0
DWIDTH 16 0
BBX 16 16 0 -2
BITMAP
1040
1020
23FE
5402
91FC
10A8
1070
11FC
132C
1554
11A4
11FC
1088
1104
0000
0000
ENDCHAR
STARTCHAR U+5111
ENCODING 20753
SWIDTH 1000 0
DWIDTH 16 0
BBX 16 16 0 -2
BITMAP
17FC
2404
67FC
A404
27FC
2208
2492
2FBE
2208
2492
2FBE
2000
2524
2892
0000
0000
ENDCHAR
STARTCHAR U+5112
ENCODING 20754
SWIDTH 1000 0
DWIDTH 16 0
BBX 16 16 0 -2
BITMAP
13FC
1040
27FE
664A
A952
2248
2040
2FFE
2080
27FE
2492
2492
2492
2404
0000
0000
ENDCHAR
STARTCHAR U+5113
ENCODING 20755
SWIDTH 1000 0
DWIDTH 16 0
BBX 16 16 0 -2
BITMAP
1040
13F8
2040
63F8
A3F8
2208
23F8
2FFE
2BFA
2892
23F8
2040
23F8
27FC
0000
0000
ENDCHAR
STARTCHAR U+5114
ENCODING 20756
SWIDTH 1000 0
DWIDTH 16 0
BBX 16 16 0 -2
BITMAP
1040
17FC
2040
61F0
AFFE
23F2
2040
23F0
2FFE
2008
277E
2548
2708
2030
0000
0000
ENDCHAR
STARTCHAR U+5115
ENCODING 20757
SWIDTH 1000 0
DWIDTH 16 0
BBX 16 16 0 -2
BITMAP
1080
1040
2FFE
40A4
AF48
2558
2956
2158
2208
23F8
2208
23F8
2208
2408
0000
0000
ENDCHAR
STARTCHAR U+5117
ENCODING 20759
SWIDTH 1000 0
DWIDTH 16 0
BBX 16 16 0 -2
BITMAP
1800
2F7E
4804
C828
4F90
48FE
4F12
5410
4410
445C
5F50
4450
4AB0
511E
0000
0000
ENDCHAR
STARTCHAR U+5118
ENCODING 20760
SWIDTH 1000 0
DWIDTH 16 0
BBX 16 16 0 -2
BITMAP
1040
1040
23F8
2048
6FFE
A048
23F8
2040
2FFE
24A4
23F8
22A8
22A8
2FFE
0000
0000
ENDCHAR
STARTCHAR U+511A
ENCODING 20762
SWIDTH 1000 0
DWIDTH 16 0
BBX 16 16 0 -2
BITMAP
1110
2F1C
6110
A7FC
24A4
27FC
2000
2FFE
2882
21F8
2308
2490
2060
2F80
0000
0000
ENDCHAR
STARTCHAR U+511C
ENCODING 20764
SWIDTH 1000 0
DWIDTH 16 0
BBX 16 16 0 -2
BITMAP
1040
2FFE
6882
AB52
250C
21F8
2000
23F8
22A8
2FFE
2000
2FFE
2040
20C0
0000
0000
ENDCHAR
STARTCHAR U+511F
ENCODING 20767
SWIDTH 1000 0
DWIDTH 16 0
BBX 16 16 0 -2
BITMAP
1248
1150
2FFE
6BFA
A208
23F8
2000
23F8
2208
23F8
23E8
2208
23F8
2404
0000
0000
ENDCHAR
STARTCHAR U+5120
ENCODING 20768
SWIDTH 1000 0
DWIDTH 16 0
BBX 16 16 0 -2
BITMAP
1248
1490
2248
6FFC
A844
29B4
2FFC
2890
2EF0
2890
2EF0
2892
2AAA
2CC4
0000
0000
ENDCHAR
STARTCHAR U+5121
ENCODING 20769
SWIDTH 1000 0
DWIDTH 16 0
BBX 16 16 0 -2
BITMAP
13F8
1248
23F8
6248
A3F8
2000
2FBE
2AAA
2AAA
2FBE
2AAA
2AAA
2FBE
28A2
0000
0000
ENDCHAR
STARTCHAR U+5122
ENCODING 20770
SWIDTH 1000 0
DWIDTH 16 0
BBX 16 16 0 -2
BITMAP
0840
1078
27FE
6442
A5F8
2478
24F8
24A8
24F8
24A8
24F8
24A2
2A84
24FC
0000
0000
ENDCHAR
STARTCHAR U+5124
ENCODING 20772
SWIDTH 1000 0
DWIDTH 16 0
BBX 16 16 0 -2
BITMAP
13F8
1208
23F8
6208
A3F8
2110
2FFE
2110
2FFE
2454
2BE2
20D0
2148
2244
0000
0000
ENDCHAR
STARTCHAR U+5125
ENCODING 20773
SWIDTH 1000 0
DWIDTH 16 0
BBX 16 16 0 -2
BITMAP
0820
11FC
2020
61FC
A3FE
2252
23FE
21FC
2104
21FC
21FC
2104
21FC
2202
0000
0000
ENDCHAR
STARTCHAR U+5126
ENCODING 20774
SWIDTH 1000 0
DWIDTH 16 0
BBX 16 16 0 -2
BITMAP
1020
17FE
2490
65FC
A494
25FC
2510
2510
25DC
2510
25DE
2800
3494
2492
0000
0000
ENDCHAR
STARTCHAR U+5129
ENCODING 20777
SWIDTH 1000 0
DWIDTH 16 0
BBX 16 16 0 -2
BITMAP
103C
1F24
293C
6924
AF3C
2924
2940
2F7E
29AA
292A
2F2A
2052
2602
290C
0000
0000
ENDCHAR
STARTCHAR U+512A
ENCODING 20778
SWIDTH 1000 0
DWIDTH 16 0
BBX 16 16 0 -2
BITMAP
17FE
1080
21F8
6108
A1F8
21E8
27FE
26A6
228A
2470
20F8
2150
2220
21DC
0000
0000
ENDCHAR
STARTCHAR U+512D
ENCODING 20781
SWIDTH 1000 0
DWIDTH 16 0
BBX 16 16 0 -2
BITMAP
1000
227C
6FC4
A544
227C
2FC4
227C
2FC4
227C
2728
2AA8
326A
222A
22C6
0000
0000
ENDCHAR
STARTCHAR U+512E
ENCODING 20782
SWIDTH 1000 0
DWIDTH 16 0
BBX 16 16 0 -2
BITMAP
17FE
2422
65DC
A488
25FE
2488
25DC
26AA
2488
2420
2420
24B8
28A0
33FE
0000
0000
ENDCHAR
STARTCHAR U+5130
ENCODING 20784
SWIDTH 1000 0
DWIDTH 16 0
BBX 16 16 0 -2
BITMAP
1110
2FFE
6110
A110
20A0
23F8
2088
21FC
2204
27FE
2AAA
22AA
2002
200C
0000
0000
ENDCHAR
STARTCHAR U+5131
ENCODING 20785
SWIDTH 1000 0
DWIDTH 16 0
BBX 16 16 0 -2
BITMAP
0910
17DC
2290
67DC
A004
27DC
2450
245C
27D0
245C
2450
27DC
2452
24DE
0000
0000
ENDCHAR
STARTCHAR U+5132
ENCODING 20786
SWIDTH 1000 0
DWIDTH 16 0
BBX 16 16 0 -2
BITMAP
2410
2210
407C
CF12
4014
4F7E
4020
4F7E
40A2
4F3E
4922
4922
4F3E
4922
0000
0000
ENDCHAR
STARTCHAR U+5133
ENCODING 20787
SWIDTH 1000 0
DWIDTH 16 0
BBX 16 16 0 -2
BITMAP
13F0
1420
27FC
4444
A7FC
2210
23DC
23FC
2420
27FC
2444
27FC
212A
2E3E
0000
0000
ENDCHAR
STARTCHAR U+5134
ENCODING 20788
SWIDTH 1000 0
DWIDTH 16 0
BBX 16 16 0 -2
BITMAP
0820
13FE
23DE
6252
A3DE
2088
23FE
2088
23FE
2088
23FE
2314
2148
2396
0000
0000
ENDCHAR
STARTCHAR U+5135
ENCODING 20789
SWIDTH 1000 0
DWIDTH 16 0
BBX 16 16 0 -2
BITMAP
1100
21FC
4250
C820
4850
4888
49FC
4BAE
4974
49FC
4820
41FC
43FE
4492
0000
0000
ENDCHAR
STARTCHAR U+5137
ENCODING 20791
SWIDTH 1000 0
DWIDTH 16 0
BBX 16 16 0 -2
BITMAP
17BE
1000
27BC
66B4
A5AC
27FE
2490
27FC
2494
27FC
27DE
2610
2BD2
220E
0000
0000
ENDCHAR
STARTCHAR U+5138
ENCODING 20792
SWIDTH 1000 0
DWIDTH 16 0
BBX 16 16 0 -2
BITMAP
2004
2FFE
2924
4924
CFFC
4850
5290
5DFE
4890
52FC
5E90
48FC
5A90
6AFE
0000
0000
ENDCHAR
STARTCHAR U+5139
ENCODING 20793
SWIDTH 1000 0
DWIDTH 16 0
BBX 16 16 0 -2
BITMAP
1294
23DE
6084
A3DE
2294
20C6
21FC
2104
21FC
2104
21FC
2104
21FC
2202
0000
0000
ENDCHAR
STARTCHAR U+513A
ENCODING 20794
SWIDTH 1000 0
DWIDTH 16 0
BBX 16 16 0 -2
BITMAP
2510
6FA4
A564
273E
2224
2FA4
2ABE
2FA4
2224
2FBE
2224
2FA4
2524
28BE
0000
0000
ENDCHAR
STARTCHAR U+513B
ENCODING 20795
SWIDTH 1000 0
DWIDTH 16 0
BBX 16 16 0 -2
BITMAP
1248
1150
2FFE
69F2
A914
21F0
27FC
24E4
27FC
2040
23F8
2040
27FC
24A4
0000
0000
ENDCHAR
STARTCHAR U+513C
ENCODING 20796
SWIDTH 1000 0
DWIDTH 16 0
BBX 16 16 0 -2
BITMAP
17BC
14A4
27BC
67FE
A5D0
249C
27E4
2564
25C4
2554
25D4
2548
2BC8
2056
0000
0000
ENDCHAR
STARTCHAR U+513D
ENCODING 20797
SWIDTH 1000 0
DWIDTH 16 0
BBX 16 16 0 -2
BITMAP
0BF8
1248
23F8
63F8
AFBE
2AAA
2FBE
2FBE
2110
23E0
2044
27FC
2150
2248
0000
0000
ENDCHAR
STARTCHAR U+513F
ENCODING 20799
SWIDTH 1000 0
DWIDTH 16 0
BBX 16 16 0 -2
BITMAP
1040
1040
1040
1040
1040
1040
1040
1040
1040
1040
1042
2042
4042
807E
0000
0000
ENDCHAR
STARTCHAR U+5140
ENCODING 20800
SWIDTH 1000 0
DWIDTH 16 0
BBX 16 16 0 -2
BITMAP
0004
FFFE
0440
0440
0440
0440
0440
0440
0440
0840
0842
1042
203E
C000
0000
0000
ENDCHAR
STARTCHAR U+5141
ENCODING 20801
SWIDTH 1000 0
DWIDTH 16 0
BBX 16 16 0 -2
BITMAP
0200
0440
0820
1010
7FF8
2488
0488
0480
0880
0880
1082
1082
2082
C07E
0000
0000
ENDCHAR
STARTCHAR U+5143
ENCODING 20803
SWIDTH 1000 0
DWIDTH 16 0
BBX 16 16 0 -2
BITMAP
0010
3FF8
0000
0004
FFFE
0440
0440
0440
0440
0840
0842
1042
2042
C03E
0000
0000
ENDCHAR
STARTCHAR U+5144
ENCODING 20804
SWIDTH 1000 0
DWIDTH 16 0
BBX 16 16 0 -2
BITMAP
0008
3FFC
2008
2008
2008
3FF8
0440
0440
0440
0840
0842
1042
2042
403E
0000
0000
ENDCHAR
STARTCHAR U+5145
ENCODING 20805
SWIDTH 1000 0
DWIDTH 16 0
BBX 16 16 0 -2
BITMAP
0080
0104
FFFE
0200
0440
0830
3FF8
0448
0440
0440
0842
0842
1042
603E
0000
0000
ENDCHAR
STARTCHAR U+5146
ENCODING 20806
SWIDTH 1000 0
DWIDTH 16 0
BBX 16 16 0 -2
BITMAP
0480
0480
6498
14A0
14C0
0480
04C0
1CA0
6498
0880
0882
1082
2082
C07E
0000
0000
ENDCHAR
STARTCHAR U+5147
ENCODING 20807
SWIDTH 1000 0
DWIDTH 16 0
BBX 16 16 0 -2
BITMAP
4010
4890
4510
4210
4590
4890
4010
7FF0
4890
0880
0880
1082
2082
C07E
0000
0000
ENDCHAR
STARTCHAR U+5148
ENCODING 20808
SWIDTH 1000 0
DWIDTH 16 0
BBX 16 16 0 -2
BITMAP
0100
1110
1FF8
1100
2100
0104
FFFE
0480
0480
0880
0882
1082
2082
C07E
0000
0000
ENDCHAR
STARTCHAR U+5149
ENCODING 20809
SWIDTH 1000 0
DWIDTH 16 0
BBX 16 16 0 -2
BITMAP
0100
110C
0910
0920
0104
FFFE
0440
0440
0440
0840
0842
1042
2042
403E
0000
0000
ENDCHAR
STARTCHAR U+514B
ENCODING 20811
SWIDTH 1000 0
DWIDTH 16 0
BBX 16 16 0 -2
BITMAP
0100
0104
FFFE
0100
0100
3FF8
2008
2008
3FF8
0440
0440
0842
1042
E03E
0000
0000
ENDCHAR
STARTCHAR U+514C
ENCODING 20812
SWIDTH 1000 0
DWIDTH 16 0
BBX 16 16 0 -2
BITMAP
0040
1020
3018
600C
BFF4
2010
2010
3FF0
2450
0440
0842
0842
1042
E03E
0000
0000
ENDCHAR
STARTCHAR U+514D
ENCODING 20813
SWIDTH 1000 0
DWIDTH 16 0
BBX 16 16 0 -2
BITMAP
0800
1FE0
1040
2088
7FFC
A108
2108
3FF8
2188
0280
0480
0882
3082
C07E
0000
0000
ENDCHAR
STARTCHAR U+5152
ENCODING 20818
SWIDTH 1000 0
DWIDTH 16 0
BBX 16 16 0 -2
BITMAP
0400
3878
2008
2008
3EF8
2008
2008
3FF8
2448
0440
0440
0842
1042
E03E
0000
0000
ENDCHAR
STARTCHAR U+5154
ENCODING 20820
SWIDTH 1000 0
DWIDTH 16 0
BBX 16 16 0 -2
BITMAP
0800
0FE0
1040
2088
7FFC
A108
2108
3FF8
2288
0480
04A2
0892
1082
607E
0000
0000
ENDCHAR
STARTCHAR U+5155
ENCODING 20821
SWIDTH 1000 0
DWIDTH 16 0
BBX 16 16 0 -2
BITMAP
0008
3C7C
2448
2448
27C8
2008
3FF8
2448
0440
0440
0842
1042
2042
C03E
0000
0000
ENDCHAR
STARTCHAR U+5157
ENCODING 20823
SWIDTH 1000 0
DWIDTH 16 0
BBX 16 16 0 -2
BITMAP
0200
0104
FFFE
1010
2008
5FF6
9012
1010
1FF0
0440
0440
0840
1042
607E
0000
0000
ENDCHAR
STARTCHAR U+5159
ENCODING 20825
SWIDTH 1000 0
DWIDTH 16 0
BBX 16 16 0 -2
BITMAP
0810
0810
FF10
0810
7F7E
4110
4110
4110
7F10
3412
2412
6412
4412
C402
87FE
0000
ENDCHAR
STARTCHAR U+515A
ENCODING 20826
SWIDTH 1000 0
DWIDTH 16 0
BBX 16 16 0 -2
BITMAP
2108
1110
0920
FFFE
8002
9FF2
1010
1010
1FF0
1450
0440
0442
0842
F07E
0000
0000
ENDCHAR
STARTCHAR U+515B
ENCODING 20827
SWIDTH 1000 0
DWIDTH 16 0
BBX 16 16 0 -2
BITMAP
0804
0808
FF90
0830
7F50
4110
41FE
4110
7F10
1410
3410
6412
4412
C402
87FE
0000
ENDCHAR
STARTCHAR U+515C
ENCODING 20828
SWIDTH 1000 0
DWIDTH 16 0
BBX 16 16 0 -2
BITMAP
0100
1204
67DE
4444
4444
47C4
4444
4444
77DC
0000
0440
0842
1042
E03E
0000
0000
ENDCHAR
STARTCHAR U+515D
ENCODING 20829
SWIDTH 1000 0
DWIDTH 16 0
BBX 16 16 0 -2
BITMAP
0838
0808
FF48
0848
0984
7F02
4178
4128
4128
7F28
1448
348A
653A
C402
87FE
0000
ENDCHAR
STARTCHAR U+515E
ENCODING 20830
SWIDTH 1000 0
DWIDTH 16 0
BBX 16 16 0 -2
BITMAP
0800
0808
FFF0
0820
7FFC
4120
4120
41FE
7F20
1422
3422
2422
643E
C402
87FE
0000
ENDCHAR
STARTCHAR U+515F
ENCODING 20831
SWIDTH 1000 0
DWIDTH 16 0
BBX 16 16 0 -2
BITMAP
1010
5050
7C7C
5050
9090
1010
FEFE
2828
2828
2828
2828
2A2A
4A4A
8E8E
0000
0000
ENDCHAR
STARTCHAR U+5161
ENCODING 20833
SWIDTH 1000 0
DWIDTH 16 0
BBX 16 16 0 -2
BITMAP
08FC
0810
FF20
0840
7F7C
4144
4144
4144
7F7C
1444
3444
3446
647E
C402
87FE
0000
ENDCHAR
STARTCHAR U+5162
ENCODING 20834
SWIDTH 1000 0
DWIDTH 16 0
BBX 16 16 0 -2
BITMAP
0820
0820
FEFE
0820
7EFC
4284
4284
7EFC
1450
1550
1650
2492
4112
820E
0000
0000
ENDCHAR
STARTCHAR U+5163
ENCODING 20835
SWIDTH 1000 0
DWIDTH 16 0
BBX 16 16 0 -2
BITMAP
10FE
1080
FEBE
10AA
FEBE
82AA
82BE
8288
FE88
28FE
2908
6A7E
4802
C802
8FFE
0000
ENDCHAR
STARTCHAR U+5165
ENCODING 20837
SWIDTH 1000 0
DWIDTH 16 0
BBX 16 16 0 -2
BITMAP
0400
0200
0100
0100
0280
0280
0440
0440
0820
0820
1010
2010
400E
8004
0000
0000
ENDCHAR
STARTCHAR U+5167
ENCODING 20839
SWIDTH 1000 0
DWIDTH 16 0
BBX 16 16 0 -2
BITMAP
0600
0300
0104
7FFE
4104
4104
4284
4444
4834
5014
4004
4004
4014
4008
0000
0000
ENDCHAR
STARTCHAR U+5168
ENCODING 20840
SWIDTH 1000 0
DWIDTH 16 0
BBX 16 16 0 -2
BITMAP
0100
0280
0440
0820
1010
2FEE
C104
0100
0100
0FE0
0100
0100
0108
7FFC
0000
0000
ENDCHAR
STARTCHAR U+5169
ENCODING 20841
SWIDTH 1000 0
DWIDTH 16 0
BBX 16 16 0 -2
BITMAP
0004
FFFE
0100
0100
0100
FFFE
8102
A142
9122
A952
C58A
8102
810A
8004
0000
0000
ENDCHAR
STARTCHAR U+516B
ENCODING 20843
SWIDTH 1000 0
DWIDTH 16 0
BBX 16 16 0 -2
BITMAP
0040
0460
0440
0440
0440
0440
0440
0820
0820
0820
1010
1008
200E
4004
0000
0000
ENDCHAR
STARTCHAR U+516C
ENCODING 20844
SWIDTH 1000 0
DWIDTH 16 0
BBX 16 16 0 -2
BITMAP
00C0
0480
0440
0840
0820
1010
210E
C104
0200
0400
0840
1020
3FF0
1010
0000
0000
ENDCHAR
STARTCHAR U+516D
ENCODING 20845
SWIDTH 1000 0
DWIDTH 16 0
BBX 16 16 0 -2
BITMAP
0400
0200
0300
0104
FFFE
0000
0000
0440
0C20
0810
1018
100C
200C
4004
0000
0000
ENDCHAR
STARTCHAR U+516E
ENCODING 20846
SWIDTH 1000 0
DWIDTH 16 0
BBX 16 16 0 -2
BITMAP
0440
0820
0820
1010
2010
5FEE
8404
0820
1FF0
0020
0020
0220
0140
0080
0000
0000
ENDCHAR
STARTCHAR U+5171
ENCODING 20849
SWIDTH 1000 0
DWIDTH 16 0
BBX 16 16 0 -2
BITMAP
0440
0440
0448
7FFC
0440
0440
0440
0444
FFFE
0000
0440
0C30
1018
2008
0000
0000
ENDCHAR
STARTCHAR U+5175
ENCODING 20853
SWIDTH 1000 0
DWIDTH 16 0
BBX 16 16 0 -2
BITMAP
0020
00F0
0F00
0800
0800
0FFC
0840
0840
0844
FFFE
0440
0C30
1018
2008
0000
0000
ENDCHAR
STARTCHAR U+5176
ENCODING 20854
SWIDTH 1000 0
DWIDTH 16 0
BBX 16 16 0 -2
BITMAP
0820
0820
3FF8
0820
0FE0
0820
0FE0
0820
0824
FFFE
0000
0820
1818
2008
0000
0000
ENDCHAR
STARTCHAR U+5177
ENCODING 20855
SWIDTH 1000 0
DWIDTH 16 0
BBX 16 16 0 -2
BITMAP
0020
0FF0
0820
0FE0
0820
0FE0
0820
0FE0
0824
FFFE
0440
0C20
1018
2008
0000
0000
ENDCHAR
STARTCHAR U+5178
ENCODING 20856
SWIDTH 1000 0
DWIDTH 16 0
BBX 16 16 0 -2
BITMAP
0480
0480
0490
3FF8
2490
2490
3FF0
2490
2490
FFFE
0840
1820
2010
4010
0000
0000
ENDCHAR
STARTCHAR U+517C
ENCODING 20860
SWIDTH 1000 0
DWIDTH 16 0
BBX 16 16 0 -2
BITMAP
1020
0840
3FF8
0480
1FF0
0494
FFFE
0490
1FF0
0CC0
14A0
2490
C48C
0480
0000
0000
ENDCHAR
STARTCHAR U+5180
ENCODING 20864
SWIDTH 1000 0
DWIDTH 16 0
BBX 16 16 0 -2
BITMAP
0280
7EFC
FEFE
3FF8
2108
3FF8
2108
3FF8
0440
3FF8
0440
FFFE
1010
600C
0000
0000
ENDCHAR
STARTCHAR U+5187
ENCODING 20871
SWIDTH 1000 0
DWIDTH 16 0
BBX 16 16 0 -2
BITMAP
0200
0204
FFFE
0400
0800
1FF8
2808
4808
0808
0808
0808
0808
1028
0010
0000
0000
ENDCHAR
STARTCHAR U+5189
ENCODING 20873
SWIDTH 1000 0
DWIDTH 16 0
BBX 16 16 0 -2
BITMAP
0100
0108
3FFC
2108
2108
3FF8
2108
2108
FFFE
2008
2008
2008
2028
2010
0000
0000
ENDCHAR
STARTCHAR U+518A
ENCODING 20874
SWIDTH 1000 0
DWIDTH 16 0
BBX 16 16 0 -2
BITMAP
0008
1FFC
1248
1248
1248
1248
FFFE
1248
1248
1248
1248
1248
1248
1018
0000
0000
ENDCHAR
STARTCHAR U+518D
ENCODING 20877
SWIDTH 1000 0
DWIDTH 16 0
BBX 16 16 0 -2
BITMAP
7FFC
0100
0110
1FF8
1110
1110
1FF0
1110
1110
FFFE
1010
1010
1050
1020
0000
0000
ENDCHAR
STARTCHAR U+518F
ENCODING 20879
SWIDTH 1000 0
DWIDTH 16 0
BBX 16 16 0 -2
BITMAP
FFFE
8482
8882
9082
A0FE
8002
9FF2
9012
9012
9012
9FF2
9012
8002
800C
0000
0000
ENDCHAR
STARTCHAR U+5191
ENCODING 20881
SWIDTH 1000 0
DWIDTH 16 0
BBX 16 16 0 -2
BITMAP
0100
7FFC
4104
7FFC
4104
7FFC
1FF0
1010
17D0
1010
17D0
1010
1010
1010
0000
0000
ENDCHAR
STARTCHAR U+5192
ENCODING 20882
SWIDTH 1000 0
DWIDTH 16 0
BBX 16 16 0 -2
BITMAP
7FFE
4004
5FF4
4004
5FF4
4004
1FF0
1010
1FF0
1010
1FF0
1010
1FF0
1010
0000
0000
ENDCHAR
STARTCHAR U+5193
ENCODING 20883
SWIDTH 1000 0
DWIDTH 16 0
BBX 16 16 0 -2
BITMAP
0820
7FFC
0820
7FFC
0820
FFFE
0100
3FF8
2108
3FF8
2108
FFFE
2008
2010
0000
0000
ENDCHAR
STARTCHAR U+5194
ENCODING 20884
SWIDTH 1000 0
DWIDTH 16 0
BBX 16 16 0 -2
BITMAP
3FF8
2008
2FE8
2008
2FE8
0000
F9FC
8820
8820
8BFE
F820
8820
00A0
0040
0000
0000
ENDCHAR
STARTCHAR U+5195
ENCODING 20885
SWIDTH 1000 0
DWIDTH 16 0
BBX 16 16 0 -2
BITMAP
3FF8
2008
2FE8
2008
2FE8
0800
0FE0
1040
3FF8
5108
9FF8
0280
1C82
607E
0000
0000
ENDCHAR
STARTCHAR U+5197
ENCODING 20887
SWIDTH 1000 0
DWIDTH 16 0
BBX 16 16 0 -2
BITMAP
0004
7FFE
4004
8008
0040
07E0
0440
0440
0440
0440
0840
0842
3042
C03E
0000
0000
ENDCHAR
STARTCHAR U+5198
ENCODING 20888
SWIDTH 1000 0
DWIDTH 16 0
BBX 16 16 0 -2
BITMAP
0100
0100
7FFC
4104
4108
4110
0100
0180
0280
0480
0880
1082
2082
40FE
0000
0000
ENDCHAR
STARTCHAR U+519E
ENCODING 20894
SWIDTH 1000 0
DWIDTH 16 0
BBX 16 16 0 -2
BITMAP
0000
7FFE
4102
9114
0930
0940
7FFC
0100
0540
0920
1110
210E
4104
0100
0000
0000
ENDCHAR
STARTCHAR U+51A0
ENCODING 20896
SWIDTH 1000 0
DWIDTH 16 0
BBX 16 16 0 -2
BITMAP
7FFE
4002
840C
3E08
02FE
7F08
1448
1428
1408
1428
2412
2402
43FE
8000
0000
0000
ENDCHAR
STARTCHAR U+51A2
ENCODING 20898
SWIDTH 1000 0
DWIDTH 16 0
BBX 16 16 0 -2
BITMAP
FFFE
8002
8004
3FF8
0100
0600
1918
6AA0
0CD0
3748
0646
3840
0280
0100
0000
0000
ENDCHAR
STARTCHAR U+51A4
ENCODING 20900
SWIDTH 1000 0
DWIDTH 16 0
BBX 16 16 0 -2
BITMAP
7FFE
4402
87E4
0840
1080
3FF0
5110
1110
1FF0
1210
04A0
0892
1082
607E
0000
0000
ENDCHAR
STARTCHAR U+51A5
ENCODING 20901
SWIDTH 1000 0
DWIDTH 16 0
BBX 16 16 0 -2
BITMAP
7FFE
4002
8004
1FF0
1010
1FF0
1010
1FF0
1210
0104
FFFE
0820
1018
2008
0000
0000
ENDCHAR
STARTCHAR U+51AA
ENCODING 20906
SWIDTH 1000 0
DWIDTH 16 0
BBX 16 16 0 -2
BITMAP
FFFE
8822
BEFA
0FE0
0820
0FE0
0820
0FE0
FFFE
0920
1FF0
2928
4924
0100
0000
0000
ENDCHAR
STARTCHAR U+51AC
ENCODING 20908
SWIDTH 1000 0
DWIDTH 16 0
BBX 16 16 0 -2
BITMAP
0400
07F0
0820
1440
2280
0100
02C0
0C30
310E
C0C4
0040
0100
00C0
0040
0000
0000
ENDCHAR
STARTCHAR U+51B0
ENCODING 20912
SWIDTH 1000 0
DWIDTH 16 0
BBX 16 16 0 -2
BITMAP
4080
3080
1084
008C
0F90
11E0
12C0
22A0
E490
2488
288E
3084
2280
2100
0000
0000
ENDCHAR
STARTCHAR U+51B1
ENCODING 20913
SWIDTH 1000 0
DWIDTH 16 0
BBX 16 16 0 -2
BITMAP
0008
8FFC
6200
2200
0210
03F8
0A10
1210
E210
27F0
2010
2020
2044
2FFE
0000
0000
ENDCHAR
STARTCHAR U+51B6
ENCODING 20918
SWIDTH 1000 0
DWIDTH 16 0
BBX 16 16 0 -2
BITMAP
4040
3080
1080
0110
0208
0FFC
1004
2000
E7F8
2408
2408
2408
27F8
2408
0000
0000
ENDCHAR
STARTCHAR U+51B7
ENCODING 20919
SWIDTH 1000 0
DWIDTH 16 0
BBX 16 16 0 -2
BITMAP
0040
40A0
30A0
1110
0208
05EE
0804
0000
13F8
E008
2010
20A0
2040
0020
0000
0000
ENDCHAR
STARTCHAR U+51B9
ENCODING 20921
SWIDTH 1000 0
DWIDTH 16 0
BBX 16 16 0 -2
BITMAP
8048
6044
27FE
0080
0084
0904
1204
E488
2850
2020
2050
2088
2104
2202
0000
0000
ENDCHAR
STARTCHAR U+51BC
ENCODING 20924
SWIDTH 1000 0
DWIDTH 16 0
BBX 16 16 0 -2
BITMAP
0040
8240
6248
23FC
0240
0440
1044
27FE
E120
2120
2120
2222
2422
281E
0000
0000
ENDCHAR
STARTCHAR U+51BD
ENCODING 20925
SWIDTH 1000 0
DWIDTH 16 0
BBX 16 16 0 -2
BITMAP
0044
4FE4
2204
1214
13D4
0254
1454
2654
2994
E094
2114
2204
2814
2008
0000
0000
ENDCHAR
STARTCHAR U+51BE
ENCODING 20926
SWIDTH 1000 0
DWIDTH 16 0
BBX 16 16 0 -2
BITMAP
0040
80A0
60A0
2110
020E
0404
01F8
1000
E1F8
2108
2108
2108
21F8
2108
0000
0000
ENDCHAR
STARTCHAR U+51C4
ENCODING 20932
SWIDTH 1000 0
DWIDTH 16 0
BBX 16 16 0 -2
BITMAP
0040
8FFE
4040
67FC
0044
0FFE
0044
17FC
2110
EFFE
2110
20E0
2110
2E0E
0000
0000
ENDCHAR
STARTCHAR U+51C5
ENCODING 20933
SWIDTH 1000 0
DWIDTH 16 0
BBX 16 16 0 -2
BITMAP
0FFE
8842
4842
6BFA
2842
0842
0BFA
1A0A
2A0A
CBFA
4A0A
4802
4FFE
4802
0000
0000
ENDCHAR
STARTCHAR U+51C6
ENCODING 20934
SWIDTH 1000 0
DWIDTH 16 0
BBX 16 16 0 -2
BITMAP
8120
4124
33FE
1220
0620
03FC
1220
2220
E3FC
2220
2224
23FE
2200
0200
0000
0000
ENDCHAR
STARTCHAR U+51C8
ENCODING 20936
SWIDTH 1000 0
DWIDTH 16 0
BBX 16 16 0 -2
BITMAP
0008
87F2
6486
2248
0110
17FC
2044
EFFE
2044
27FC
2040
2040
0040
0180
0000
0000
ENDCHAR
STARTCHAR U+51CA
ENCODING 20938
SWIDTH 1000 0
DWIDTH 16 0
BBX 16 16 0 -2
BITMAP
0040
87FC
6040
23F8
2040
0FFE
0000
13FC
2204
E3FC
2204
23FC
2204
2208
0000
0000
ENDCHAR
STARTCHAR U+51CB
ENCODING 20939
SWIDTH 1000 0
DWIDTH 16 0
BBX 16 16 0 -2
BITMAP
0004
87FE
4444
3444
05F4
0C44
17FC
2404
E5F4
2514
25F4
2404
0814
1008
0000
0000
ENDCHAR
STARTCHAR U+51CC
ENCODING 20940
SWIDTH 1000 0
DWIDTH 16 0
BBX 16 16 0 -2
BITMAP
0040
0048
87FC
6040
2040
0FFE
0208
148E
29F0
C310
44A0
4040
41B0
0E0E
0000
0000
ENDCHAR
STARTCHAR U+51CD
ENCODING 20941
SWIDTH 1000 0
DWIDTH 16 0
BBX 16 16 0 -2
BITMAP
0040
8FFE
4040
27FC
0444
07FC
0444
17FC
2444
C150
4248
4446
0842
0040
0000
0000
ENDCHAR
STARTCHAR U+51CE
ENCODING 20942
SWIDTH 1000 0
DWIDTH 16 0
BBX 16 16 0 -2
BITMAP
00E0
8110
4208
6404
2802
03F8
0840
1040
27FC
E040
2444
2248
2150
2FFE
0000
0000
ENDCHAR
STARTCHAR U+51D0
ENCODING 20944
SWIDTH 1000 0
DWIDTH 16 0
BBX 16 16 0 -2
BITMAP
0004
03FE
8050
63FE
3252
029E
0202
0BFE
1020
E020
21FC
2020
2020
23FE
0000
0000
ENDCHAR
STARTCHAR U+51D4
ENCODING 20948
SWIDTH 1000 0
DWIDTH 16 0
BBX 16 16 0 -2
BITMAP
0040
80A0
61F0
2208
07FC
0A0A
03F8
2208
C3F8
4400
4BFC
5204
4204
43FC
0000
0000
ENDCHAR
STARTCHAR U+51D7
ENCODING 20951
SWIDTH 1000 0
DWIDTH 16 0
BBX 16 16 0 -2
BITMAP
0020
8222
C222
43FE
20A0
1110
03FE
0510
11FC
2110
C1FC
4110
4110
41FE
0000
0000
ENDCHAR
STARTCHAR U+51D8
ENCODING 20952
SWIDTH 1000 0
DWIDTH 16 0
BBX 16 16 0 -2
BITMAP
0880
8882
5FBC
48A0
48A0
0FBE
08A4
2FA4
28A4
C8A4
5FE4
4544
4884
5044
0000
0000
ENDCHAR
STARTCHAR U+51DC
ENCODING 20956
SWIDTH 1000 0
DWIDTH 16 0
BBX 16 16 0 -2
BITMAP
0020
87FE
63FC
2294
02F4
0204
13FC
21F0
C040
47FC
4150
424C
4444
4040
0000
0000
ENDCHAR
STARTCHAR U+51DD
ENCODING 20957
SWIDTH 1000 0
DWIDTH 16 0
BBX 16 16 0 -2
BITMAP
0800
887C
6F04
2828
0790
287E
2F82
3214
C250
5FDC
4250
4550
48BE
1104
0000
0000
ENDCHAR
STARTCHAR U+51DE
ENCODING 20958
SWIDTH 1000 0
DWIDTH 16 0
BBX 16 16 0 -2
BITMAP
8BDE
4A92
6A92
2BD2
0A52
1A5E
2BD0
CA90
5292
23DE
4000
2444
2222
4222
0000
0000
ENDCHAR
STARTCHAR U+51E0
ENCODING 20960
SWIDTH 1000 0
DWIDTH 16 0
BBX 16 16 0 -2
BITMAP
0820
0FF0
0820
0820
0820
0820
0820
0820
0820
0820
0822
1022
2022
C01E
0000
0000
ENDCHAR
STARTCHAR U+51E1
ENCODING 20961
SWIDTH 1000 0
DWIDTH 16 0
BBX 16 16 0 -2
BITMAP
0020
0FF0
0820
0820
0A20
0920
09A0
08A0
0820
0822
1022
1022
201E
4000
0000
0000
ENDCHAR
STARTCHAR U+51F0
ENCODING 20976
SWIDTH 1000 0
DWIDTH 16 0
BBX 16 16 0 -2
BITMAP
7FF8
4208
4408
4FE8
5828
4FE8
4828
4FE8
4008
4FE8
4108
4FEA
410A
9FF6
0000
0000
ENDCHAR
STARTCHAR U+51F1
ENCODING 20977
SWIDTH 1000 0
DWIDTH 16 0
BBX 16 16 0 -2
BITMAP
1078
9248
9248
FE48
0048
FE48
0048
FE48
8248
8248
FE4A
824A
448A
FF0E
0000
0000
ENDCHAR
STARTCHAR U+51F3
ENCODING 20979
SWIDTH 1000 0
DWIDTH 16 0
BBX 16 16 0 -2
BITMAP
3E90
12A0
0C48
0BB0
1010
2FEE
C824
0FE0
0440
7FFC
07C0
0444
0844
303C
0000
0000
ENDCHAR
STARTCHAR U+51F5
ENCODING 20981
SWIDTH 1000 0
DWIDTH 16 0
BBX 16 16 0 -2
BITMAP
0000
4004
4004
4004
4004
4004
4004
4004
4004
4004
4004
7FFC
4004
0000
0000
0000
ENDCHAR
STARTCHAR U+51F6
ENCODING 20982
SWIDTH 1000 0
DWIDTH 16 0
BBX 16 16 0 -2
BITMAP
8002
9012
8822
8442
8282
8102
8282
8442
8822
901A
A00A
8002
FFFE
8002
0000
0000
ENDCHAR
STARTCHAR U+51F8
ENCODING 20984
SWIDTH 1000 0
DWIDTH 16 0
BBX 16 16 0 -2
BITMAP
0000
0FE0
0820
0820
0820
0824
783E
4004
4004
4004
4004
4004
7FFC
0000
0000
0000
ENDCHAR
STARTCHAR U+51F9
ENCODING 20985
SWIDTH 1000 0
DWIDTH 16 0
BBX 16 16 0 -2
BITMAP
0000
0004
7C7E
4444
4444
4444
4444
4444
47C4
4004
4004
4004
7FFC
0000
0000
0000
ENDCHAR
STARTCHAR U+51FA
ENCODING 20986
SWIDTH 1000 0
DWIDTH 16 0
BBX 16 16 0 -2
BITMAP
0100
0100
2108
2108
2108
3FF8
2108
0100
4104
4104
4104
4104
7FFC
4004
0000
0000
ENDCHAR
STARTCHAR U+51FD
ENCODING 20989
SWIDTH 1000 0
DWIDTH 16 0
BBX 16 16 0 -2
BITMAP
1FF0
0020
0040
8182
9112
8932
8542
8102
8932
B11A
8502
8202
FFFE
8002
0000
0000
ENDCHAR
STARTCHAR U+5200
ENCODING 20992
SWIDTH 1000 0
DWIDTH 16 0
BBX 16 16 0 -2
BITMAP
0004
FFFE
0204
0204
0204
0204
0204
0204
0404
0804
0804
1044
2028
4010
0000
0000
ENDCHAR
STARTCHAR U+5201
ENCODING 20993
SWIDTH 1000 0
DWIDTH 16 0
BBX 16 16 0 -2
BITMAP
0004
FFFE
0004
0004
0044
0084
0104
0204
0404
0804
3004
E044
0028
0010
0000
0000
ENDCHAR
STARTCHAR U+5203
ENCODING 20995
SWIDTH 1000 0
DWIDTH 16 0
BBX 16 16 0 -2
BITMAP
0004
7FFE
0104
0104
2104
1904
0D04
0304
0204
0204
0404
0844
1028
6010
0000
0000
ENDCHAR
STARTCHAR U+5206
ENCODING 20998
SWIDTH 1000 0
DWIDTH 16 0
BBX 16 16 0 -2
BITMAP
0080
0480
0440
0820
1010
2008
5FEE
8424
0420
0420
0820
0820
1140
2080
0000
0000
ENDCHAR
STARTCHAR U+5207
ENCODING 20999
SWIDTH 1000 0
DWIDTH 16 0
BBX 16 16 0 -2
BITMAP
2000
2004
21FE
2044
3E44
E044
2044
2044
2044
2444
2884
3104
0228
0C10
0000
0000
ENDCHAR
STARTCHAR U+5208
ENCODING 21000
SWIDTH 1000 0
DWIDTH 16 0
BBX 16 16 0 -2
BITMAP
0004
4104
2104
1124
1224
0A24
0424
0A24
0924
1104
1084
2084
C014
0008
0000
0000
ENDCHAR
STARTCHAR U+5209
ENCODING 21001
SWIDTH 1000 0
DWIDTH 16 0
BBX 16 16 0 -2
BITMAP
1002
1082
3FC2
4012
8012
3F12
0112
0212
0412
0812
1002
2042
404A
3FC4
0000
0000
ENDCHAR
STARTCHAR U+520A
ENCODING 21002
SWIDTH 1000 0
DWIDTH 16 0
BBX 16 16 0 -2
BITMAP
0104
3F84
0404
0424
0424
04A4
FFE4
0424
0424
0424
0404
0404
0414
0408
0000
0000
ENDCHAR
STARTCHAR U+520C
ENCODING 21004
SWIDTH 1000 0
DWIDTH 16 0
BBX 16 16 0 -2
BITMAP
0402
0402
0402
FF22
0422
0422
4422
2422
1422
0422
0402
0402
1414
0808
0000
0000
ENDCHAR
STARTCHAR U+520E
ENCODING 21006
SWIDTH 1000 0
DWIDTH 16 0
BBX 16 16 0 -2
BITMAP
1004
1004
3FA4
2AA4
4AA4
8AA4
12A4
14A4
24A4
44A4
0884
1084
2514
0208
0000
0000
ENDCHAR
STARTCHAR U+5210
ENCODING 21008
SWIDTH 1000 0
DWIDTH 16 0
BBX 16 16 0 -2
BITMAP
0102
3F82
2112
2112
2912
2512
FFD2
2112
2112
2102
2102
2102
450A
0204
0000
0000
ENDCHAR
STARTCHAR U+5211
ENCODING 21009
SWIDTH 1000 0
DWIDTH 16 0
BBX 16 16 0 -2
BITMAP
0084
7FC4
1104
1124
1124
1124
FFE4
1124
1124
1124
2104
2104
4114
0108
0000
0000
ENDCHAR
STARTCHAR U+5212
ENCODING 21010
SWIDTH 1000 0
DWIDTH 16 0
BBX 16 16 0 -2
BITMAP
1404
1204
1024
13A4
FC24
1024
1124
1224
0C24
0824
1404
2484
4294
0188
0000
0000
ENDCHAR
STARTCHAR U+5213
ENCODING 21011
SWIDTH 1000 0
DWIDTH 16 0
BBX 16 16 0 -2
BITMAP
0202
7F02
0012
0012
0112
FF92
2412
2412
2412
2412
2482
2502
460A
8404
0000
0000
ENDCHAR
STARTCHAR U+5216
ENCODING 21014
SWIDTH 1000 0
DWIDTH 16 0
BBX 16 16 0 -2
BITMAP
0102
3F82
2112
2112
3F12
2112
2112
3F12
2112
2112
2102
4102
450A
8204
0000
0000
ENDCHAR
STARTCHAR U+5217
ENCODING 21015
SWIDTH 1000 0
DWIDTH 16 0
BBX 16 16 0 -2
BITMAP
0104
7F84
1004
1024
1F24
2124
2124
5224
8A24
0424
0804
1004
2014
4008
0000
0000
ENDCHAR
STARTCHAR U+521C
ENCODING 21020
SWIDTH 1000 0
DWIDTH 16 0
BBX 16 16 0 -2
BITMAP
2402
2402
FF82
2492
2492
FF92
A412
FFD2
2452
2442
2542
4482
840A
0404
0000
0000
ENDCHAR
STARTCHAR U+521D
ENCODING 21021
SWIDTH 1000 0
DWIDTH 16 0
BBX 16 16 0 -2
BITMAP
1000
1004
05FE
FC44
0844
1044
3444
5844
9844
1444
1084
1104
1228
1410
0000
0000
ENDCHAR
STARTCHAR U+521E
ENCODING 21022
SWIDTH 1000 0
DWIDTH 16 0
BBX 16 16 0 -2
BITMAP
3F02
2102
2112
2112
3F12
2112
2112
3F12
2112
2142
2182
2E12
F00A
4004
0000
0000
ENDCHAR
STARTCHAR U+5221
ENCODING 21025
SWIDTH 1000 0
DWIDTH 16 0
BBX 16 16 0 -2
BITMAP
0002
FF02
4112
4112
7F12
4412
4412
7F92
4412
4402
4402
5282
E18A
4084
0000
0000
ENDCHAR
STARTCHAR U+5224
ENCODING 21028
SWIDTH 1000 0
DWIDTH 16 0
BBX 16 16 0 -2
BITMAP
0404
4444
34C4
1524
0424
7FA4
0424
0424
FFA4
0424
0424
0804
1014
2008
0000
0000
ENDCHAR
STARTCHAR U+5225
ENCODING 21029
SWIDTH 1000 0
DWIDTH 16 0
BBX 16 16 0 -2
BITMAP
0104
3F84
2124
2124
3F24
2824
0924
0FA4
0924
0924
1124
2104
4A14
0408
0000
0000
ENDCHAR
STARTCHAR U+5228
ENCODING 21032
SWIDTH 1000 0
DWIDTH 16 0
BBX 16 16 0 -2
BITMAP
2002
2082
3FD2
4092
BC92
2492
2492
3C92
2292
2112
2042
2042
204A
1FC4
0000
0000
ENDCHAR
STARTCHAR U+5229
ENCODING 21033
SWIDTH 1000 0
DWIDTH 16 0
BBX 16 16 0 -2
BITMAP
0104
0784
7C04
0424
0424
FFA4
0C24
0E24
15A4
14A4
2424
4404
0414
0408
0000
0000
ENDCHAR
STARTCHAR U+522A
ENCODING 21034
SWIDTH 1000 0
DWIDTH 16 0
BBX 16 16 0 -2
BITMAP
7FC4
4A44
4A44
4A54
4A54
4A54
FFF4
4A54
4A54
4A54
4A44
4A44
4A54
4088
0000
0000
ENDCHAR
STARTCHAR U+522E
ENCODING 21038
SWIDTH 1000 0
DWIDTH 16 0
BBX 16 16 0 -2
BITMAP
0182
7E02
0802
0912
FF92
0812
0812
0912
7F92
4112
4112
4102
7F0A
4104
0000
0000
ENDCHAR
STARTCHAR U+5230
ENCODING 21040
SWIDTH 1000 0
DWIDTH 16 0
BBX 16 16 0 -2
BITMAP
0002
7F82
1012
2212
4112
7F92
0892
0812
7F12
0812
0812
0F82
F80A
4004
0000
0000
ENDCHAR
STARTCHAR U+5231
ENCODING 21041
SWIDTH 1000 0
DWIDTH 16 0
BBX 16 16 0 -2
BITMAP
0000
24FC
2424
FF24
24AC
2466
2434
FF24
2424
2424
2444
4484
8508
0430
0000
0000
ENDCHAR
STARTCHAR U+5232
ENCODING 21042
SWIDTH 1000 0
DWIDTH 16 0
BBX 16 16 0 -2
BITMAP
0802
0802
7F12
0812
0812
FF92
0012
0812
0812
7F12
0802
0802
FF8A
0004
0000
0000
ENDCHAR
STARTCHAR U+5233
ENCODING 21043
SWIDTH 1000 0
DWIDTH 16 0
BBX 16 16 0 -2
BITMAP
0402
7FC2
0A0A
110A
208A
5F4A
802A
7FCA
100A
1F8A
0082
0082
010A
1E04
0000
0000
ENDCHAR
STARTCHAR U+5235
ENCODING 21045
SWIDTH 1000 0
DWIDTH 16 0
BBX 16 16 0 -2
BITMAP
FFC2
2102
2112
3F12
2112
2112
3F12
2112
2112
FF02
0102
0102
010A
0104
0000
0000
ENDCHAR
STARTCHAR U+5236
ENCODING 21046
SWIDTH 1000 0
DWIDTH 16 0
BBX 16 16 0 -2
BITMAP
0402
2402
3F92
2412
4412
FFD2
0412
3F92
2492
2482
2682
2502
040A
0404
0000
0000
ENDCHAR
STARTCHAR U+5237
ENCODING 21047
SWIDTH 1000 0
DWIDTH 16 0
BBX 16 16 0 -2
BITMAP
0004
3FC4
2054
3FD4
2214
2214
3FD4
3254
3254
5254
5344
9284
0214
0208
0000
0000
ENDCHAR
STARTCHAR U+5238
ENCODING 21048
SWIDTH 1000 0
DWIDTH 16 0
BBX 16 16 0 -2
BITMAP
0100
1110
0920
3FF8
0100
7FFC
0440
0820
3FF8
C226
0220
0420
08A0
1040
0000
0000
ENDCHAR
STARTCHAR U+523A
ENCODING 21050
SWIDTH 1000 0
DWIDTH 16 0
BBX 16 16 0 -2
BITMAP
0802
0902
FF82
0812
7F12
4912
4912
4B12
1C12
2A12
4982
8882
080A
0804
0000
0000
ENDCHAR
STARTCHAR U+523B
ENCODING 21051
SWIDTH 1000 0
DWIDTH 16 0
BBX 16 16 0 -2
BITMAP
0802
0482
FFC2
0412
0892
3F12
1212
0492
1912
6212
0602
1982
E08A
0004
0000
0000
ENDCHAR
STARTCHAR U+5241
ENCODING 21057
SWIDTH 1000 0
DWIDTH 16 0
BBX 16 16 0 -2
BITMAP
3F02
2202
2212
2212
2992
4812
FF92
0812
1C12
2B12
4902
8802
080A
0804
0000
0000
ENDCHAR
STARTCHAR U+5243
ENCODING 21059
SWIDTH 1000 0
DWIDTH 16 0
BBX 16 16 0 -2
BITMAP
2202
1402
7F12
0912
0912
7F12
4812
4892
7FD2
2892
4882
8A82
090A
0804
0000
0000
ENDCHAR
STARTCHAR U+5244
ENCODING 21060
SWIDTH 1000 0
DWIDTH 16 0
BBX 16 16 0 -2
BITMAP
FF82
0002
2482
4912
9212
4912
2492
0012
FF92
0802
0802
0802
FF8A
0004
0000
0000
ENDCHAR
STARTCHAR U+5246
ENCODING 21062
SWIDTH 1000 0
DWIDTH 16 0
BBX 16 16 0 -2
BITMAP
1004
0804
7F24
4124
7F24
4124
7F24
4024
4824
4404
4604
4904
5094
E008
0000
0000
ENDCHAR
STARTCHAR U+5247
ENCODING 21063
SWIDTH 1000 0
DWIDTH 16 0
BBX 16 16 0 -2
BITMAP
0102
7F82
4112
4112
7F12
4112
4112
7F12
4112
4112
7F02
1402
220A
C184
0000
0000
ENDCHAR
STARTCHAR U+5249
ENCODING 21065
SWIDTH 1000 0
DWIDTH 16 0
BBX 16 16 0 -2
BITMAP
0402
2482
2482
248A
248A
554A
8E2A
040A
040A
7FCA
0402
0402
FFEA
0004
0000
0000
ENDCHAR
STARTCHAR U+524A
ENCODING 21066
SWIDTH 1000 0
DWIDTH 16 0
BBX 16 16 0 -2
BITMAP
4902
2902
2A12
0812
7F12
4112
4112
7F12
4112
4112
7F02
4102
450A
8204
0000
0000
ENDCHAR
STARTCHAR U+524B
ENCODING 21067
SWIDTH 1000 0
DWIDTH 16 0
BBX 16 16 0 -2
BITMAP
1000
1408
FE08
1048
FE48
8248
8248
FE48
AA08
2808
282A
2812
4802
8FFE
0000
0000
ENDCHAR
STARTCHAR U+524C
ENCODING 21068
SWIDTH 1000 0
DWIDTH 16 0
BBX 16 16 0 -2
BITMAP
0802
0902
FF82
0812
7F12
4912
7F12
5912
1C12
2A02
2902
4882
880A
0804
0000
0000
ENDCHAR
STARTCHAR U+524D
ENCODING 21069
SWIDTH 1000 0
DWIDTH 16 0
BBX 16 16 0 -2
BITMAP
1010
0C30
0444
FFFE
0000
7E04
4224
7E24
4224
7E24
4224
4204
4A14
4408
0000
0000
ENDCHAR
STARTCHAR U+524E
ENCODING 21070
SWIDTH 1000 0
DWIDTH 16 0
BBX 16 16 0 -2
BITMAP
6302
1402
0812
1412
6312
0A12
FF92
0A12
2A12
2A12
2A02
4902
080A
0804
0000
0000
ENDCHAR
STARTCHAR U+5252
ENCODING 21074
SWIDTH 1000 0
DWIDTH 16 0
BBX 16 16 0 -2
BITMAP
2202
2202
FF92
2212
2212
FF92
0012
7F12
4112
7F12
4102
4102
7F0A
4104
0000
0000
ENDCHAR
STARTCHAR U+5254
ENCODING 21076
SWIDTH 1000 0
DWIDTH 16 0
BBX 16 16 0 -2
BITMAP
0102
3F82
2112
3F12
2112
3F12
1012
3F92
5492
9482
2482
4882
128A
0104
0000
0000
ENDCHAR
STARTCHAR U+5255
ENCODING 21077
SWIDTH 1000 0
DWIDTH 16 0
BBX 16 16 0 -2
BITMAP
1202
1202
1212
F3D2
1212
1212
F3D2
1212
1212
F3D2
1212
1202
220A
0204
0000
0000
ENDCHAR
STARTCHAR U+5256
ENCODING 21078
SWIDTH 1000 0
DWIDTH 16 0
BBX 16 16 0 -2
BITMAP
0802
0402
7F92
2112
1112
1212
FFD2
0012
3F12
2112
2102
2102
3F0A
2104
0000
0000
ENDCHAR
STARTCHAR U+525A
ENCODING 21082
SWIDTH 1000 0
DWIDTH 16 0
BBX 16 16 0 -2
BITMAP
0802
FF82
0802
7F12
4912
7F12
0812
7F12
0912
FF92
0912
7F02
080A
1004
0000
0000
ENDCHAR
STARTCHAR U+525B
ENCODING 21083
SWIDTH 1000 0
DWIDTH 16 0
BBX 16 16 0 -2
BITMAP
FF82
A282
9492
8892
FF92
8892
8892
AA92
AA92
AA92
BE82
8082
828A
8104
0000
0000
ENDCHAR
STARTCHAR U+525C
ENCODING 21084
SWIDTH 1000 0
DWIDTH 16 0
BBX 16 16 0 -2
BITMAP
0802
0402
7FC2
404A
A08A
3BCA
4A4A
6A4A
934A
128A
2242
4242
81CA
0004
0000
0000
ENDCHAR
STARTCHAR U+525D
ENCODING 21085
SWIDTH 1000 0
DWIDTH 16 0
BBX 16 16 0 -2
BITMAP
0802
1F82
2112
7E12
0492
FFD2
0412
4492
2512
0C12
1502
24C2
C44A
0804
0000
0000
ENDCHAR
STARTCHAR U+525E
ENCODING 21086
SWIDTH 1000 0
DWIDTH 16 0
BBX 16 16 0 -2
BITMAP
0804
7F04
0824
1424
2224
FFA4
0124
3D24
2524
2504
3D04
2104
0514
0208
0000
0000
ENDCHAR
STARTCHAR U+525F
ENCODING 21087
SWIDTH 1000 0
DWIDTH 16 0
BBX 16 16 0 -2
BITMAP
0002
FBE2
8A22
514A
208A
514A
8A2A
FBEA
8A2A
514A
2082
5142
8A2A
0004
0000
0000
ENDCHAR
STARTCHAR U+5261
ENCODING 21089
SWIDTH 1000 0
DWIDTH 16 0
BBX 16 16 0 -2
BITMAP
4904
2904
2A24
1624
21A4
C8A4
0824
4924
2A24
0804
1604
2184
C094
0008
0000
0000
ENDCHAR
STARTCHAR U+5262
ENCODING 21090
SWIDTH 1000 0
DWIDTH 16 0
BBX 16 16 0 -2
BITMAP
0102
FF82
1002
3812
4412
8A92
1312
A212
4712
AA92
1252
2A02
420A
8C04
0000
0000
ENDCHAR
STARTCHAR U+5269
ENCODING 21097
SWIDTH 1000 0
DWIDTH 16 0
BBX 16 16 0 -2
BITMAP
00C2
3F02
0402
FFD2
1512
F5D2
1512
F5D2
0C12
1612
2592
C482
040A
0404
0000
0000
ENDCHAR
STARTCHAR U+526A
ENCODING 21098
SWIDTH 1000 0
DWIDTH 16 0
BBX 16 16 0 -2
BITMAP
0820
0444
FFFE
3E48
2248
3E48
2248
3E48
2218
7FFC
0408
0408
1828
6010
0000
0000
ENDCHAR
STARTCHAR U+526B
ENCODING 21099
SWIDTH 1000 0
DWIDTH 16 0
BBX 16 16 0 -2
BITMAP
0802
0402
7FC2
4A12
7F92
4A12
4E12
4012
5F12
5112
4A02
4402
8A0A
1104
0000
0000
ENDCHAR
STARTCHAR U+526C
ENCODING 21100
SWIDTH 1000 0
DWIDTH 16 0
BBX 16 16 0 -2
BITMAP
0802
8882
8882
FF92
0012
FF92
1012
2012
FF92
9492
9482
9482
948A
8104
0000
0000
ENDCHAR
STARTCHAR U+526D
ENCODING 21101
SWIDTH 1000 0
DWIDTH 16 0
BBX 16 16 0 -2
BITMAP
7F82
4082
7F92
4012
5F12
4812
5112
5F92
4492
4412
5F82
8402
040A
7FC4
0000
0000
ENDCHAR
STARTCHAR U+526E
ENCODING 21102
SWIDTH 1000 0
DWIDTH 16 0
BBX 16 16 0 -2
BITMAP
3E02
2202
2E12
2A12
2A12
FF92
8092
BE92
A292
A282
BE82
A282
808A
8104
0000
0000
ENDCHAR
STARTCHAR U+526F
ENCODING 21103
SWIDTH 1000 0
DWIDTH 16 0
BBX 16 16 0 -2
BITMAP
FF84
0004
3E24
2224
3E24
0024
7F24
4924
4924
7F04
4904
4904
7F14
4108
0000
0000
ENDCHAR
STARTCHAR U+5272
ENCODING 21106
SWIDTH 1000 0
DWIDTH 16 0
BBX 16 16 0 -2
BITMAP
0402
7FE2
4442
8492
BF92
0412
3F92
0412
7FD2
0012
3F82
2082
3F8A
2084
0000
0000
ENDCHAR
STARTCHAR U+5274
ENCODING 21108
SWIDTH 1000 0
DWIDTH 16 0
BBX 16 16 0 -2
BITMAP
4902
4902
7F12
0012
FF92
0012
7F12
4112
4112
4112
7F02
4102
220A
FF84
0000
0000
ENDCHAR
STARTCHAR U+5275
ENCODING 21109
SWIDTH 1000 0
DWIDTH 16 0
BBX 16 16 0 -2
BITMAP
1E02
2102
4482
BF52
2112
3F12
2112
3F12
2012
7F12
A112
2102
210A
3F04
0000
0000
ENDCHAR
STARTCHAR U+5277
ENCODING 21111
SWIDTH 1000 0
DWIDTH 16 0
BBX 16 16 0 -2
BITMAP
0402
7FC2
1112
0A12
7FD2
4A12
4A12
5F92
6212
4212
4F82
4202
4206
9FC2
0000
0000
ENDCHAR
STARTCHAR U+5278
ENCODING 21112
SWIDTH 1000 0
DWIDTH 16 0
BBX 16 16 0 -2
BITMAP
0802
FF82
0802
7F12
7D12
4912
7F12
0892
FF92
0212
FF92
2202
120A
0604
0000
0000
ENDCHAR
STARTCHAR U+527A
ENCODING 21114
SWIDTH 1000 0
DWIDTH 16 0
BBX 16 16 0 -2
BITMAP
1040
7C7E
1044
FEA4
3818
5428
9246
7FFE
4000
4FF8
4108
4108
8248
1C30
0000
0000
ENDCHAR
STARTCHAR U+527B
ENCODING 21115
SWIDTH 1000 0
DWIDTH 16 0
BBX 16 16 0 -2
BITMAP
0402
4442
4452
7FD2
0012
7BD2
4A52
4A52
7BD2
4A52
7BD2
4A42
4A4A
9CC4
0000
0000
ENDCHAR
STARTCHAR U+527C
ENCODING 21116
SWIDTH 1000 0
DWIDTH 16 0
BBX 16 16 0 -2
BITMAP
2000
4102
FF02
2212
5492
FF92
1412
2A12
5112
A892
5412
2802
100A
E004
0000
0000
ENDCHAR
STARTCHAR U+527D
ENCODING 21117
SWIDTH 1000 0
DWIDTH 16 0
BBX 16 16 0 -2
BITMAP
FFE2
0A0A
7FCA
4A4A
4A4A
7FCA
000A
1F0A
000A
FFE2
1502
24C2
444A
0404
0000
0000
ENDCHAR
STARTCHAR U+527F
ENCODING 21119
SWIDTH 1000 0
DWIDTH 16 0
BBX 16 16 0 -2
BITMAP
2482
4912
2492
3F92
2492
3F92
2492
3F92
0412
FFF2
1512
2482
444A
0404
0000
0000
ENDCHAR
STARTCHAR U+5280
ENCODING 21120
SWIDTH 1000 0
DWIDTH 16 0
BBX 16 16 0 -2
BITMAP
7F02
0A02
0412
FF92
2892
4912
1812
FF92
9492
9492
E382
9C82
948A
9C84
0000
0000
ENDCHAR
STARTCHAR U+5281
ENCODING 21121
SWIDTH 1000 0
DWIDTH 16 0
BBX 16 16 0 -2
BITMAP
1402
3F82
2412
6412
BF92
2412
2412
3F92
2412
2412
3F82
5482
4A4A
8A44
0000
0000
ENDCHAR
STARTCHAR U+5282
ENCODING 21122
SWIDTH 1000 0
DWIDTH 16 0
BBX 16 16 0 -2
BITMAP
7FF2
4002
514A
4A4A
7F7A
44AA
550A
554A
5F4A
444A
44A2
4892
9116
2202
0000
0000
ENDCHAR
STARTCHAR U+5283
ENCODING 21123
SWIDTH 1000 0
DWIDTH 16 0
BBX 16 16 0 -2
BITMAP
0802
7F02
FF92
0912
7F12
7F12
0812
FF92
7F12
4912
7F12
4902
7F02
FF8E
0000
0000
ENDCHAR
STARTCHAR U+5284
ENCODING 21124
SWIDTH 1000 0
DWIDTH 16 0
BBX 16 16 0 -2
BITMAP
4204
7384
A504
0824
1424
2224
4124
BEA4
0024
7F04
4104
4104
7F14
4108
0000
0000
ENDCHAR
STARTCHAR U+5287
ENCODING 21127
SWIDTH 1000 0
DWIDTH 16 0
BBX 16 16 0 -2
BITMAP
0802
0F82
7FC2
4852
7F92
4812
4F12
7FD2
4812
5E52
6682
4B02
B68A
0C44
0000
0000
ENDCHAR
STARTCHAR U+5288
ENCODING 21128
SWIDTH 1000 0
DWIDTH 16 0
BBX 16 16 0 -2
BITMAP
3E20
23FE
2288
3E50
21FC
3E20
52F8
5E20
8020
7FF8
0408
0408
0850
3020
0000
0000
ENDCHAR
STARTCHAR U+5289
ENCODING 21129
SWIDTH 1000 0
DWIDTH 16 0
BBX 16 16 0 -2
BITMAP
47C2
8242
9252
F452
1C92
2212
4112
BE92
0812
7F12
4902
2A02
1C0A
FF84
0000
0000
ENDCHAR
STARTCHAR U+528A
ENCODING 21130
SWIDTH 1000 0
DWIDTH 16 0
BBX 16 16 0 -2
BITMAP
1C04
2204
DD84
0024
FFA4
AAA4
9CA4
FFA4
0024
7F24
4104
7F04
4114
7F08
0000
0000
ENDCHAR
STARTCHAR U+528B
ENCODING 21131
SWIDTH 1000 0
DWIDTH 16 0
BBX 16 16 0 -2
BITMAP
1F02
1102
1F12
0012
7BD2
4A52
7BD2
0412
FFF2
1502
2482
4442
040A
0404
0000
0000
ENDCHAR
STARTCHAR U+528C
ENCODING 21132
SWIDTH 1000 0
DWIDTH 16 0
BBX 16 16 0 -2
BITMAP
0402
2782
2402
FFEA
00CA
7FCA
408A
7E8A
48AA
5ACA
6A82
8542
0832
3016
0000
0000
ENDCHAR
STARTCHAR U+528D
ENCODING 21133
SWIDTH 1000 0
DWIDTH 16 0
BBX 16 16 0 -2
BITMAP
0804
1404
2204
4184
BEA4
0024
7724
5524
5524
7724
2204
2204
5514
8888
0000
0000
ENDCHAR
STARTCHAR U+5291
ENCODING 21137
SWIDTH 1000 0
DWIDTH 16 0
BBX 16 16 0 -2
BITMAP
0800
0402
FFC2
0A8A
F50A
554A
554A
952A
208A
3F82
2082
3F82
208A
4084
0000
0000
ENDCHAR
STARTCHAR U+5293
ENCODING 21139
SWIDTH 1000 0
DWIDTH 16 0
BBX 16 16 0 -2
BITMAP
0402
3F82
3282
298A
3F8A
7FCA
444A
7FCA
444A
7FCA
FFC2
1102
110A
6104
0000
0000
ENDCHAR
STARTCHAR U+5296
ENCODING 21142
SWIDTH 1000 0
DWIDTH 16 0
BBX 16 16 0 -2
BITMAP
7E02
8402
FF82
8092
FF92
7B92
4212
7F92
8412
FF92
8892
FF92
2482
C7CE
0000
0000
ENDCHAR
STARTCHAR U+5297
ENCODING 21143
SWIDTH 1000 0
DWIDTH 16 0
BBX 16 16 0 -2
BITMAP
A502
F782
2102
F7D2
AD52
39D2
7F92
4092
7F92
4092
7F92
4082
7F82
804E
0000
0000
ENDCHAR
STARTCHAR U+5298
ENCODING 21144
SWIDTH 1000 0
DWIDTH 16 0
BBX 16 16 0 -2
BITMAP
0402
7FC2
5102
7BD2
5112
7B92
5152
4A12
7BD2
4A12
7BD2
4A12
BBC2
120E
0000
0000
ENDCHAR
STARTCHAR U+5299
ENCODING 21145
SWIDTH 1000 0
DWIDTH 16 0
BBX 16 16 0 -2
BITMAP
1F02
1202
FFCA
290A
560A
2D0A
148A
6C4A
208A
FBEA
AAAA
FBE2
28A2
FBEE
0000
0000
ENDCHAR
STARTCHAR U+529B
ENCODING 21147
SWIDTH 1000 0
DWIDTH 16 0
BBX 16 16 0 -2
BITMAP
0200
0200
0204
FFFE
0204
0204
0204
0204
0404
0404
0804
1044
2028
C010
0000
0000
ENDCHAR
STARTCHAR U+529F
ENCODING 21151
SWIDTH 1000 0
DWIDTH 16 0
BBX 16 16 0 -2
BITMAP
0080
0880
FC80
1084
17FE
1084
1084
1084
1D04
F104
4104
0244
0428
0810
0000
0000
ENDCHAR
STARTCHAR U+52A0
ENCODING 21152
SWIDTH 1000 0
DWIDTH 16 0
BBX 16 16 0 -2
BITMAP
1000
1000
1000
127C
FF44
1244
1244
1244
1244
1244
1244
2244
4A7C
8444
0000
0000
ENDCHAR
STARTCHAR U+52A3
ENCODING 21155
SWIDTH 1000 0
DWIDTH 16 0
BBX 16 16 0 -2
BITMAP
0100
1118
110C
2334
00C0
0700
1900
E108
1FFC
0108
0208
0408
0850
3020
0000
0000
ENDCHAR
STARTCHAR U+52A6
ENCODING 21158
SWIDTH 1000 0
DWIDTH 16 0
BBX 16 16 0 -2
BITMAP
0100
0100
3FF8
0208
0408
1870
0000
2020
FEFE
2222
2222
4242
8282
1C1C
0000
0000
ENDCHAR
STARTCHAR U+52A9
ENCODING 21161
SWIDTH 1000 0
DWIDTH 16 0
BBX 16 16 0 -2
BITMAP
0220
3F20
2224
23FE
3E24
2224
2224
3E24
2244
2244
2F44
F084
4128
0210
0000
0000
ENDCHAR
STARTCHAR U+52AA
ENCODING 21162
SWIDTH 1000 0
DWIDTH 16 0
BBX 16 16 0 -2
BITMAP
1000
FEFC
2284
2448
6430
1820
1450
628E
0204
3FF8
0208
0408
1850
6020
0000
0000
ENDCHAR
STARTCHAR U+52AB
ENCODING 21163
SWIDTH 1000 0
DWIDTH 16 0
BBX 16 16 0 -2
BITMAP
0820
0820
7F20
0824
08FE
0824
FFA4
1024
1444
2244
7E84
2284
0128
0210
0000
0000
ENDCHAR
STARTCHAR U+52AC
ENCODING 21164
SWIDTH 1000 0
DWIDTH 16 0
BBX 16 16 0 -2
BITMAP
2020
2220
7F20
8224
42FE
7A24
4A24
4A24
4A24
7A44
4244
0284
14A8
0910
0000
0000
ENDCHAR
STARTCHAR U+52AD
ENCODING 21165
SWIDTH 1000 0
DWIDTH 16 0
BBX 16 16 0 -2
BITMAP
0220
FF20
2224
22FE
2A24
4424
8024
7E24
4224
4244
4244
7E84
42A8
0110
0000
0000
ENDCHAR
STARTCHAR U+52AE
ENCODING 21166
SWIDTH 1000 0
DWIDTH 16 0
BBX 16 16 0 -2
BITMAP
0810
4810
4810
7E10
48FE
8812
0812
FF12
0812
0812
1412
2222
414A
8084
0000
0000
ENDCHAR
STARTCHAR U+52BB
ENCODING 21179
SWIDTH 1000 0
DWIDTH 16 0
BBX 16 16 0 -2
BITMAP
0000
FF90
8010
BE10
887E
8812
8812
BE12
8812
8812
8812
FF12
8022
FFC4
0000
0000
ENDCHAR
STARTCHAR U+52BC
ENCODING 21180
SWIDTH 1000 0
DWIDTH 16 0
BBX 16 16 0 -2
BITMAP
1020
1020
FF20
10FE
1022
1022
FE22
0022
FE22
8222
8242
8284
FE28
8210
0000
0000
ENDCHAR
STARTCHAR U+52BE
ENCODING 21182
SWIDTH 1000 0
DWIDTH 16 0
BBX 16 16 0 -2
BITMAP
1020
0920
FFA0
1024
12FE
2424
7C24
2824
1244
2444
4C44
9284
22A8
0110
0000
0000
ENDCHAR
STARTCHAR U+52C0
ENCODING 21184
SWIDTH 1000 0
DWIDTH 16 0
BBX 16 16 0 -2
BITMAP
0810
0810
FF90
083E
0812
7F12
4112
4112
7F12
2412
24A2
2502
4E14
8408
0000
0000
ENDCHAR
STARTCHAR U+52C1
ENCODING 21185
SWIDTH 1000 0
DWIDTH 16 0
BBX 16 16 0 -2
BITMAP
0010
FF90
2490
493E
9212
4912
2492
FF92
0812
0812
0812
0822
0F42
F88C
0000
0000
ENDCHAR
ENDFONT
